<svg xmlns="http://www.w3.org/2000/svg" width="338.307" height="177.044" viewBox="0 0 338.307 177.044">
  <g id="Grupo_130798" data-name="Grupo 130798" transform="translate(-12531.273 12783.55) rotate(90)">
    <g id="Grupo_130082" data-name="Grupo 130082" transform="translate(-12772.05 -12869.58)">
      <g id="Grupo_130709" data-name="Grupo 130709" transform="translate(0 0)">
        <g id="Grupo_130708" data-name="Grupo 130708" transform="translate(229.472) rotate(90)" opacity="0.7">
          <path id="Trazado_247495" data-name="Trazado 247495" d="M0,15.688H85l30.221,19.837,38.38-.361L176.756,0H301.975" transform="translate(0.513 151.251)" fill="none" stroke="rgba(126,137,190,0.19)" stroke-miterlimit="10" stroke-width="3"/>
          <path id="Trazado_247496" data-name="Trazado 247496" d="M184.978,17.582H69.194L43.464,0H0" transform="translate(0.513 78.74)" fill="none" stroke="rgba(126,137,190,0.19)" stroke-miterlimit="10" stroke-width="3"/>
          <path id="Trazado_247497" data-name="Trazado 247497" d="M338.307,18.463H276.492L260.474,34.481H202.39l-16.9-16.9H69.707L43.977,0H0" transform="translate(0 98.321)" fill="none" stroke="rgba(126,137,190,0.19)" stroke-miterlimit="10" stroke-width="3"/>
          <line id="Línea_338" data-name="Línea 338" x2="137.518" transform="translate(0.513 155.166)" fill="none" stroke="rgba(126,137,190,0.19)" stroke-miterlimit="10" stroke-width="3"/>
          <path id="Trazado_247501" data-name="Trazado 247501" d="M0,19.412H78.454L107.523,0h41.449" transform="translate(0.513 220.06)" fill="none" stroke="rgba(126,137,190,0.19)" stroke-miterlimit="10" stroke-width="3"/>
          <path id="Trazado_247502" data-name="Trazado 247502" d="M0,0H211.63l19.354,27.334h70.991" transform="translate(0.513 206.393)" fill="none" stroke="rgba(126,137,190,0.19)" stroke-miterlimit="10" stroke-width="3"/>
          <line id="Línea_341" data-name="Línea 341" x2="75.1" transform="translate(0.513 220.588)" fill="none" stroke="rgba(126,137,190,0.19)" stroke-miterlimit="10" stroke-width="3"/>
          <line id="Línea_347" data-name="Línea 347" x2="123.503" transform="translate(0.513 137.244)" fill="none" stroke="rgba(126,137,190,0.19)" stroke-miterlimit="10" stroke-width="3"/>
          <path id="Trazado_247510" data-name="Trazado 247510" d="M0,0H75.1L94.924,13.056h118.4" transform="translate(0.513 65.428)" fill="none" stroke="rgba(126,137,190,0.19)" stroke-miterlimit="10" stroke-width="3"/>
        </g>
      </g>
    </g>
  </g>
</svg>
