<svg xmlns="http://www.w3.org/2000/svg" width="120" height="120" viewBox="0 0 120 120">
  <g id="Grupo_173004" data-name="Grupo 173004" transform="translate(-16218 -3521)">
    <rect id="Rectángulo_294024" data-name="Rectángulo 294024" width="120" height="120" rx="14" transform="translate(16218 3521)" fill="#fda929"/>
    <g id="progreso" transform="translate(16229.6 3532)">
      <path id="Trazado_264129" data-name="Trazado 264129" d="M56.853,36.676A18.176,18.176,0,1,0,38.676,54.853,18.176,18.176,0,0,0,56.853,36.676Zm-33.192,0A15.015,15.015,0,1,1,38.676,51.692,15.015,15.015,0,0,1,23.661,36.676Z" transform="translate(9.579 9.579)" fill="#12263f"/>
      <path id="Trazado_264130" data-name="Trazado 264130" d="M42.45,68.9a28.587,28.587,0,0,0,5.476-.539A1.581,1.581,0,0,0,49.2,66.809V65.065a1.013,1.013,0,0,1,.766-.937,24.75,24.75,0,0,0,3.9-1.621,1.012,1.012,0,0,1,1.207.12l1.241,1.241a1.577,1.577,0,0,0,2,.193,28.455,28.455,0,0,0,7.743-7.742,1.581,1.581,0,0,0-.194-2l-1.241-1.241a1.016,1.016,0,0,1-.121-1.207,24.609,24.609,0,0,0,1.621-3.9,1.013,1.013,0,0,1,.937-.766h1.745a1.58,1.58,0,0,0,1.551-1.278,28.11,28.11,0,0,0,0-10.95A1.581,1.581,0,0,0,68.81,33.7H67.066a1.014,1.014,0,0,1-.937-.766,24.609,24.609,0,0,0-1.621-3.9,1.016,1.016,0,0,1,.121-1.207l1.241-1.241a1.581,1.581,0,0,0,.194-2,28.458,28.458,0,0,0-7.744-7.742,1.578,1.578,0,0,0-2,.193L55.08,18.271a1.02,1.02,0,0,1-1.208.122,24.613,24.613,0,0,0-3.9-1.622,1.013,1.013,0,0,1-.766-.937V14.089a1.581,1.581,0,0,0-1.277-1.551,28.178,28.178,0,0,0-10.951,0A1.581,1.581,0,0,0,35.7,14.089v1.744a1.013,1.013,0,0,1-.766.937,24.751,24.751,0,0,0-3.9,1.621,1.011,1.011,0,0,1-1.206-.12l-1.24-1.241a1.578,1.578,0,0,0-2-.193,28.458,28.458,0,0,0-7.744,7.742,1.581,1.581,0,0,0,.194,2l1.241,1.241a1.016,1.016,0,0,1,.121,1.207,24.61,24.61,0,0,0-1.621,3.9,1.013,1.013,0,0,1-.937.766H16.09a1.581,1.581,0,0,0-1.551,1.278,28.111,28.111,0,0,0,0,10.95A1.58,1.58,0,0,0,16.089,47.2h1.745a1.013,1.013,0,0,1,.937.766,24.61,24.61,0,0,0,1.621,3.9,1.016,1.016,0,0,1-.121,1.207L19.03,54.319a1.581,1.581,0,0,0-.194,2,28.455,28.455,0,0,0,7.743,7.742,1.576,1.576,0,0,0,2-.193l1.24-1.241a1.02,1.02,0,0,1,1.208-.122,24.616,24.616,0,0,0,3.9,1.622,1.013,1.013,0,0,1,.766.937v1.744a1.581,1.581,0,0,0,1.277,1.551A28.584,28.584,0,0,0,42.45,68.9Zm-6.561-7.784a21.342,21.342,0,0,1-3.4-1.414,4.171,4.171,0,0,0-4.9.691l-.3.3a25.246,25.246,0,0,1-5.08-5.08l.3-.3a4.17,4.17,0,0,0,.691-4.9,21.518,21.518,0,0,1-1.413-3.4,4.171,4.171,0,0,0-3.95-2.97h-.411a24.713,24.713,0,0,1,0-7.183h.411a4.171,4.171,0,0,0,3.95-2.97,21.518,21.518,0,0,1,1.413-3.4,4.17,4.17,0,0,0-.691-4.9l-.3-.3a25.21,25.21,0,0,1,5.08-5.08l.3.3a4.167,4.167,0,0,0,4.9.69,21.48,21.48,0,0,1,3.4-1.412,4.171,4.171,0,0,0,2.97-3.95v-.411a24.785,24.785,0,0,1,7.183,0v.411a4.171,4.171,0,0,0,2.97,3.95,21.343,21.343,0,0,1,3.4,1.414,4.172,4.172,0,0,0,4.9-.691l.3-.3a25.21,25.21,0,0,1,5.08,5.08l-.3.3a4.17,4.17,0,0,0-.691,4.9,21.518,21.518,0,0,1,1.413,3.4,4.171,4.171,0,0,0,3.95,2.97h.411a24.713,24.713,0,0,1,0,7.183h-.411a4.171,4.171,0,0,0-3.95,2.97,21.518,21.518,0,0,1-1.413,3.4,4.17,4.17,0,0,0,.691,4.9l.3.3a25.245,25.245,0,0,1-5.08,5.08l-.3-.3a4.163,4.163,0,0,0-4.9-.69,21.48,21.48,0,0,1-3.4,1.412,4.171,4.171,0,0,0-2.97,3.95v.411a24.785,24.785,0,0,1-7.183,0v-.411a4.171,4.171,0,0,0-2.97-3.95Z" transform="translate(5.806 5.806)" fill="#12263f"/>
      <path id="Trazado_264131" data-name="Trazado 264131" d="M34.322,2V5.161a41.091,41.091,0,0,1,6.322,81.694V82.608a1.58,1.58,0,0,0-2.457-1.315L28.7,87.615a1.58,1.58,0,0,0,0,2.63l9.483,6.322a1.58,1.58,0,0,0,2.457-1.315V90.044A44.249,44.249,0,0,0,34.322,2Zm3.161,90.3L32.43,88.93l5.053-3.369Z" transform="translate(13.933 0)" fill="#12263f"/>
      <path id="Trazado_264132" data-name="Trazado 264132" d="M21.1,4.629,22.33,7.54c.925-.392,1.881-.755,2.841-1.079L24.16,3.467C23.125,3.816,22.094,4.208,21.1,4.629Z" transform="translate(9.926 0.852)" fill="#12263f"/>
      <path id="Trazado_264133" data-name="Trazado 264133" d="M7.255,32.284l-3.149.275c.094,1.084.23,2.178.4,3.251L7.631,35.3c-.162-1-.288-2.011-.376-3.019Z" transform="translate(0.062 17.582)" fill="#12263f"/>
      <path id="Trazado_264134" data-name="Trazado 264134" d="M25.81,6.194c.977-.252,1.976-.468,2.97-.645l-.553-3.112c-1.072.19-2.15.424-3.205.695Z" transform="translate(12.205 0.254)" fill="#12263f"/>
      <path id="Trazado_264135" data-name="Trazado 264135" d="M19.062,9.382c.858-.525,1.751-1.026,2.653-1.489L20.27,5.08c-.971.5-1.931,1.039-2.855,1.6Z" transform="translate(7.788 1.788)" fill="#12263f"/>
      <path id="Trazado_264136" data-name="Trazado 264136" d="M14.05,9.247l2.027,2.426c.773-.645,1.582-1.273,2.406-1.865L16.638,7.24c-.886.637-1.757,1.312-2.588,2.007Z" transform="translate(5.834 3.042)" fill="#12263f"/>
      <path id="Trazado_264137" data-name="Trazado 264137" d="M10.795,17.991,8.029,16.46C7.5,17.411,7,18.4,6.548,19.386l2.872,1.321C9.844,19.786,10.306,18.872,10.795,17.991Z" transform="translate(1.479 8.395)" fill="#12263f"/>
      <path id="Trazado_264138" data-name="Trazado 264138" d="M4.248,27.44l3.133.42c.134-1,.307-2.01.515-3L4.8,24.211c-.224,1.065-.411,2.152-.555,3.229Z" transform="translate(0.144 12.895)" fill="#12263f"/>
      <path id="Trazado_264139" data-name="Trazado 264139" d="M9.093,21.331l-2.962-1.1c-.379,1.017-.725,2.065-1.03,3.115l3.036.88C8.42,23.249,8.742,22.275,9.093,21.331Z" transform="translate(0.64 10.583)" fill="#12263f"/>
      <path id="Trazado_264140" data-name="Trazado 264140" d="M12.961,14.913l-2.511-1.92c-.664.867-1.3,1.767-1.894,2.673L11.2,17.4C11.752,16.556,12.344,15.721,12.961,14.913Z" transform="translate(2.645 6.382)" fill="#12263f"/>
      <path id="Trazado_264141" data-name="Trazado 264141" d="M15.542,12.167,13.343,9.9c-.781.756-1.544,1.553-2.267,2.365l2.362,2.1C14.108,13.611,14.817,12.871,15.542,12.167Z" transform="translate(4.108 4.585)" fill="#12263f"/>
      <path id="Trazado_264142" data-name="Trazado 264142" d="M7.161,30.977q0-1.246.073-2.474l-3.155-.185Q4,29.639,4,30.977l0,.611,3.161-.037Z" transform="translate(0 15.279)" fill="#12263f"/>
      <path id="Trazado_264143" data-name="Trazado 264143" d="M19.912,56.309c.977.469,1.99.909,3.009,1.307l1.15-2.945c-.946-.369-1.885-.776-2.79-1.212Z" transform="translate(9.238 29.875)" fill="#12263f"/>
      <path id="Trazado_264144" data-name="Trazado 264144" d="M10.59,43.191,7.869,44.8c.554.938,1.149,1.866,1.767,2.757l2.6-1.8C11.658,44.926,11.105,44.063,10.59,43.191Z" transform="translate(2.246 23.914)" fill="#12263f"/>
      <path id="Trazado_264145" data-name="Trazado 264145" d="M23.775,57.883c1.04.32,2.106.6,3.166.844l.7-3.084c-.985-.222-1.974-.486-2.94-.783Z" transform="translate(11.481 30.688)" fill="#12263f"/>
      <path id="Trazado_264146" data-name="Trazado 264146" d="M8.964,39.744,6.033,40.93c.409,1.011.861,2.016,1.341,2.99l2.834-1.4C9.762,41.615,9.343,40.681,8.964,39.744Z" transform="translate(1.18 21.912)" fill="#12263f"/>
      <path id="Trazado_264147" data-name="Trazado 264147" d="M7.844,36.081l-3.075.738c.254,1.056.55,2.118.882,3.155l3.011-.963c-.309-.963-.584-1.949-.819-2.93Z" transform="translate(0.447 19.786)" fill="#12263f"/>
      <path id="Trazado_264148" data-name="Trazado 264148" d="M16.318,54.161c.9.61,1.834,1.193,2.779,1.736l1.576-2.741c-.878-.5-1.747-1.046-2.583-1.613Z" transform="translate(7.151 28.762)" fill="#12263f"/>
      <path id="Trazado_264149" data-name="Trazado 264149" d="M10.23,48.341c.684.844,1.409,1.675,2.156,2.47l2.3-2.167c-.694-.736-1.367-1.508-2-2.291Z" transform="translate(3.617 25.749)" fill="#12263f"/>
      <path id="Trazado_264150" data-name="Trazado 264150" d="M13.068,51.487c.8.738,1.644,1.452,2.493,2.124l1.962-2.479c-.79-.625-1.57-1.289-2.318-1.976Z" transform="translate(5.265 27.377)" fill="#12263f"/>
    </g>
  </g>
</svg>
