<svg xmlns="http://www.w3.org/2000/svg" width="180" height="180" viewBox="0 0 180 180">
  <g id="Grupo_172985" data-name="Grupo 172985" transform="translate(-6774.001 -2549.478)">
    <circle id="Elipse_6239" data-name="Elipse 6239" cx="90" cy="90" r="90" transform="translate(6774.001 2549.478)" fill="#20cb7d"/>
    <g id="diseno_2_" data-name="diseno (2)" transform="translate(6796.001 2573.611)">
      <g id="Grupo_150819" data-name="Grupo 150819" transform="translate(16.161 0)">
        <g id="Grupo_150810" data-name="Grupo 150810" transform="translate(0 51.382)">
          <g id="Grupo_150807" data-name="Grupo 150807" transform="translate(6.564)">
            <path id="Trazado_262635" data-name="Trazado 262635" d="M61.058,256.4h91.193V200.16a5.273,5.273,0,0,0-5.273-5.273H66.331a5.273,5.273,0,0,0-5.273,5.273Z" transform="translate(-61.058 -194.887)" fill="#39484c"/>
          </g>
          <g id="Grupo_150808" data-name="Grupo 150808" transform="translate(15.523 8.741)">
            <path id="Trazado_262636" data-name="Trazado 262636" d="M0,0H44.035V73.276H0Z" transform="translate(73.276) rotate(90)" fill="#fff"/>
          </g>
          <g id="Grupo_150809" data-name="Grupo 150809" transform="translate(0 61.518)">
            <path id="Trazado_262637" data-name="Trazado 262637" d="M36.16,428.217H140.481v5.216a5.273,5.273,0,0,1-5.273,5.273H41.433a5.273,5.273,0,0,1-5.273-5.273Z" transform="translate(-36.16 -428.217)" fill="#617a7f"/>
          </g>
        </g>
        <g id="XMLID_175_" transform="translate(5.887 0)">
          <g id="XMLID_182_" transform="translate(16.12 12.962)">
            <g id="XMLID_183_">
              <path id="Trazado_262638" data-name="Trazado 262638" d="M179.728,79.246a30.05,30.05,0,1,0-50,22.494,24.672,24.672,0,0,1,8.433,18.4v2.181h23.032v-2.181a24.671,24.671,0,0,1,8.433-18.4,30.015,30.015,0,0,0,10.1-22.494Z" transform="translate(-119.627 -49.163)" fill="#fda929"/>
            </g>
            <g id="Grupo_150811" data-name="Grupo 150811" transform="translate(6.666 6.678)">
              <path id="Trazado_262639" data-name="Trazado 262639" d="M146.227,99.214a1.318,1.318,0,0,1-1.318-1.318,23.421,23.421,0,0,1,23.385-23.4,1.318,1.318,0,0,1,0,2.637A20.782,20.782,0,0,0,147.546,97.9,1.318,1.318,0,0,1,146.227,99.214Z" transform="translate(-144.909 -74.491)" fill="#fff"/>
            </g>
          </g>
          <g id="XMLID_176_">
            <g id="XMLID_181_" transform="translate(44.88)">
              <path id="Trazado_262640" data-name="Trazado 262640" d="M230.03,6.343a1.318,1.318,0,0,1-1.318-1.318V1.318a1.318,1.318,0,1,1,2.637,0V5.025A1.318,1.318,0,0,1,230.03,6.343Z" transform="translate(-228.712 0)" fill="#fda929"/>
            </g>
            <g id="XMLID_180_" transform="translate(11.532 13.874)">
              <path id="Trazado_262641" data-name="Trazado 262641" d="M106.167,57.881a1.314,1.314,0,0,1-.932-.386l-2.621-2.621a1.318,1.318,0,0,1,1.864-1.864l2.621,2.621a1.351,1.351,0,0,1-.932,2.25Z" transform="translate(-102.227 -52.624)" fill="#fda929"/>
            </g>
            <g id="XMLID_179_" transform="translate(0 37.471)">
              <path id="Trazado_262642" data-name="Trazado 262642" d="M63.512,144.762H59.805a1.318,1.318,0,1,1,0-2.637h3.707a1.318,1.318,0,1,1,0,2.637Z" transform="translate(-58.487 -142.125)" fill="#fda929"/>
            </g>
            <g id="XMLID_178_" transform="translate(86.205 37.32)">
              <path id="Trazado_262643" data-name="Trazado 262643" d="M390.478,144.187h-3.707a1.318,1.318,0,1,1,0-2.637h3.707a1.318,1.318,0,0,1,0,2.637Z" transform="translate(-385.453 -141.55)" fill="#fda929"/>
            </g>
            <g id="XMLID_177_" transform="translate(75.684 13.767)">
              <path id="Trazado_262644" data-name="Trazado 262644" d="M346.833,57.474a1.35,1.35,0,0,1-.932-2.251l2.621-2.621a1.318,1.318,0,1,1,1.864,1.864l-2.621,2.621A1.314,1.314,0,0,1,346.833,57.474Z" transform="translate(-345.547 -52.216)" fill="#fda929"/>
            </g>
          </g>
          <g id="Grupo_150812" data-name="Grupo 150812" transform="translate(28.976 75.997)">
            <path id="Trazado_262645" data-name="Trazado 262645" d="M198.121,288.247H173.255a4.865,4.865,0,0,0-4.865,4.865v.106a4.865,4.865,0,0,0,4.865,4.865h24.866a4.865,4.865,0,0,0,4.865-4.865v-.106A4.865,4.865,0,0,0,198.121,288.247Z" transform="translate(-168.39 -288.247)" fill="#7453d8"/>
          </g>
          <g id="Grupo_150813" data-name="Grupo 150813" transform="translate(34.831 85.833)">
            <path id="Trazado_262646" data-name="Trazado 262646" d="M213.483,325.556H190.6V331.7a3.691,3.691,0,0,0,3.691,3.691h15.5a3.691,3.691,0,0,0,3.691-3.691Z" transform="translate(-190.596 -325.556)" fill="#7453d8"/>
          </g>
          <g id="Grupo_150818" data-name="Grupo 150818" transform="translate(27.645 26.748)">
            <g id="Grupo_150817" data-name="Grupo 150817">
              <g id="Grupo_150814" data-name="Grupo 150814" transform="translate(12.489)">
                <path id="Trazado_262647" data-name="Trazado 262647" d="M235.214,101.453v.013a19.773,19.773,0,0,1-6.973,14.585l-11.718,9.736-5.812-5.771,9.813-11.617a20.021,20.021,0,0,1,14.69-6.946Z" transform="translate(-210.711 -101.453)" fill="#20cb7d"/>
              </g>
              <g id="Grupo_150815" data-name="Grupo 150815" transform="translate(0 18.485)">
                <path id="Trazado_262648" data-name="Trazado 262648" d="M182.006,177.369l-.007-.007-5.826-5.757-.007-.007c-1.788-.214-7.538.375-7.413,7.763.065,3.849-5.409,6.482-5.409,6.482s10.2,4.363,17.038-3.5a6.329,6.329,0,0,0,1.625-4.971Z" transform="translate(-163.343 -171.563)" fill="#29398a"/>
              </g>
              <g id="Grupo_150816" data-name="Grupo 150816" transform="translate(11.91 12.654)">
                <path id="Trazado_262649" data-name="Trazado 262649" d="M208.516,154.409l7.589,7.517,4.993-4.961-7.589-7.517Z" transform="translate(-208.516 -149.448)" fill="#f9f9f9"/>
              </g>
            </g>
          </g>
        </g>
      </g>
      <g id="Grupo_150822" data-name="Grupo 150822" transform="translate(123.688 63.47)">
        <g id="Grupo_150820" data-name="Grupo 150820" transform="translate(0 7.97)">
          <path id="Trazado_262650" data-name="Trazado 262650" d="M445.318,296.339A1.318,1.318,0,0,1,444,295.02V272.282a1.318,1.318,0,1,1,2.637,0V295.02A1.318,1.318,0,0,1,445.318,296.339Z" transform="translate(-444 -270.964)" fill="#ddd"/>
        </g>
        <g id="Grupo_150821" data-name="Grupo 150821">
          <path id="Trazado_262651" data-name="Trazado 262651" d="M445.318,245.21A1.318,1.318,0,0,1,444,243.892v-1.84a1.318,1.318,0,0,1,2.637,0v1.84A1.318,1.318,0,0,1,445.318,245.21Z" transform="translate(-444 -240.733)" fill="#ddd"/>
        </g>
      </g>
      <g id="Grupo_150825" data-name="Grupo 150825" transform="translate(10.318 63.47)">
        <g id="Grupo_150823" data-name="Grupo 150823" transform="translate(0 7.97)">
          <path id="Trazado_262652" data-name="Trazado 262652" d="M15.318,296.339A1.318,1.318,0,0,1,14,295.02V272.282a1.318,1.318,0,1,1,2.637,0V295.02A1.318,1.318,0,0,1,15.318,296.339Z" transform="translate(-14 -270.964)" fill="#ddd"/>
        </g>
        <g id="Grupo_150824" data-name="Grupo 150824" transform="translate(0)">
          <path id="Trazado_262653" data-name="Trazado 262653" d="M15.318,245.21A1.318,1.318,0,0,1,14,243.892v-1.84a1.318,1.318,0,0,1,2.637,0v1.84A1.318,1.318,0,0,1,15.318,245.21Z" transform="translate(-14 -240.733)" fill="#ddd"/>
        </g>
      </g>
      <g id="Grupo_150832" data-name="Grupo 150832" transform="translate(39.413 74.107)">
        <g id="Grupo_150828" data-name="Grupo 150828" transform="translate(55.18 0.023)">
          <g id="Grupo_150826" data-name="Grupo 150826">
            <path id="Trazado_262654" data-name="Trazado 262654" d="M334.964,295.883a1.318,1.318,0,0,1-1.318-1.318V282.487a1.318,1.318,0,0,1,2.637,0v12.077A1.318,1.318,0,0,1,334.964,295.883Z" transform="translate(-333.646 -281.169)" fill="#ddd"/>
          </g>
          <g id="Grupo_150827" data-name="Grupo 150827" transform="translate(0 18.207)">
            <path id="Trazado_262655" data-name="Trazado 262655" d="M334.964,354.7a1.318,1.318,0,0,1-1.318-1.318v-1.84a1.318,1.318,0,0,1,2.637,0v1.84A1.318,1.318,0,0,1,334.964,354.7Z" transform="translate(-333.646 -350.227)" fill="#ddd"/>
          </g>
        </g>
        <g id="Grupo_150831" data-name="Grupo 150831">
          <g id="Grupo_150829" data-name="Grupo 150829">
            <path id="Trazado_262656" data-name="Trazado 262656" d="M125.673,295.794a1.318,1.318,0,0,1-1.318-1.318V282.4a1.318,1.318,0,1,1,2.637,0v12.077A1.318,1.318,0,0,1,125.673,295.794Z" transform="translate(-124.355 -281.08)" fill="#ddd"/>
          </g>
          <g id="Grupo_150830" data-name="Grupo 150830" transform="translate(0 18.207)">
            <path id="Trazado_262657" data-name="Trazado 262657" d="M125.673,354.615a1.318,1.318,0,0,1-1.318-1.318v-1.84a1.318,1.318,0,0,1,2.637,0v1.84A1.318,1.318,0,0,1,125.673,354.615Z" transform="translate(-124.355 -350.138)" fill="#ddd"/>
          </g>
        </g>
      </g>
      <g id="Grupo_150833" data-name="Grupo 150833" transform="translate(9 13.246)">
        <path id="Trazado_262658" data-name="Trazado 262658" d="M17.5,55.081l2.043.433-2.362.67a3.515,3.515,0,0,0-2.473,2.623l-.438,1.98-.438-1.98a3.515,3.515,0,0,0-2.473-2.623L9,55.514l2.043-.433a3.515,3.515,0,0,0,2.687-2.607l.544-2.233.544,2.233A3.515,3.515,0,0,0,17.5,55.081Z" transform="translate(-9 -50.241)" fill="#fff"/>
      </g>
      <g id="Grupo_150834" data-name="Grupo 150834" transform="translate(117.097 12.655)">
        <path id="Trazado_262659" data-name="Trazado 262659" d="M427.5,52.84l2.043.433-2.362.67a3.515,3.515,0,0,0-2.473,2.623l-.438,1.98-.438-1.98a3.515,3.515,0,0,0-2.473-2.623L419,53.273l2.042-.433a3.515,3.515,0,0,0,2.687-2.607L424.273,48l.544,2.233A3.515,3.515,0,0,0,427.5,52.84Z" transform="translate(-419 -48)" fill="#ff8a80"/>
      </g>
    </g>
  </g>
</svg>
