<svg xmlns="http://www.w3.org/2000/svg" width="120" height="120" viewBox="0 0 120 120">
  <g id="Grupo_173005" data-name="Grupo 173005" transform="translate(-16218 -4029)">
    <rect id="Rectángulo_294028" data-name="Rectángulo 294028" width="120" height="120" rx="14" transform="translate(16218 4029)" fill="#fda929"/>
    <g id="transicion" transform="translate(16231 4042)">
      <path id="Trazado_264151" data-name="Trazado 264151" d="M238.233,32.6A32.6,32.6,0,0,0,183.924,8.28a1.389,1.389,0,0,0,1.851,2.072A29.821,29.821,0,1,1,208.6,62.274a32.426,32.426,0,0,0-6.191-19.157L210.08,35.4V45.472a5.094,5.094,0,1,0,10.187,0V35.655a1.389,1.389,0,1,0-2.778,0v9.817a2.315,2.315,0,0,1-4.631,0V32.034a1.389,1.389,0,0,0-2.374-.979l-27.75,27.9a2.315,2.315,0,1,1-3.282-3.267l7.3-7.341a1.389,1.389,0,1,0-1.97-1.959l-7.3,7.341a5.094,5.094,0,1,0,7.222,7.186l15.715-15.8A29.856,29.856,0,0,1,202.8,75.321a1.389,1.389,0,1,0,2.5,1.221,32.185,32.185,0,0,0,3.179-11.468A32.558,32.558,0,0,0,238.233,32.6Z" transform="translate(-143.4)" fill="#12263f"/>
      <path id="Trazado_264152" data-name="Trazado 264152" d="M58.088,136.3a1.389,1.389,0,0,0-1.95.242,29.82,29.82,0,1,1-6.306-42.649L45.945,97.8a1.389,1.389,0,0,0,1.97,1.959L63.845,83.74a1.389,1.389,0,0,0-.985-2.369h-13.5a2.315,2.315,0,0,1,0-4.631H71.773a2.318,2.318,0,0,1,2.315,2.315v6.112a1.389,1.389,0,0,0,2.778,0V79.056a5.1,5.1,0,0,0-5.094-5.094H49.361a5.094,5.094,0,0,0,0,10.187H59.519l-7.7,7.747a32.415,32.415,0,0,0-19.252-6.264A29.634,29.634,0,0,1,38.2,70.938a1.389,1.389,0,1,0-2.238-1.647,32.409,32.409,0,0,0-6.206,16.466A32.6,32.6,0,1,0,58.33,138.248a1.389,1.389,0,0,0-.242-1.95Z" transform="translate(0 -55.996)" fill="#12263f"/>
    </g>
  </g>
</svg>
