<svg xmlns="http://www.w3.org/2000/svg" xmlns:xlink="http://www.w3.org/1999/xlink" width="505" height="440" viewBox="0 0 505 440">
  <defs>
    <clipPath id="clip-path">
      <rect id="Rectángulo_294054" data-name="Rectángulo 294054" width="505" height="440" transform="translate(233 4332)" fill="#fff" stroke="#707070" stroke-width="1"/>
    </clipPath>
  </defs>
  <g id="Enmascarar_grupo_130601" data-name="Enmascarar grupo 130601" transform="translate(-233 -4332)" clip-path="url(#clip-path)">
    <g id="Hand_coding-rafiki" data-name="Hand coding-rafiki" transform="translate(184.845 4303.747)">
      <g id="freepik--background-complete--inject-27" transform="translate(0 0)">
        <rect id="Rectángulo_294033" data-name="Rectángulo 294033" width="619.636" height="0.32" transform="translate(0 418.575)" fill="#ebebeb"/>
        <rect id="Rectángulo_294034" data-name="Rectángulo 294034" width="42.343" height="0.32" transform="translate(513.241 439.145)" fill="#ebebeb"/>
        <rect id="Rectángulo_294035" data-name="Rectángulo 294035" width="11.11" height="0.32" transform="translate(399.479 442.623)" fill="#ebebeb"/>
        <rect id="Rectángulo_294036" data-name="Rectángulo 294036" width="24.534" height="0.32" transform="translate(490.863 427.281)" fill="#ebebeb"/>
        <rect id="Rectángulo_294037" data-name="Rectángulo 294037" width="55.218" height="0.32" transform="translate(67.069 429.429)" fill="#ebebeb"/>
        <rect id="Rectángulo_294038" data-name="Rectángulo 294038" width="8.093" height="0.32" transform="translate(129.526 429.429)" fill="#ebebeb"/>
        <rect id="Rectángulo_294039" data-name="Rectángulo 294039" width="119.768" height="0.32" transform="translate(161.739 434.824)" fill="#ebebeb"/>
        <path id="Trazado_264156" data-name="Trazado 264156" d="M292.359,416.554H45.5a7.3,7.3,0,0,1-7.287-7.3V62.236A7.3,7.3,0,0,1,45.5,55H292.359a7.3,7.3,0,0,1,7.3,7.3V409.254A7.3,7.3,0,0,1,292.359,416.554ZM45.5,55.256a6.981,6.981,0,0,0-6.968,6.981V409.254a6.981,6.981,0,0,0,6.968,6.981H292.359a6.993,6.993,0,0,0,6.98-6.981V62.236a6.993,6.993,0,0,0-6.98-6.981Z" transform="translate(10.641 -55)" fill="#ebebeb"/>
        <path id="Trazado_264157" data-name="Trazado 264157" d="M508.675,416.554H261.8a7.313,7.313,0,0,1-7.3-7.3V62.236A7.313,7.313,0,0,1,261.8,55H508.675a7.3,7.3,0,0,1,7.275,7.236V409.254A7.3,7.3,0,0,1,508.675,416.554ZM261.8,55.256a6.993,6.993,0,0,0-6.98,6.981V409.254a6.993,6.993,0,0,0,6.98,6.98H508.675a6.993,6.993,0,0,0,6.98-6.981V62.236a6.993,6.993,0,0,0-6.98-6.981Z" transform="translate(51.269 -55)" fill="#ebebeb"/>
        <path id="Trazado_264158" data-name="Trazado 264158" d="M163.382,333.446l-17.707,14.8L170.9,384.917l20.149-11.251a119,119,0,0,0,37.319,24.291l-2.046,22.923,43.788,8.067,6.277-22.143a118.528,118.528,0,0,0,43.468-9.333l14.8,17.707,36.667-25.224-11.225-20.1a118.8,118.8,0,0,0,24.291-37.306L407.3,334.6l8.093-43.762-22.143-6.29a118.9,118.9,0,0,0-9.333-43.468l17.707-14.8L376.4,189.616l-20.162,11.238a118.989,118.989,0,0,0-37.306-24.291l2.046-22.923-43.762-8.08-6.277,22.131a119.116,119.116,0,0,0-43.468,9.333L212.578,159.24l-36.641,25.237,11.238,20.149a119.051,119.051,0,0,0-24.291,37.319L139.96,239.9l-8.08,43.762,22.131,6.277a118.8,118.8,0,0,0,9.371,43.507Zm51.024-57.186a60.242,60.242,0,1,1,48.288,70.189,60.242,60.242,0,0,1-48.288-70.189Z" transform="translate(27.434 -29.781)" fill="#f0f0f0"/>
        <path id="Trazado_264159" data-name="Trazado 264159" d="M393.88,293.792l13.833,2.557,1.982-6.993a37.766,37.766,0,0,0,13.756-2.953l4.679,5.6,11.6-7.978-3.554-6.392a37.408,37.408,0,0,0,7.671-11.788l7.249.639,2.557-13.82-7.006-1.994a37.359,37.359,0,0,0-2.953-13.756l5.6-4.679-7.978-11.583-6.392,3.554a37.8,37.8,0,0,0-11.788-7.671l.639-7.236-13.833-2.557-1.982,6.993a37.818,37.818,0,0,0-13.756,2.953l-4.641-5.6-11.6,7.978,3.554,6.392a37.409,37.409,0,0,0-7.671,11.788l-7.249-.639-2.557,13.82,6.993,1.994a37.615,37.615,0,0,0,2.953,13.757l-5.6,4.679,7.978,11.583,6.392-3.554a37.46,37.46,0,0,0,11.8,7.671Zm-3.772-45.706a19.049,19.049,0,1,1,15.265,22.182,19.049,19.049,0,0,1-15.265-22.182Z" transform="translate(81.774 -12.743)" fill="#f0f0f0"/>
        <path id="Trazado_264160" data-name="Trazado 264160" d="M88.643,320.074l10.535,1.956L100.7,316.7a28.919,28.919,0,0,0,10.471-2.25l3.567,4.257,8.834-6.073-2.71-4.884A28.561,28.561,0,0,0,126.7,298.8l5.523.486,1.943-10.535-5.331-1.458a28.472,28.472,0,0,0-2.25-10.484l4.27-3.567-6.086-8.822-4.845,2.71a28.815,28.815,0,0,0-8.949-5.855l.5-5.51-10.547-1.956-1.509,5.331a29,29,0,0,0-10.484,2.25l-3.554-4.257-8.834,6.073,2.71,4.858a28.5,28.5,0,0,0-5.843,8.949l-5.523-.486L65.95,287.063l5.293,1.509a28.472,28.472,0,0,0,2.25,10.484l-4.27,3.58,6.073,8.822,4.858-2.7A28.856,28.856,0,0,0,89.1,314.6Zm-2.864-34.813a14.5,14.5,0,1,1,11.621,16.9A14.5,14.5,0,0,1,85.779,285.261Z" transform="translate(18.366 0.365)" fill="#f0f0f0"/>
        <path id="Trazado_264161" data-name="Trazado 264161" d="M234.59,132.928l7.978,1.47,1.163-4.027a21.389,21.389,0,0,0,7.939-1.7l2.7,3.235,6.674-4.6L259,123.633a21.734,21.734,0,0,0,4.424-6.8l4.168.371,1.47-7.965-4.027-1.151a21.836,21.836,0,0,0-1.7-7.927l3.222-2.7-4.59-6.674-3.669,2.046a21.734,21.734,0,0,0-6.8-4.424l.371-4.168-7.978-1.483-1.138,4.04a21.275,21.275,0,0,0-7.927,1.7l-2.7-3.235-6.686,4.6,2.058,3.669a21.543,21.543,0,0,0-4.424,6.8l-4.181-.371-1.47,7.965,4.027,1.151a21.734,21.734,0,0,0,1.7,7.927l-3.222,2.7,4.6,6.674,3.669-2.046a21.567,21.567,0,0,0,6.789,4.424Zm-2.161-26.349a13.671,13.671,0,1,1,0,.026Z" transform="translate(51.274 -47.269)" fill="#f0f0f0"/>
        <path id="Trazado_264162" data-name="Trazado 264162" d="M336.988,179.481l5.318.972.754-2.685a14.485,14.485,0,0,0,5.293-1.138l1.8,2.161,4.449-3.068-1.368-2.455a14.435,14.435,0,0,0,2.953-4.526l2.787.243.984-5.318-2.7-.767a14.458,14.458,0,0,0-1.125-5.28l2.148-1.8-3.068-4.449-2.442,1.368a14.638,14.638,0,0,0-4.539-2.953l.243-2.787-5.318-.984-.754,2.7a14.473,14.473,0,0,0-5.293,1.125l-1.8-2.148-4.449,3.068,1.368,2.442a14.638,14.638,0,0,0-2.953,4.539l-2.787-.243-.972,5.306,2.685.767a14.229,14.229,0,0,0,1.138,5.293l-2.161,1.79,3.068,4.462,2.455-1.368a14.434,14.434,0,0,0,4.526,2.953ZM335.543,161.9a7.326,7.326,0,1,1,5.868,8.527A7.326,7.326,0,0,1,335.543,161.9Z" transform="translate(77.161 -29.655)" fill="#f0f0f0"/>
        <path id="Trazado_264163" data-name="Trazado 264163" d="M145.237,129.358l5.318.984.754-2.685a14.754,14.754,0,0,0,5.293-1.138l1.8,2.148,4.449-3.068-1.368-2.442a14.5,14.5,0,0,0,2.953-4.539l2.787.256.984-5.318-2.7-.767a14.524,14.524,0,0,0-1.125-5.293l2.148-1.79-3.068-4.462-2.455,1.368a14.178,14.178,0,0,0-4.526-2.941l.243-2.787-5.318-.984-.742,2.685a14.485,14.485,0,0,0-5.293,1.138l-1.8-2.148-4.411,3.056,1.368,2.455a14.5,14.5,0,0,0-2.953,4.539l-2.787-.256-.972,5.318,2.685.767a14.167,14.167,0,0,0,1.138,5.28l-2.161,1.8L138.55,125l2.455-1.368a14.409,14.409,0,0,0,4.526,2.941Zm-1.445-17.566a7.326,7.326,0,1,1,5.868,8.527,7.326,7.326,0,0,1-5.868-8.527Z" transform="translate(31.721 -43.61)" fill="#f0f0f0"/>
        <path id="Trazado_264164" data-name="Trazado 264164" d="M328.628,350.418a24.98,24.98,0,0,0,1.982,9.231l-3.759,3.145,5.357,7.76,4.27-2.378a25.263,25.263,0,0,0,7.914,5.114l-.435,4.858,9.282,1.713,1.279-4.692a25.493,25.493,0,0,0,9.218-1.982l3.145,3.746,7.773-5.344-2.327-4.245a25.161,25.161,0,0,0,5.114-7.914l4.858.435,1.79-9.269-4.692-1.278a24.981,24.981,0,0,0-1.982-9.231l3.759-3.132-5.344-7.773-4.334,2.365a24.955,24.955,0,0,0-7.9-5.114l.422-4.871-9.269-1.713-1.279,4.692a25.568,25.568,0,0,0-9.231,1.982l-3.145-3.746-7.773,5.344,2.391,4.27a25.186,25.186,0,0,0-5.114,7.914l-4.858-.435L324,349.089Zm12.785-2.889a10.948,10.948,0,1,0,.013,0Z" transform="translate(76.206 18.756)" fill="#f0f0f0"/>
        <path id="Trazado_264165" data-name="Trazado 264165" d="M394.886,301.87,380.605,307.1l14.281,5.191v5.306l-20.456-7.76V304.26l20.456-7.76Z" transform="translate(89.106 12.253)" fill="#e0e0e0"/>
        <path id="Trazado_264166" data-name="Trazado 264166" d="M405.533,288.28h5.97l-14.153,40.413H391.38Z" transform="translate(93.148 9.964)" fill="#e0e0e0"/>
        <path id="Trazado_264167" data-name="Trazado 264167" d="M428.156,304.292V309.9l-20.456,7.76v-5.357l14.281-5.191L407.7,301.888V296.57Z" transform="translate(93.933 12.273)" fill="#e0e0e0"/>
        <path id="Trazado_264168" data-name="Trazado 264168" d="M114.444,358.622c2.046.614,2.992,1.9,2.992,4.986v7.121a2.928,2.928,0,0,0,3.247,3.3h.805v5.434h-2.557c-5.574,0-8.425-2.851-8.425-7.978v-8.054c0-1.432-.754-2.1-1.956-2.1h-1.47v-5.37h1.47c1.2,0,1.956-.665,1.956-2.1v-8.131c0-5.114,2.851-7.965,8.425-7.965h2.557v5.408h-.805a2.928,2.928,0,0,0-3.247,3.3V353.6C117.436,356.7,116.49,358,114.444,358.622Z" transform="translate(25.524 23.746)" fill="#e0e0e0"/>
        <path id="Trazado_264169" data-name="Trazado 264169" d="M143.7,355.968V361.4h-1.47a1.828,1.828,0,0,0-1.969,2.1v8.054c0,5.114-2.851,7.978-8.412,7.978H129.3V374.1h.805a2.928,2.928,0,0,0,3.247-3.3v-7.159c0-3.081.933-4.372,2.979-4.986-2.046-.626-2.979-1.918-2.979-5v-7.147a2.928,2.928,0,0,0-3.273-3.324h-.805V337.75h2.557c5.561,0,8.412,2.851,8.412,7.965v8.067a1.828,1.828,0,0,0,1.969,2.1Z" transform="translate(30.814 23.741)" fill="#e0e0e0"/>
        <path id="Trazado_264171" data-name="Trazado 264171" d="M142.613,155.764h-7.223v7.057h-5.357v-7.057H122.86V150.65h7.172v-7.07h5.357v7.07h7.223Z" transform="translate(29.243 -30.332)" fill="#e0e0e0"/>
        <path id="Trazado_264172" data-name="Trazado 264172" d="M162.305,155.764h-7.223v7.057h-5.357v-7.057H142.54V150.65h7.185v-7.07h5.357v7.07h7.223Z" transform="translate(33.928 -30.332)" fill="#e0e0e0"/>
        <path id="Trazado_264174" data-name="Trazado 264174" d="M203.14,272.137l2.378-5.229a17.247,17.247,0,0,0,8.732,2.429c3.362,0,4.628-.882,4.628-2.288,0-4.1-15.176.09-15.176-9.947,0-4.769,4.3-8.131,11.621-8.131a20.647,20.647,0,0,1,9.678,2.2l-2.429,5.191a14.448,14.448,0,0,0-7.249-1.879c-3.26,0-4.666,1.036-4.666,2.34,0,4.3,15.176.141,15.176,10.036,0,4.679-4.334,7.99-11.864,7.99a21.529,21.529,0,0,1-10.829-2.71Z" transform="translate(48.313 -0.984)" fill="#e0e0e0"/>
      </g>
      <g id="freepik--Shadow--inject-27" transform="translate(52.131 447.366)">
        <ellipse id="freepik--path--inject-27" cx="247.885" cy="14.472" rx="247.885" ry="14.472" fill="#f5f5f5"/>
      </g>
      <g id="freepik--Tabs--inject-27" transform="translate(170.314 67.734)">
        <rect id="Rectángulo_294044" data-name="Rectángulo 294044" width="156.627" height="113.376"/>
        <rect id="Rectángulo_294045" data-name="Rectángulo 294045" width="156.627" height="113.376" fill="#fff" opacity="0.9"/>
        <rect id="Rectángulo_294046" data-name="Rectángulo 294046" width="21.811" height="113.376" opacity="0.1"/>
        <rect id="Rectángulo_294047" data-name="Rectángulo 294047" width="156.627" height="10.599" fill="#fda929"/>
        <g id="Grupo_172951" data-name="Grupo 172951" transform="translate(32.998 24.035)" opacity="0.2">
          <path id="Trazado_264194" data-name="Trazado 264194" d="M204.2,129.337H175.678a1.278,1.278,0,0,1,0-2.557H204.2a1.278,1.278,0,0,1,0,2.557Z" transform="translate(-174.349 -126.78)"/>
          <path id="Trazado_264195" data-name="Trazado 264195" d="M259.351,129.337H203.928a1.278,1.278,0,0,1,0-2.557h55.422a1.278,1.278,0,0,1,0,2.557Z" transform="translate(-166.482 -126.78)"/>
          <path id="Trazado_264196" data-name="Trazado 264196" d="M253.188,135.867h-74.51a1.278,1.278,0,0,1,0-2.557h74.51a1.278,1.278,0,1,1,0,2.557Z" transform="translate(-173.513 -124.962)"/>
          <path id="Trazado_264197" data-name="Trazado 264197" d="M223.673,142.387H175.678a1.278,1.278,0,1,1,0-2.557h47.994a1.278,1.278,0,1,1,0,2.557Z" transform="translate(-174.349 -123.146)"/>
          <path id="Trazado_264198" data-name="Trazado 264198" d="M254.77,142.387H220.378a1.278,1.278,0,0,1,0-2.557H254.77a1.278,1.278,0,1,1,0,2.557Z" transform="translate(-161.901 -123.146)"/>
          <path id="Trazado_264199" data-name="Trazado 264199" d="M202.181,148.917h-26.5a1.278,1.278,0,1,1,0-2.557h26.5a1.278,1.278,0,0,1,0,2.557Z" transform="translate(-174.349 -121.327)"/>
          <path id="Trazado_264200" data-name="Trazado 264200" d="M244.858,148.917h-41.73a1.278,1.278,0,1,1,0-2.557h41.73a1.278,1.278,0,1,1,0,2.557Z" transform="translate(-166.705 -121.327)"/>
          <path id="Trazado_264201" data-name="Trazado 264201" d="M214.335,155.447H178.678a1.278,1.278,0,0,1,0-2.557h35.657a1.278,1.278,0,1,1,0,2.557Z" transform="translate(-173.513 -119.509)"/>
          <path id="Trazado_264202" data-name="Trazado 264202" d="M218.8,161.977H178.678a1.278,1.278,0,0,1,0-2.557H218.8a1.278,1.278,0,1,1,0,2.557Z" transform="translate(-173.513 -117.69)"/>
          <path id="Trazado_264203" data-name="Trazado 264203" d="M256.19,161.977H215.278a1.278,1.278,0,0,1,0-2.557H256.19a1.278,1.278,0,0,1,0,2.557Z" transform="translate(-163.321 -117.69)"/>
          <path id="Trazado_264204" data-name="Trazado 264204" d="M198.651,168.5H175.638a1.278,1.278,0,0,1,0-2.557h23.013a1.278,1.278,0,1,1,0,2.557Z" transform="translate(-174.36 -115.875)"/>
          <path id="Trazado_264205" data-name="Trazado 264205" d="M260.509,168.5H199.768a1.278,1.278,0,0,1,0-2.557h60.741a1.278,1.278,0,0,1,0,2.557Z" transform="translate(-167.64 -115.875)"/>
          <path id="Trazado_264206" data-name="Trazado 264206" d="M218.542,175.027H178.678a1.278,1.278,0,0,1,0-2.557h39.863a1.278,1.278,0,0,1,0,2.557Z" transform="translate(-173.513 -114.056)"/>
          <path id="Trazado_264207" data-name="Trazado 264207" d="M240.008,175.027h-25.8a1.278,1.278,0,1,1,0-2.557h25.8a1.278,1.278,0,0,1,0,2.557Z" transform="translate(-163.619 -114.056)"/>
          <path id="Trazado_264208" data-name="Trazado 264208" d="M224.563,181.557H178.678a1.278,1.278,0,0,1,0-2.557h45.885a1.278,1.278,0,0,1,0,2.557Z" transform="translate(-173.513 -112.238)"/>
        </g>
        <circle id="Elipse_6484" data-name="Elipse 6484" cx="2.186" cy="2.186" r="2.186" transform="translate(147.703 3.183)" fill="#fff" opacity="0.4"/>
        <circle id="Elipse_6485" data-name="Elipse 6485" cx="2.186" cy="2.186" r="2.186" transform="translate(140.019 3.183)" fill="#fff" opacity="0.4"/>
        <circle id="Elipse_6486" data-name="Elipse 6486" cx="2.186" cy="2.186" r="2.186" transform="translate(132.348 3.183)" fill="#fff" opacity="0.4"/>
        <g id="Grupo_172952" data-name="Grupo 172952" transform="translate(10.011 24.035)" opacity="0.2">
          <path id="Trazado_264209" data-name="Trazado 264209" d="M157.658,129.337h0a1.278,1.278,0,1,1,1.279-1.279A1.278,1.278,0,0,1,157.658,129.337Z" transform="translate(-156.38 -126.78)"/>
          <path id="Trazado_264210" data-name="Trazado 264210" d="M157.658,135.867h0a1.278,1.278,0,1,1,1.279-1.278A1.278,1.278,0,0,1,157.658,135.867Z" transform="translate(-156.38 -124.962)"/>
          <path id="Trazado_264211" data-name="Trazado 264211" d="M157.658,142.387h0a1.278,1.278,0,1,1,1.279-1.278A1.278,1.278,0,0,1,157.658,142.387Z" transform="translate(-156.38 -123.146)"/>
          <path id="Trazado_264212" data-name="Trazado 264212" d="M157.658,148.917h0a1.278,1.278,0,1,1,1.279-1.278A1.278,1.278,0,0,1,157.658,148.917Z" transform="translate(-156.38 -121.327)"/>
          <path id="Trazado_264213" data-name="Trazado 264213" d="M157.658,155.447h0a1.278,1.278,0,1,1,1.279-1.278A1.278,1.278,0,0,1,157.658,155.447Z" transform="translate(-156.38 -119.509)"/>
          <path id="Trazado_264214" data-name="Trazado 264214" d="M157.658,161.977h0a1.278,1.278,0,1,1,1.279-1.278A1.278,1.278,0,0,1,157.658,161.977Z" transform="translate(-156.38 -117.69)"/>
          <path id="Trazado_264215" data-name="Trazado 264215" d="M157.658,168.5h0a1.278,1.278,0,1,1,1.279-1.278A1.278,1.278,0,0,1,157.658,168.5Z" transform="translate(-156.38 -115.875)"/>
          <path id="Trazado_264216" data-name="Trazado 264216" d="M157.658,175.027h0a1.278,1.278,0,1,1,1.279-1.278A1.278,1.278,0,0,1,157.658,175.027Z" transform="translate(-156.38 -114.056)"/>
          <path id="Trazado_264217" data-name="Trazado 264217" d="M157.658,181.557h0a1.278,1.278,0,1,1,1.279-1.278A1.278,1.278,0,0,1,157.658,181.557Z" transform="translate(-156.38 -112.238)"/>
        </g>
        <rect id="Rectángulo_294048" data-name="Rectángulo 294048" width="205.235" height="131.415" transform="translate(93.252 92.511)" fill="#263238"/>
        <rect id="Rectángulo_294049" data-name="Rectángulo 294049" width="205.235" height="131.415" transform="translate(93.252 92.511)" fill="#fff" opacity="0.9"/>
        <rect id="Rectángulo_294050" data-name="Rectángulo 294050" width="32.013" height="131.415" transform="translate(93.252 92.511)" opacity="0.1"/>
        <rect id="Rectángulo_294051" data-name="Rectángulo 294051" width="205.235" height="10.599" transform="translate(93.252 92.511)" fill="#fda929"/>
        <path id="Trazado_264218" data-name="Trazado 264218" d="M233.888,197.968l-3.4,1.278,3.4,1.278V201.8l-4.858-1.854v-1.278l4.858-1.841Z" transform="translate(-126.138 -83.237)" fill="#fff"/>
        <path id="Trazado_264219" data-name="Trazado 264219" d="M236.435,194.76h1.419l-3.375,9.627H233.06Z" transform="translate(-125.016 -83.813)" fill="#fff"/>
        <path id="Trazado_264220" data-name="Trazado 264220" d="M241.818,198.6v1.279l-4.858,1.854v-1.278l3.4-1.279-3.4-1.278V196.62Z" transform="translate(-123.929 -83.295)" fill="#fff"/>
        <g id="Grupo_172953" data-name="Grupo 172953" transform="translate(101.984 126.787)" opacity="0.2">
          <path id="Trazado_264221" data-name="Trazado 264221" d="M243.508,209.707H229.6a1.278,1.278,0,0,1,0-2.557h13.91a1.278,1.278,0,1,1,0,2.557Z" transform="translate(-228.32 -207.15)"/>
          <path id="Trazado_264222" data-name="Trazado 264222" d="M243.508,216.227H229.6a1.278,1.278,0,0,1,0-2.557h13.91a1.278,1.278,0,1,1,0,2.557Z" transform="translate(-228.32 -205.334)"/>
          <path id="Trazado_264223" data-name="Trazado 264223" d="M243.508,222.757H229.6a1.278,1.278,0,0,1,0-2.557h13.91a1.278,1.278,0,1,1,0,2.557Z" transform="translate(-228.32 -203.516)"/>
          <path id="Trazado_264224" data-name="Trazado 264224" d="M243.508,229.287H229.6a1.278,1.278,0,0,1,0-2.557h13.91a1.278,1.278,0,1,1,0,2.557Z" transform="translate(-228.32 -201.697)"/>
          <path id="Trazado_264225" data-name="Trazado 264225" d="M243.508,235.817H229.6a1.278,1.278,0,1,1,0-2.557h13.91a1.278,1.278,0,1,1,0,2.557Z" transform="translate(-228.32 -199.879)"/>
          <path id="Trazado_264226" data-name="Trazado 264226" d="M243.508,242.337H229.6a1.278,1.278,0,0,1,0-2.557h13.91a1.278,1.278,0,1,1,0,2.557Z" transform="translate(-228.32 -198.063)"/>
          <path id="Trazado_264227" data-name="Trazado 264227" d="M243.508,248.867H229.6a1.278,1.278,0,1,1,0-2.557h13.91a1.278,1.278,0,1,1,0,2.557Z" transform="translate(-228.32 -196.245)"/>
          <path id="Trazado_264228" data-name="Trazado 264228" d="M243.508,255.4H229.6a1.278,1.278,0,0,1,0-2.557h13.91a1.278,1.278,0,1,1,0,2.557Z" transform="translate(-228.32 -194.426)"/>
          <path id="Trazado_264229" data-name="Trazado 264229" d="M243.508,261.927H229.6a1.278,1.278,0,0,1,0-2.557h13.91a1.278,1.278,0,1,1,0,2.557Z" transform="translate(-228.32 -192.608)"/>
        </g>
        <path id="Trazado_264230" data-name="Trazado 264230" d="M278.141,209.707H249.618a1.278,1.278,0,1,1,0-2.557h28.523a1.278,1.278,0,0,1,0,2.557Z" transform="translate(-120.76 -80.363)" fill="#fda929"/>
        <path id="Trazado_264231" data-name="Trazado 264231" d="M352.212,209.707H277.868a1.278,1.278,0,1,1,0-2.557h74.344a1.278,1.278,0,1,1,0,2.557Z" transform="translate(-112.893 -80.363)" fill="#263238"/>
        <g id="Grupo_172954" data-name="Grupo 172954" transform="translate(250.429 126.787)" opacity="0.2">
          <path id="Trazado_264232" data-name="Trazado 264232" d="M367.251,209.707H345.708a1.278,1.278,0,1,1,0-2.557h21.542a1.278,1.278,0,1,1,0,2.557Z" transform="translate(-344.43 -207.15)" fill="#263238"/>
        </g>
        <g id="Grupo_172955" data-name="Grupo 172955" transform="translate(131.415 135.123)" opacity="0.2">
          <path id="Trazado_264233" data-name="Trazado 264233" d="M327.128,216.227h-74.51a1.278,1.278,0,1,1,0-2.557h74.51a1.278,1.278,0,0,1,0,2.557Z" transform="translate(-251.34 -213.67)" fill="#263238"/>
        </g>
        <path id="Trazado_264234" data-name="Trazado 264234" d="M385.674,216.227h-69.4a1.278,1.278,0,0,1,0-2.557h69.447a1.278,1.278,0,0,1,0,2.557Z" transform="translate(-102.197 -78.547)" fill="#fda929"/>
        <path id="Trazado_264235" data-name="Trazado 264235" d="M296.777,222.757H252.618a1.278,1.278,0,1,1,0-2.557h44.159a1.278,1.278,0,0,1,0,2.557Z" transform="translate(-119.925 -76.729)" fill="#263238"/>
        <path id="Trazado_264236" data-name="Trazado 264236" d="M337.747,222.757H294.279a1.278,1.278,0,1,1,0-2.557h43.468a1.278,1.278,0,1,1,0,2.557Z" transform="translate(-108.323 -76.729)" fill="#fda929"/>
        <path id="Trazado_264237" data-name="Trazado 264237" d="M380.784,222.757H333.838a1.278,1.278,0,0,1,0-2.557h46.946a1.278,1.278,0,0,1,0,2.557Z" transform="translate(-97.307 -76.729)" fill="#263238"/>
        <path id="Trazado_264238" data-name="Trazado 264238" d="M296.131,229.287h-26.5a1.278,1.278,0,0,1,0-2.557h26.5a1.278,1.278,0,0,1,0,2.557Z" transform="translate(-115.188 -74.91)" fill="#263238"/>
        <path id="Trazado_264239" data-name="Trazado 264239" d="M326.021,229.287H297.089a1.278,1.278,0,1,1,0-2.557h28.932a1.278,1.278,0,1,1,0,2.557Z" transform="translate(-107.541 -74.91)" fill="#263238"/>
        <g id="Grupo_172956" data-name="Grupo 172956" transform="translate(223.773 151.82)" opacity="0.2">
          <path id="Trazado_264240" data-name="Trazado 264240" d="M371.779,229.287h-46.92a1.278,1.278,0,1,1,0-2.557h46.92a1.278,1.278,0,0,1,0,2.557Z" transform="translate(-323.58 -226.73)" fill="#263238"/>
        </g>
        <g id="Grupo_172957" data-name="Grupo 172957" transform="translate(131.415 160.168)" opacity="0.2">
          <path id="Trazado_264241" data-name="Trazado 264241" d="M288.275,235.817H252.618a1.278,1.278,0,1,1,0-2.557h35.657a1.278,1.278,0,1,1,0,2.557Z" transform="translate(-251.34 -233.26)" fill="#263238"/>
        </g>
        <path id="Trazado_264242" data-name="Trazado 264242" d="M292.737,242.337H252.618a1.278,1.278,0,1,1,0-2.557h40.119a1.278,1.278,0,1,1,0,2.557Z" transform="translate(-119.925 -71.276)" fill="#fda929"/>
        <path id="Trazado_264243" data-name="Trazado 264243" d="M349.585,242.337H289.138a1.278,1.278,0,1,1,0-2.557h60.447a1.278,1.278,0,0,1,0,2.557Z" transform="translate(-109.755 -71.276)" fill="#263238"/>
        <path id="Trazado_264244" data-name="Trazado 264244" d="M378.47,242.337H342.148a1.278,1.278,0,0,1,0-2.557H378.47a1.278,1.278,0,0,1,0,2.557Z" transform="translate(-94.993 -71.276)" fill="#263238"/>
        <g id="Grupo_172958" data-name="Grupo 172958" transform="translate(144.162 176.852)" opacity="0.2">
          <path id="Trazado_264245" data-name="Trazado 264245" d="M285.6,248.867H262.588a1.278,1.278,0,1,1,0-2.557H285.6a1.278,1.278,0,1,1,0,2.557Z" transform="translate(-261.31 -246.31)" fill="#263238"/>
        </g>
        <g id="Grupo_172959" data-name="Grupo 172959" transform="translate(175.011 176.852)" opacity="0.2">
          <path id="Trazado_264246" data-name="Trazado 264246" d="M330.775,248.867H286.719a1.278,1.278,0,1,1,0-2.557h44.056a1.278,1.278,0,1,1,0,2.557Z" transform="translate(-285.44 -246.31)" fill="#263238"/>
        </g>
        <path id="Trazado_264247" data-name="Trazado 264247" d="M370.929,248.867H327.909a1.278,1.278,0,1,1,0-2.557h43.021a1.278,1.278,0,1,1,0,2.557Z" transform="translate(-98.958 -69.458)" fill="#263238"/>
        <path id="Trazado_264248" data-name="Trazado 264248" d="M299.707,255.4H272.629a1.278,1.278,0,1,1,0-2.557h27.078a1.278,1.278,0,1,1,0,2.557Z" transform="translate(-114.353 -67.639)" fill="#263238"/>
        <g id="Grupo_172960" data-name="Grupo 172960" transform="translate(189.637 185.201)" opacity="0.2">
          <path id="Trazado_264249" data-name="Trazado 264249" d="M323.945,255.4H298.159a1.278,1.278,0,1,1,0-2.557h25.787a1.278,1.278,0,1,1,0,2.557Z" transform="translate(-296.88 -252.84)" fill="#263238"/>
        </g>
        <path id="Trazado_264250" data-name="Trazado 264250" d="M371.834,255.4H324.658a1.278,1.278,0,0,1,0-2.557h47.176a1.278,1.278,0,1,1,0,2.557Z" transform="translate(-99.863 -67.639)" fill="#fda929"/>
        <g id="Grupo_172961" data-name="Grupo 172961" transform="translate(156.997 193.549)" opacity="0.2">
          <path id="Trazado_264251" data-name="Trazado 264251" d="M305.728,261.927h-33.1a1.278,1.278,0,1,1,0-2.557h33.1a1.278,1.278,0,0,1,0,2.557Z" transform="translate(-271.35 -259.37)" fill="#263238"/>
        </g>
        <path id="Trazado_264252" data-name="Trazado 264252" d="M375,185.029a2.186,2.186,0,1,0,.636-1.554,2.2,2.2,0,0,0-.636,1.554Z" transform="translate(-85.488 -87.136)" fill="#fff" opacity="0.4"/>
        <circle id="Elipse_6487" data-name="Elipse 6487" cx="2.186" cy="2.186" r="2.186" transform="translate(281.892 95.707)" fill="#fff" opacity="0.4"/>
        <circle id="Elipse_6488" data-name="Elipse 6488" cx="2.186" cy="2.186" r="2.186" transform="translate(274.209 95.707)" fill="#fff" opacity="0.4"/>
      </g>
      <g id="freepik--speech-bubble--inject-27" transform="translate(77.164 168.018)">
        <path id="Trazado_264253" data-name="Trazado 264253" d="M123.723,186.42H87a11.3,11.3,0,0,0-11.315,11.3v31.962A11.3,11.3,0,0,0,86.992,241h26.043l7.671,10.087V241h3a11.315,11.315,0,0,0,11.315-11.315V197.722a11.3,11.3,0,0,0-11.3-11.3Z" transform="translate(-75.69 -186.42)" fill="#fda929"/>
        <path id="Trazado_264254" data-name="Trazado 264254" d="M123.723,186.42H87a11.3,11.3,0,0,0-11.315,11.3v31.962A11.3,11.3,0,0,0,86.992,241h26.043l7.671,10.087V241h3a11.315,11.315,0,0,0,11.315-11.315V197.722a11.3,11.3,0,0,0-11.3-11.3Z" transform="translate(-75.69 -186.42)" fill="#fff" opacity="0.7"/>
        <path id="Trazado_264255" data-name="Trazado 264255" d="M99.322,217.523a1.7,1.7,0,0,1-1.278-.588L90.9,208.573a1.678,1.678,0,0,1,2.557-2.173l5.868,6.929,9.7-11.43a1.675,1.675,0,0,1,2.557,2.161L100.6,216.96a1.675,1.675,0,0,1-1.278.563Z" transform="translate(-71.566 -182.262)" fill="#fff"/>
        <circle id="Elipse_6489" data-name="Elipse 6489" cx="18.231" cy="18.231" r="18.231" transform="translate(3.884 27.14) rotate(-45)" fill="#7453d8"/>
      </g>
      <g id="freepik--Character--inject-27" transform="translate(66.854 218.308)">
        <path id="Trazado_264256" data-name="Trazado 264256" d="M205.324,363.772l27.449-1.342L230.1,386.3s-19.049,3.631-27.551-9.921Z" transform="translate(-30.052 -187.695)" fill="#ebb376"/>
        <path id="Trazado_264257" data-name="Trazado 264257" d="M244.466,370.753l-6.252,17.311L224.1,386.3l2.672-23.869Z" transform="translate(-24.051 -187.695)" fill="#ebb376"/>
        <path id="Trazado_264258" data-name="Trazado 264258" d="M195.494,410.428a112.213,112.213,0,0,0,28.229-20.954l-1.879-17.784c-25.94,3.835-40.911,9.32-40.911,9.32s9.614-34.455.818-47.01L157.6,338.372s-25.659,53.338-8.4,72.055Z" transform="translate(-46.571 -195.612)" fill="#fda929"/>
        <path id="Trazado_264259" data-name="Trazado 264259" d="M195.461,410.43a112.505,112.505,0,0,0,28.254-20.942l-1.867-17.809c-25.109,3.682-39.953,8.949-40.911,9.295.32-1.278,9.41-34.66.793-46.984l-24.151,4.372A187.465,187.465,0,0,0,145.8,371.68c-3.452,14.562-4.462,30.249,3.388,38.751Z" transform="translate(-46.577 -195.615)" fill="#fff" opacity="0.7"/>
        <path id="Trazado_264260" data-name="Trazado 264260" d="M175.587,408.539c8.527-54.029.972-67.759.972-67.759l-30.684,28.983c-3.452,14.562-4.462,30.249,3.388,38.751Z" transform="translate(-46.557 -193.724)" opacity="0.2"/>
        <path id="Trazado_264261" data-name="Trazado 264261" d="M185.865,417.051c5.753-27.308,12.21-70.061,11.506-76.428-1.023-9.256-51.369-48.915-95.068-20.047-8.949,5.894-13.514,69.473-15.073,96.474Z" transform="translate(-62.167 -202.235)" fill="#fda929"/>
        <path id="Trazado_264262" data-name="Trazado 264262" d="M185.865,417.049c5.753-27.308,12.21-70.074,11.506-76.44-1.023-9.243-51.382-48.9-95.081-20.021-3.235,2.161-5.894,11.915-8.093,24.8-2.915,17.541-4.935,40.835-6.137,58.4-.332,4.973-.614,9.474-.831,13.258Z" transform="translate(-62.167 -202.234)" fill="#fff" opacity="0.7"/>
        <path id="Trazado_264263" data-name="Trazado 264263" d="M159.346,226.771c-15.15-6.124-50.871,15.853-54,55.039s16.735,28.331,16.735,28.331,3.541,14.945,18.014,10.33c0,0,11.954,13.539,23.077,8.029,0,0,13.846,14.421,21.274,6.814,0,0,8.08,9.218,15.457,2.237s28.459-78.243-4.615-94.723S159.346,226.771,159.346,226.771Z" transform="translate(-57.216 -225.756)" fill="#263238"/>
        <path id="Trazado_264264" data-name="Trazado 264264" d="M148.4,358.121l-1.457-.128c1.688-18.87-2.467-27.219-2.557-27.3l1.278-.678C145.911,330.314,150.13,338.714,148.4,358.121Z" transform="translate(-46.249 -196.72)" fill="#263238"/>
        <path id="Trazado_264265" data-name="Trazado 264265" d="M153.791,358.535c-10.036-23.639,1.278-29.149,1.739-29.405l.6,1.278-.307-.665.307.665c-.1,0-10.432,5.229-1,27.475Z" transform="translate(-44.783 -196.968)" fill="#263238"/>
        <path id="Trazado_264266" data-name="Trazado 264266" d="M159.14,343.872S139.771,328.53,109.7,319.888l-9.653,4.526s-16.186-20.034,10.79-26.592,63.668,11.506,72.873,26.976-16.007,20.456-16.007,20.456S165.392,342.108,159.14,343.872Z" transform="translate(-59.938 -206.072)" fill="#fda929"/>
        <path id="Trazado_264267" data-name="Trazado 264267" d="M159.14,343.872S139.771,328.53,109.7,319.888l-9.653,4.526s-16.186-20.034,10.79-26.592,63.668,11.506,72.873,26.976-16.007,20.456-16.007,20.456S165.392,342.108,159.14,343.872Z" transform="translate(-59.938 -206.072)" fill="#fff" opacity="0.6"/>
        <path id="Trazado_264268" data-name="Trazado 264268" d="M154.917,352.189a1.278,1.278,0,1,1-1.278-1.279A1.278,1.278,0,0,1,154.917,352.189Z" transform="translate(-44.029 -190.903)" fill="#fff"/>
        <path id="Trazado_264269" data-name="Trazado 264269" d="M148.427,352.189a1.278,1.278,0,1,1-1.278-1.279A1.278,1.278,0,0,1,148.427,352.189Z" transform="translate(-45.837 -190.903)" fill="#fff"/>
        <path id="Trazado_264270" data-name="Trazado 264270" d="M140.774,277c-1.176,13.718-5.382,38.137-16.544,43.468,0,0,12.478,2.557,31.962,27.244,11.084-7.773,6.891-13.079,6.891-13.079-12.964-8.5-9.6-18.985-4.36-28.127Z" transform="translate(-51.863 -211.485)" fill="#ebb376"/>
        <path id="Trazado_264271" data-name="Trazado 264271" d="M143.4,286.41l10.624,17.515a40.723,40.723,0,0,0-3.209,6.648c-5.114-2.736-10.714-11.4-9.653-17.336A20.148,20.148,0,0,1,143.4,286.41Z" transform="translate(-47.185 -208.865)" opacity="0.2"/>
        <path id="Trazado_264272" data-name="Trazado 264272" d="M136.677,259.574c-3.567,21.555-5.536,30.581,2.455,44.453,12,20.878,38.61,21.862,48.39,2.122,8.8-17.771,13.156-50.04-5.2-64.282C164.2,227.829,140.219,238.006,136.677,259.574Z" transform="translate(-49.262 -223.068)" fill="#ebb376"/>
        <path id="Trazado_264273" data-name="Trazado 264273" d="M183.246,232.458c13.974,7.748,27.283,31.962,7.4,25.915-3,5.817-13.705.486-19.932-6.495-1.048,4.845-12.5,9.7-20.942,2.2,4.078,5.881-2.864,20.724-10.087,18.167s-23.435-5.919-9.077-28.8S168.326,224.16,183.246,232.458Z" transform="translate(-51.685 -225.663)" fill="#263238"/>
        <path id="Trazado_264274" data-name="Trazado 264274" d="M167.135,270.22s1.278,8.553,3.708,13.194c-2.723,1.573-6.392-.524-6.392-.524Z" transform="translate(-40.662 -213.373)" fill="#d58745"/>
        <path id="Trazado_264275" data-name="Trazado 264275" d="M157.365,285.1a16.615,16.615,0,0,0,2.825,1.074.486.486,0,0,0,.614-.384.55.55,0,0,0-.4-.665,15.265,15.265,0,0,1-9.921-8.706.524.524,0,0,0-.665-.358.537.537,0,0,0-.294.69,16.045,16.045,0,0,0,7.837,8.348Z" transform="translate(-44.828 -211.752)" fill="#263238"/>
        <path id="Trazado_264276" data-name="Trazado 264276" d="M127.573,268.908a17.528,17.528,0,0,0,8.157,10.624c5.2,2.851,8.949-2.033,8.566-8.106-.4-5.485-3.593-13.565-9.295-13.884S126.026,263.245,127.573,268.908Z" transform="translate(-51.038 -216.907)" fill="#ebb376"/>
        <path id="Trazado_264277" data-name="Trazado 264277" d="M154.656,255.469a.971.971,0,0,0,.818,0,7.914,7.914,0,0,1,7.441-.128.972.972,0,0,0,1.394-.384,1.163,1.163,0,0,0-.422-1.5,9.793,9.793,0,0,0-9.41,0,1.1,1.1,0,0,0-.409,1.457A1.163,1.163,0,0,0,154.656,255.469Z" transform="translate(-43.589 -218.375)" fill="#263238"/>
        <path id="Trazado_264278" data-name="Trazado 264278" d="M182.8,263.25a.946.946,0,0,0,.767.077,1.048,1.048,0,0,0,.652-1.355,11.212,11.212,0,0,0-6.661-7.39.972.972,0,0,0-1.278.729,1.151,1.151,0,0,0,.742,1.355,8.949,8.949,0,0,1,5.216,5.919A1.125,1.125,0,0,0,182.8,263.25Z" transform="translate(-37.378 -217.744)" fill="#263238"/>
        <path id="Trazado_264279" data-name="Trazado 264279" d="M160.841,266.656c-.626,1.713-2.058,2.749-3.2,2.327s-1.547-2.135-.921-3.835,2.058-2.749,3.183-2.327S161.454,264.955,160.841,266.656Z" transform="translate(-42.896 -215.46)" fill="#263238"/>
        <path id="Trazado_264280" data-name="Trazado 264280" d="M158.76,262.75,163,262.66S160.013,265.089,158.76,262.75Z" transform="translate(-42.247 -215.479)" fill="#263238"/>
        <path id="Trazado_264281" data-name="Trazado 264281" d="M177.629,271.985c-.626,1.7-2.058,2.736-3.183,2.327s-1.56-2.148-.933-3.835,2.058-2.736,3.2-2.327S178.256,270.272,177.629,271.985Z" transform="translate(-38.219 -213.975)" fill="#263238"/>
        <path id="Trazado_264282" data-name="Trazado 264282" d="M175.56,268.069l4.232-.09S176.8,270.422,175.56,268.069Z" transform="translate(-37.568 -213.997)" fill="#263238"/>
        <path id="Trazado_264283" data-name="Trazado 264283" d="M160.395,280.293a9.4,9.4,0,0,1-3.835-.805,9.7,9.7,0,0,1-5.293-6.188,12.951,12.951,0,0,1,6.763-15.15,9.538,9.538,0,0,1,13.462,6.009,12.593,12.593,0,0,1-.652,8.8h0a12.58,12.58,0,0,1-6.124,6.392A10.227,10.227,0,0,1,160.395,280.293Zm2.007-21.67a8.95,8.95,0,0,0-3.669.895,11.506,11.506,0,0,0-5.983,13.4,8.054,8.054,0,0,0,11.442,5.114,11.135,11.135,0,0,0,5.408-5.613l.665.294-.665-.294a11.148,11.148,0,0,0,.575-7.786,8.233,8.233,0,0,0-4.5-5.28,7.671,7.671,0,0,0-3.273-.729Z" transform="translate(-44.47 -217.015)" fill="#263238"/>
        <path id="Trazado_264284" data-name="Trazado 264284" d="M177.036,285.394a9.153,9.153,0,0,1-3.835-.805A9.755,9.755,0,0,1,167.9,278.4a12.977,12.977,0,0,1,6.776-15.15,9.512,9.512,0,0,1,13.45,6.009,12.516,12.516,0,0,1-.639,8.8h0a11.89,11.89,0,0,1-10.445,7.338Zm2.033-21.734a8.948,8.948,0,0,0-3.733.844,11.212,11.212,0,0,0-5.408,5.625,11.033,11.033,0,0,0-.575,7.773,8.259,8.259,0,0,0,4.5,5.293c4.475,2.007,10.023-.6,12.35-5.792h0a11.212,11.212,0,0,0,.575-7.786,8.272,8.272,0,0,0-4.5-5.28,7.991,7.991,0,0,0-3.209-.614Z" transform="translate(-39.837 -215.596)" fill="#263238"/>
        <path id="Trazado_264285" data-name="Trazado 264285" d="M168.379,270.328a.652.652,0,0,0-.371-.409,2.659,2.659,0,0,0-1.649.243l-.639-1.279a3.925,3.925,0,0,1,2.813-.294,2.1,2.1,0,0,1,1.278,1.278Z" transform="translate(-40.309 -213.865)" fill="#263238"/>
        <rect id="Rectángulo_294052" data-name="Rectángulo 294052" width="1.466" height="18.131" transform="translate(92.669 44.182) rotate(-72.646)" fill="#263238"/>
        <path id="Trazado_264286" data-name="Trazado 264286" d="M151.037,373.054S117.4,398.828,87.88,397.345c1.2-17.566,3.222-40.911,6.137-58.4,3.017-3.324,5-5.344,5-5.344l17.9,13.386-4.36,5.472s27.091-1.381,36.526,0Z" transform="translate(-61.986 -195.723)" opacity="0.2"/>
        <path id="Trazado_264287" data-name="Trazado 264287" d="M140.184,349.5l26.925-5.5.959,24.01s-18.269,6.469-28.727-5.638Z" transform="translate(-47.655 -192.827)" fill="#ebb376"/>
        <path id="Trazado_264288" data-name="Trazado 264288" d="M179.8,349.571l-3.554,18.052-14.229.4-.959-24.01Z" transform="translate(-41.606 -192.824)" fill="#ebb376"/>
        <path id="Trazado_264289" data-name="Trazado 264289" d="M141.8,348.3l1.317,18.525-6.7,3L133.55,348.3Z" transform="translate(-49.267 -191.629)" fill="#fda929"/>
        <path id="Trazado_264290" data-name="Trazado 264290" d="M141.8,348.3l1.317,18.525-6.7,3L133.55,348.3Z" transform="translate(-49.267 -191.629)" fill="#fff" opacity="0.6"/>
        <path id="Trazado_264291" data-name="Trazado 264291" d="M117.39,314.78a31.144,31.144,0,0,0-18.474,10.688c-8.118,9.537-36.731,37.869-30.377,61s67.542,5.919,86.234-7.3l-2.864-21.53-42.382,3.107,13.066-8.6C131.555,327.207,117.39,314.78,117.39,314.78Z" transform="translate(-67.626 -200.964)" fill="#fda929"/>
        <path id="Trazado_264292" data-name="Trazado 264292" d="M117.39,314.78a31.144,31.144,0,0,0-18.474,10.688c-8.118,9.537-36.731,37.869-30.377,61s67.542,5.919,86.234-7.3l-2.864-21.53-42.382,3.107,13.066-8.6C131.555,327.207,117.39,314.78,117.39,314.78Z" transform="translate(-67.626 -200.964)" fill="#fff" opacity="0.7"/>
        <path id="Trazado_264293" data-name="Trazado 264293" d="M202.56,364.081l7.709-1.291v20.66l-6.111,1Z" transform="translate(-30.049 -187.594)" fill="#fda929"/>
        <path id="Trazado_264294" data-name="Trazado 264294" d="M202.56,364.081l7.709-1.291v20.66l-6.111,1Z" transform="translate(-30.049 -187.594)" fill="#fff" opacity="0.6"/>
        <path id="Trazado_264295" data-name="Trazado 264295" d="M194.327,380.959a24.853,24.853,0,0,1,.166-3.388l.23-1.7-1.649.972-.984.588a7.881,7.881,0,0,1-1,.371,2.966,2.966,0,0,1-1.79,0,3.285,3.285,0,0,1-1.432-1.035,6,6,0,0,1-1.01-1.739L185.416,371l-1.023,4.27c-.1.422-.166.857-.243,1.278a11.7,11.7,0,0,1-.371,1.189,3.835,3.835,0,0,1-1.189,1.624,2.557,2.557,0,0,1-1.93.166,7.964,7.964,0,0,1-2.276-1l-2.225-1.393.895,2.263a19.025,19.025,0,0,1,.921,2.966,9.016,9.016,0,0,1,.2,1.534,2.429,2.429,0,0,1-.332,1.509,2.455,2.455,0,0,0,.869-1.432,6.88,6.88,0,0,0,.23-1.688,11.669,11.669,0,0,0,0-1.342,10.665,10.665,0,0,0,1.151.562,4.539,4.539,0,0,0,3.644-.089,5.472,5.472,0,0,0,2.391-2.71v-.166a4.871,4.871,0,0,0,5.689,1.215,8.757,8.757,0,0,0,1.087-.588s0,.089,0,.141a17.089,17.089,0,0,0,.371,1.79,9.331,9.331,0,0,0,.639,1.726,3.976,3.976,0,0,0,1.112,1.432,4.45,4.45,0,0,1-.55-1.624,12.553,12.553,0,0,1-.153-1.675Z" transform="translate(-37.401 -185.308)" fill="#fda929"/>
        <path id="Trazado_264296" data-name="Trazado 264296" d="M231.807,358.216a7.313,7.313,0,0,1-2.953-.32,10.714,10.714,0,0,1-2.774-1.279,8.309,8.309,0,0,1-2.058-2.212,11.506,11.506,0,0,1-1.368-2.749l-.844-2.557-1.432,2.263a12.3,12.3,0,0,1-2.2,2.557,4.117,4.117,0,0,1-2.557,1.176h-.307l-.384-.077a3.58,3.58,0,0,1-.793-.192,9.565,9.565,0,0,1-1.547-.665,13.255,13.255,0,0,1-2.749-2.046l-2.225-2.135.46,2.928a23.471,23.471,0,0,1,.294,4.73,6.572,6.572,0,0,1-.447,2.173,1.445,1.445,0,0,1-1.56.895h-.575l.179.473q.563,1.445,1.151,2.877c-.115-.857-.256-1.713-.409-2.557h.243a4.049,4.049,0,0,0,.754-.128,5.96,5.96,0,0,0,.678-.409c.166-.179.345-.371.5-.563a6.737,6.737,0,0,0,.959-2.557,16.276,16.276,0,0,0,.281-2.557h0a14.571,14.571,0,0,0,1.278.946,11.324,11.324,0,0,0,1.892.933,6.623,6.623,0,0,0,2.212.5,6.482,6.482,0,0,0,4.27-1.688,11.862,11.862,0,0,0,1.394-1.381,14.6,14.6,0,0,0,.818,1.278,10.587,10.587,0,0,0,2.813,2.672,10.97,10.97,0,0,0,3.541,1.381,10.33,10.33,0,0,0,2.442.179c-.1.256-.217.511-.307.78a17.372,17.372,0,0,0-.524,2.25,8.8,8.8,0,0,0-.1,2.314,4.577,4.577,0,0,0,.678,2.173,4.781,4.781,0,0,1-.166-2.161,10.994,10.994,0,0,1,.5-2.109,21.735,21.735,0,0,1,1.854-3.835l.805-1.368Z" transform="translate(-29.15 -191.407)" fill="#fda929"/>
      </g>
      <g id="freepik--Table--inject-27" transform="translate(56.107 432.74)">
        <path id="Trazado_264297" data-name="Trazado 264297" d="M5.676,0H454.04a5.677,5.677,0,0,1,5.676,5.677V19.484H0V5.676A5.676,5.676,0,0,1,5.676,0Z" transform="translate(474.853 27.935) rotate(180)" fill="#29398a"/>
        <rect id="Rectángulo_294053" data-name="Rectángulo 294053" width="459.729" height="9.742" transform="translate(474.853 18.18) rotate(180)" opacity="0.2"/>
        <path id="Trazado_264298" data-name="Trazado 264298" d="M64.717,404.462h479a5.5,5.5,0,0,0,5.5-5.485h0a5.5,5.5,0,0,0-5.5-5.5h-479a5.5,5.5,0,0,0-5.5,5.5h0A5.5,5.5,0,0,0,64.717,404.462Z" transform="translate(-59.22 -393.48)" fill="#29398a"/>
      </g>
      <g id="freepik--device-2--inject-27" transform="translate(373.35 362.625)">
        <path id="Trazado_264299" data-name="Trazado 264299" d="M434.121,341.658,420.134,405.1A4.769,4.769,0,0,1,415.6,408.7h-76.4a3.081,3.081,0,0,1-2.864-3.989l13.961-62.952a4.372,4.372,0,0,1,4.539-3.107h76.4C433.277,338.7,434.568,339.638,434.121,341.658Z" transform="translate(-299.331 -338.637)" fill="#263238"/>
        <path id="Trazado_264300" data-name="Trazado 264300" d="M433.558,341.658,419.572,405.1a4.769,4.769,0,0,1-4.539,3.605H341.226a3.081,3.081,0,0,1-2.877-3.989l13.987-62.952a4.334,4.334,0,0,1,4.539-3.107h73.794C432.715,338.7,434.006,339.638,433.558,341.658Z" transform="translate(-298.768 -338.637)" fill="#fff" opacity="0.4"/>
        <path id="Trazado_264301" data-name="Trazado 264301" d="M421,406.314l13.91-63.106c.46-2.071-.831-3-2.889-3H358.226a4.36,4.36,0,0,0-4.539,3.107L339.56,407.144Z" transform="translate(-298.393 -338.205)" fill="#fda929"/>
        <path id="Trazado_264302" data-name="Trazado 264302" d="M434.906,343.2l-7.338,33.343-6.584,29.776-43.6.447-37.817.371,14.063-63.822a4.334,4.334,0,0,1,4.526-3.107h73.883C434.088,340.2,435.367,341.149,434.906,343.2Z" transform="translate(-298.39 -338.205)" fill="#fff" opacity="0.4"/>
        <path id="Trazado_264303" data-name="Trazado 264303" d="M427.217,368.62,420.633,398.4l-43.6.447H340.83l5.919-27.232a3.836,3.836,0,0,1,3.708-2.992Z" transform="translate(-298.039 -330.287)" opacity="0.2"/>
        <path id="Trazado_264304" data-name="Trazado 264304" d="M428.824,372.538a4.334,4.334,0,0,0-4.539-3.094H350.491c-2.046,0-3.337.921-2.889,2.992l5.6,25.391H340.736a1.176,1.176,0,1,0,0,2.352h90.9a2.672,2.672,0,0,0,2.557-3.26Z" transform="translate(-298.393 -330.063)" fill="#fda929"/>
        <path id="Trazado_264305" data-name="Trazado 264305" d="M428.824,372.538a4.334,4.334,0,0,0-4.539-3.094H350.491c-2.046,0-3.337.921-2.889,2.992l5.6,25.391H340.736a1.176,1.176,0,1,0,0,2.352h90.9a2.672,2.672,0,0,0,2.557-3.26Z" transform="translate(-298.393 -330.063)" fill="#fff" opacity="0.4"/>
        <path id="Trazado_264306" data-name="Trazado 264306" d="M339.8,383.91h-4.283l-.537,2.314h4.168Z" transform="translate(-299.668 -326.029)"/>
        <path id="Trazado_264307" data-name="Trazado 264307" d="M320.426,396.347H308.089a.716.716,0,0,1-.729-.729.729.729,0,0,1,.729-.729h12.337a13.488,13.488,0,0,0,10.547-5.05,14.933,14.933,0,0,1,11.7-5.6h2.173a.742.742,0,0,1,.729.729.729.729,0,0,1-.729.729H342.7a13.488,13.488,0,0,0-10.547,5.05A14.945,14.945,0,0,1,320.426,396.347Z" transform="translate(-307.36 -325.938)"/>
      </g>
      <g id="freepik--device-1--inject-27" transform="translate(180.836 317.805)">
        <path id="Trazado_264308" data-name="Trazado 264308" d="M156.78,386.65v5.331c0,2.4,2.9,3.4,5.306,3.4h187.4c2.378,0,5.2-1,5.2-3.4V386.65Z" transform="translate(-156.78 -280.447)" fill="#263238"/>
        <path id="Trazado_264309" data-name="Trazado 264309" d="M156.78,386.65v5.331c0,2.4,2.9,3.4,5.306,3.4h187.4c2.378,0,5.2-1,5.2-3.4V386.65Z" transform="translate(-156.78 -280.447)" fill="#fff" opacity="0.4"/>
        <path id="Trazado_264310" data-name="Trazado 264310" d="M206.72,386.65v5.331c0,2.4,2.851,3.4,5.255,3.4h123.6c2.378,0,5.2-1,5.2-3.4V386.65Z" transform="translate(-142.873 -280.447)" opacity="0.2"/>
        <path id="Trazado_264311" data-name="Trazado 264311" d="M370.124,308.374l-22.31,101.192a7.594,7.594,0,0,1-7.236,5.779H218.7c-3.235,0-5.331-3.03-4.577-6.392l22.284-100.425c.754-3.3,3.976-4.948,7.249-4.948H365.521C368.794,303.593,370.853,305.076,370.124,308.374Z" transform="translate(-140.854 -303.58)" fill="#263238"/>
        <path id="Trazado_264312" data-name="Trazado 264312" d="M369.225,308.374l-22.31,101.192a7.594,7.594,0,0,1-7.236,5.779H221.944c-3.273,0-5.331-3.03-4.6-6.392l22.309-100.425c.729-3.3,3.976-4.948,7.249-4.948H364.623C367.9,303.593,369.954,305.076,369.225,308.374Z" transform="translate(-139.956 -303.58)" fill="#fff" opacity="0.4"/>
        <path id="Trazado_264313" data-name="Trazado 264313" d="M294.667,350.974h0c0,8.668-9.282,15.713-16.1,15.713s-10.842-7.044-8.949-15.713,8.706-15.406,15.342-15.674c-1.943,8.668,2.212,15.674,8.949,15.674A3.988,3.988,0,0,0,294.667,350.974Z" transform="translate(-125.486 -294.747)" opacity="0.2"/>
      </g>
    </g>
  </g>
</svg>
