<svg xmlns="http://www.w3.org/2000/svg" width="1030" height="411" viewBox="0 0 1030 411">
  <g id="Grupo_172988" data-name="Grupo 172988" transform="translate(-285 -4255)">
    <path id="Trazado_264355" data-name="Trazado 264355" d="M0,0H1030V409H0Z" transform="translate(285 4257)" fill="none"/>
    <path id="Trazado_262664" data-name="Trazado 262664" d="M166.061,90.529A81.03,81.03,0,1,1,85.03,9.5a81.03,81.03,0,0,1,81.03,81.03" transform="translate(367 4258.501)" fill="#29398a"/>
    <path id="Trazado_262666" data-name="Trazado 262666" d="M159.992,84.286c-.019-23.689-.65-32.488-21.266-56.933C119.448,4.491,79.48.182,77.789.01a2.077,2.077,0,1,0-.422,4.133c.4.042,39.976,4.3,58.184,25.888,19.655,23.3,20.267,31.1,20.287,54.254h-6.858L157.6,99.221l8.622-14.936Z" transform="translate(394.077 4255)" fill="#29398a"/>
    <path id="Trazado_262667" data-name="Trazado 262667" d="M319.061,176.03a81.03,81.03,0,1,0-81.03,81.03,81.03,81.03,0,0,0,81.03-81.03" transform="translate(445 4292)" fill="#fda929"/>
    <path id="Trazado_262669" data-name="Trazado 262669" d="M312.993,164.8c-.019,23.689-.651,32.488-21.267,56.933-19.278,22.862-59.245,27.171-60.936,27.343a2.077,2.077,0,1,1-.422-4.133c.4-.042,39.975-4.3,58.183-25.888,19.655-23.3,20.269-31.1,20.288-54.254h-6.859l8.625-14.936,8.622,14.936Z" transform="translate(473.003 4312.719)" fill="#fda929"/>
    <path id="Trazado_262670" data-name="Trazado 262670" d="M65.041,174.885v-42.5a1.385,1.385,0,0,0-2.77,0v42.5a4.155,4.155,0,1,0,2.77,0" transform="translate(387.916 4305.453)" fill="#d1d1d1"/>
    <path id="Trazado_262671" data-name="Trazado 262671" d="M206.774,224.749H9.138C4.09,224.749,0,221.416,0,217.3v-36.36c0-4.112,4.09-7.445,9.138-7.445H206.774c5.048,0,9.138,3.333,9.138,7.445V217.3c0,4.112-4.09,7.445-9.138,7.445" transform="translate(345 4321.501)" fill="#29398a"/>
    <path id="Trazado_262715" data-name="Trazado 262715" d="M199.466,224.749H8.815C3.946,224.749,0,221.416,0,217.3v-36.36c0-4.112,3.946-7.445,8.815-7.445H199.466c4.869,0,8.815,3.333,8.815,7.445V217.3c0,4.112-3.946,7.445-8.815,7.445" transform="translate(810.385 4321.501)" fill="#20cb7d"/>
    <path id="Trazado_262672" data-name="Trazado 262672" d="M218.041,260.885v-42.5a1.385,1.385,0,1,0-2.77,0v42.5a4.155,4.155,0,1,0,2.77,0" transform="translate(466.841 4338.574)" fill="#d1d1d1"/>
    <path id="Trazado_262673" data-name="Trazado 262673" d="M320.467,310.749H159.445A7.444,7.444,0,0,1,152,303.3v-36.36a7.444,7.444,0,0,1,7.445-7.445H320.467a7.444,7.444,0,0,1,7.445,7.445V303.3a7.444,7.444,0,0,1-7.445,7.445" transform="translate(444 4354.501)" fill="#fda929"/>
    <path id="Trazado_262674" data-name="Trazado 262674" d="M464.061,90.529A81.03,81.03,0,1,1,383.03,9.5a81.03,81.03,0,0,1,81.03,81.03" transform="translate(531 4258.501)" fill="#20cb7d"/>
    <path id="Trazado_262676" data-name="Trazado 262676" d="M457.993,84.286c-.019-23.689-.651-32.488-21.267-56.933C417.448,4.491,377.481.182,375.788.01a2.077,2.077,0,1,0-.421,4.133c.4.042,39.975,4.3,58.183,25.888,19.655,23.3,20.269,31.1,20.288,54.254h-6.859L455.6,99.221l8.622-14.936Z" transform="translate(558.848 4255)" fill="#20cb7d"/>
    <path id="Trazado_262677" data-name="Trazado 262677" d="M617.061,176.03a81.03,81.03,0,1,0-81.03,81.03,81.03,81.03,0,0,0,81.03-81.03" transform="translate(610 4292)" fill="#29398a"/>
    <path id="Trazado_262678" data-name="Trazado 262678" d="M509.02,122.01a27.01,27.01,0,1,0-27.01,27.01,27.009,27.009,0,0,0,27.01-27.01" transform="translate(610 4292)" fill="#212d6e"/>
    <path id="Trazado_262679" data-name="Trazado 262679" d="M610.993,164.8c-.021,23.689-.651,32.488-21.268,56.933-19.278,22.862-59.246,27.171-60.938,27.343a2.077,2.077,0,0,1-.422-4.133c.4-.042,39.976-4.3,58.184-25.888,19.655-23.3,20.267-31.1,20.288-54.254h-6.859l8.624-14.936,8.624,14.936Z" transform="translate(637.773 4312.719)" fill="#29398a"/>
    <path id="Trazado_262680" data-name="Trazado 262680" d="M363.041,174.885v-42.5a1.385,1.385,0,0,0-2.77,0v42.5a4.155,4.155,0,1,0,2.77,0" transform="translate(552.686 4305.453)" fill="#d1d1d1"/>
    <path id="Trazado_262682" data-name="Trazado 262682" d="M516.041,260.885v-42.5a1.385,1.385,0,1,0-2.77,0v42.5a4.155,4.155,0,1,0,2.77,0" transform="translate(631.611 4338.574)" fill="#d1d1d1"/>
    <path id="Trazado_262683" data-name="Trazado 262683" d="M618.467,310.749H457.445A7.444,7.444,0,0,1,450,303.3v-36.36a7.444,7.444,0,0,1,7.445-7.445H618.467a7.444,7.444,0,0,1,7.445,7.445V303.3a7.444,7.444,0,0,1-7.445,7.445" transform="translate(608 4354.942)" fill="#29398a"/>
    <path id="Trazado_262718" data-name="Trazado 262718" d="M1.719,0V-22.75H9.047a10.78,10.78,0,0,1,5.422,1.367,9.61,9.61,0,0,1,3.758,3.859,11.652,11.652,0,0,1,1.367,5.586v1.047a11.72,11.72,0,0,1-1.32,5.6,9.652,9.652,0,0,1-3.719,3.875A10.543,10.543,0,0,1,9.2,0ZM7.2-18.516v14.3H9.109A4.266,4.266,0,0,0,12.734-5.9,8.231,8.231,0,0,0,14-10.891v-.984a8.164,8.164,0,0,0-1.266-4.969,4.341,4.341,0,0,0-3.687-1.672Z" transform="translate(1081.281 4425.75)" fill="#fff"/>
    <path id="Trazado_264356" data-name="Trazado 264356" d="M-79.346-5.664h-5.527V0H-88.3V-14.219h9.512v2.646h-6.084V-8.3h5.527ZM-71.895,0a3.716,3.716,0,0,1-.312-.947A3.06,3.06,0,0,1-74.746.2a3.749,3.749,0,0,1-2.539-.9A2.875,2.875,0,0,1-78.33-2.979a2.955,2.955,0,0,1,1.27-2.6,6.468,6.468,0,0,1,3.691-.879h1.016v-.559q0-1.462-1.26-1.462a1.03,1.03,0,0,0-1.172,1.158h-3.291a2.95,2.95,0,0,1,1.3-2.487,5.479,5.479,0,0,1,3.325-.956,4.8,4.8,0,0,1,3.193.986,3.429,3.429,0,0,1,1.2,2.705v4.678A4.79,4.79,0,0,0-68.6-.166V0Zm-2.061-2.148a1.836,1.836,0,0,0,1.021-.264,1.653,1.653,0,0,0,.581-.6V-4.7h-.957q-1.719,0-1.719,1.543a.942.942,0,0,0,.3.728A1.1,1.1,0,0,0-73.955-2.148ZM-63.76,0h-3.3V-15h3.3Zm5.5,0h-3.3V-15h3.3Zm1.611-5.381A6.236,6.236,0,0,1-56.035-8.2a4.4,4.4,0,0,1,1.768-1.9,5.323,5.323,0,0,1,2.705-.664,4.858,4.858,0,0,1,3.74,1.47,5.64,5.64,0,0,1,1.367,4v.117a5.472,5.472,0,0,1-1.372,3.921A4.871,4.871,0,0,1-51.543.2a4.927,4.927,0,0,1-3.623-1.353,5.29,5.29,0,0,1-1.475-3.667Zm3.291.205A3.932,3.932,0,0,0-52.9-3.027a1.529,1.529,0,0,0,1.357.684q1.758,0,1.8-2.705v-.332q0-2.842-1.816-2.842-1.65,0-1.787,2.451Zm17.8,2.832a1.464,1.464,0,0,0,1.074-.376,1.379,1.379,0,0,0,.371-1.05h3.086A3.653,3.653,0,0,1-32.271-.918,4.631,4.631,0,0,1-35.479.2,4.689,4.689,0,0,1-39.111-1.25a5.7,5.7,0,0,1-1.328-4v-.137a6.436,6.436,0,0,1,.591-2.827,4.3,4.3,0,0,1,1.7-1.885,5.081,5.081,0,0,1,2.637-.659,4.573,4.573,0,0,1,3.271,1.143,4.053,4.053,0,0,1,1.211,3.1h-3.086a1.807,1.807,0,0,0-.4-1.26,1.382,1.382,0,0,0-1.074-.439q-1.279,0-1.494,1.631a11.507,11.507,0,0,0-.068,1.426,4.52,4.52,0,0,0,.381,2.207A1.319,1.319,0,0,0-35.557-2.344Zm5.508-3.037A6.236,6.236,0,0,1-29.434-8.2a4.4,4.4,0,0,1,1.768-1.9,5.323,5.323,0,0,1,2.705-.664,4.858,4.858,0,0,1,3.74,1.47,5.64,5.64,0,0,1,1.367,4v.117a5.472,5.472,0,0,1-1.372,3.921A4.871,4.871,0,0,1-24.941.2a4.927,4.927,0,0,1-3.623-1.353,5.29,5.29,0,0,1-1.475-3.667Zm3.291.205A3.932,3.932,0,0,0-26.3-3.027a1.529,1.529,0,0,0,1.357.684q1.758,0,1.8-2.705v-.332q0-2.842-1.816-2.842-1.65,0-1.787,2.451Zm11.377-5.391.107,1.24a3.583,3.583,0,0,1,3.018-1.436,3.015,3.015,0,0,1,2.466.986,4.7,4.7,0,0,1,.845,2.969V0h-3.3V-6.67a1.783,1.783,0,0,0-.322-1.177,1.491,1.491,0,0,0-1.172-.376,1.569,1.569,0,0,0-1.436.762V0h-3.291V-10.566Zm12.09-2.627v2.627h1.738v2.285H-3.291v4.834a1.234,1.234,0,0,0,.215.83,1.152,1.152,0,0,0,.85.234,4.828,4.828,0,0,0,.82-.059V-.088A6.074,6.074,0,0,1-3.262.2a3.448,3.448,0,0,1-2.51-.8,3.282,3.282,0,0,1-.811-2.432V-8.281H-7.93v-2.285h1.348v-2.627ZM6.133-7.588,5.049-7.666a1.947,1.947,0,0,0-1.992.977V0H-.234V-10.566H2.852l.107,1.357a2.548,2.548,0,0,1,2.314-1.553,3.209,3.209,0,0,1,.918.117Zm.42,2.207A6.236,6.236,0,0,1,7.168-8.2a4.4,4.4,0,0,1,1.768-1.9,5.323,5.323,0,0,1,2.705-.664,4.858,4.858,0,0,1,3.74,1.47,5.64,5.64,0,0,1,1.367,4v.117a5.472,5.472,0,0,1-1.372,3.921A4.871,4.871,0,0,1,11.66.2,4.927,4.927,0,0,1,8.037-1.157,5.29,5.29,0,0,1,6.563-4.824Zm3.291.205A3.932,3.932,0,0,0,10.3-3.027a1.529,1.529,0,0,0,1.357.684q1.758,0,1.8-2.705v-.332q0-2.842-1.816-2.842-1.65,0-1.787,2.451ZM21.67,0h-3.3V-15h3.3Zm7.979,0a3.716,3.716,0,0,1-.312-.947A3.06,3.06,0,0,1,26.8.2a3.749,3.749,0,0,1-2.539-.9,2.875,2.875,0,0,1-1.045-2.271,2.955,2.955,0,0,1,1.27-2.6,6.468,6.468,0,0,1,3.691-.879h1.016v-.559q0-1.462-1.26-1.462a1.03,1.03,0,0,0-1.172,1.158H23.467a2.95,2.95,0,0,1,1.3-2.487,5.479,5.479,0,0,1,3.325-.956,4.8,4.8,0,0,1,3.193.986,3.429,3.429,0,0,1,1.2,2.705v4.678a4.79,4.79,0,0,0,.449,2.227V0ZM27.588-2.148a1.836,1.836,0,0,0,1.021-.264,1.653,1.653,0,0,0,.581-.6V-4.7h-.957q-1.719,0-1.719,1.543a.942.942,0,0,0,.3.728A1.1,1.1,0,0,0,27.588-2.148ZM33.9-5.361A6.455,6.455,0,0,1,34.98-9.316a3.568,3.568,0,0,1,3.027-1.445,3.035,3.035,0,0,1,2.383,1.113V-15h3.3V0H40.732l-.166-1.133A3.116,3.116,0,0,1,37.988.2,3.562,3.562,0,0,1,35-1.25,6.659,6.659,0,0,1,33.9-5.361Zm3.291.205q0,2.813,1.641,2.813a1.62,1.62,0,0,0,1.563-.918V-7.285a1.576,1.576,0,0,0-1.543-.937q-1.523,0-1.65,2.461Zm7.959-.225A6.236,6.236,0,0,1,45.762-8.2a4.4,4.4,0,0,1,1.768-1.9,5.323,5.323,0,0,1,2.705-.664,4.858,4.858,0,0,1,3.74,1.47,5.64,5.64,0,0,1,1.367,4v.117A5.472,5.472,0,0,1,53.97-1.255,4.871,4.871,0,0,1,50.254.2a4.927,4.927,0,0,1-3.623-1.353,5.29,5.29,0,0,1-1.475-3.667Zm3.291.205A3.932,3.932,0,0,0,48.9-3.027a1.529,1.529,0,0,0,1.357.684q1.758,0,1.8-2.705v-.332q0-2.842-1.816-2.842-1.65,0-1.787,2.451ZM63.184-7.588,62.1-7.666a1.947,1.947,0,0,0-1.992.977V0H56.816V-10.566H59.9l.107,1.357a2.548,2.548,0,0,1,2.314-1.553,3.209,3.209,0,0,1,.918.117ZM69.3.2a5.432,5.432,0,0,1-3.936-1.45,5.008,5.008,0,0,1-1.5-3.774V-5.3a6.489,6.489,0,0,1,.6-2.861,4.395,4.395,0,0,1,1.753-1.919,5.292,5.292,0,0,1,2.734-.679A4.574,4.574,0,0,1,72.461-9.38,5.43,5.43,0,0,1,73.75-5.527v1.279H67.207a2.372,2.372,0,0,0,.771,1.4,2.3,2.3,0,0,0,1.543.508,2.958,2.958,0,0,0,2.441-1.094l1.5,1.777A4.2,4.2,0,0,1,71.724-.308,5.891,5.891,0,0,1,69.3.2Zm-.371-8.418q-1.445,0-1.719,1.914h3.32v-.254a1.63,1.63,0,0,0-.4-1.226A1.593,1.593,0,0,0,68.926-8.223Zm11.68,5.254a.76.76,0,0,0-.439-.674A6.685,6.685,0,0,0,78.5-4.17a7.615,7.615,0,0,1-2.031-.718,3.4,3.4,0,0,1-1.221-1.079,2.577,2.577,0,0,1-.42-1.455,2.92,2.92,0,0,1,1.2-2.4,4.948,4.948,0,0,1,3.145-.942,5.482,5.482,0,0,1,3.359.947,2.962,2.962,0,0,1,1.27,2.49H80.5q0-1.27-1.338-1.27a1.326,1.326,0,0,0-.869.288.892.892,0,0,0-.352.718.819.819,0,0,0,.43.713,4.06,4.06,0,0,0,1.372.449,11.857,11.857,0,0,1,1.655.42,3.007,3.007,0,0,1,2.383,2.939A2.767,2.767,0,0,1,82.5-.713,5.631,5.631,0,0,1,79.17.2a5.747,5.747,0,0,1-2.422-.488,4.05,4.05,0,0,1-1.66-1.328,3.007,3.007,0,0,1-.6-1.768h3.076a1.272,1.272,0,0,0,.488,1.069,2.009,2.009,0,0,0,1.2.337,1.58,1.58,0,0,0,1.011-.273A.875.875,0,0,0,80.605-2.969Z" transform="translate(453 4528)" fill="#fff"/>
    <path id="Trazado_264357" data-name="Trazado 264357" d="M-33.882-6.035h-5.391v3.4h6.367V0H-42.7V-14.219h9.814v2.646h-6.387v3h5.391Zm5.762-4.531V.361a3.836,3.836,0,0,1-1.074,2.891,4.127,4.127,0,0,1-2.969,1.016A7.009,7.009,0,0,1-33.716,4.1V1.611a6.3,6.3,0,0,0,.928.088A1.2,1.2,0,0,0-31.421.342V-10.566ZM-31.665-13.3a1.482,1.482,0,0,1,.508-1.159,1.909,1.909,0,0,1,1.318-.452,1.909,1.909,0,0,1,1.318.452,1.482,1.482,0,0,1,.508,1.159,1.482,1.482,0,0,1-.508,1.159,1.909,1.909,0,0,1-1.318.452,1.909,1.909,0,0,1-1.318-.452A1.482,1.482,0,0,1-31.665-13.3ZM-21.147.2a5.432,5.432,0,0,1-3.936-1.45,5.008,5.008,0,0,1-1.5-3.774V-5.3a6.489,6.489,0,0,1,.6-2.861,4.395,4.395,0,0,1,1.753-1.919,5.292,5.292,0,0,1,2.734-.679A4.574,4.574,0,0,1-17.983-9.38a5.43,5.43,0,0,1,1.289,3.853v1.279h-6.543a2.372,2.372,0,0,0,.771,1.4,2.3,2.3,0,0,0,1.543.508,2.958,2.958,0,0,0,2.441-1.094l1.5,1.777A4.2,4.2,0,0,1-18.721-.308,5.891,5.891,0,0,1-21.147.2Zm-.371-8.418q-1.445,0-1.719,1.914h3.32v-.254a1.63,1.63,0,0,0-.4-1.226A1.593,1.593,0,0,0-21.519-8.223ZM-10.9-2.344A1.464,1.464,0,0,0-9.829-2.72a1.379,1.379,0,0,0,.371-1.05h3.086A3.653,3.653,0,0,1-7.617-.918,4.631,4.631,0,0,1-10.825.2,4.689,4.689,0,0,1-14.458-1.25a5.7,5.7,0,0,1-1.328-4v-.137A6.436,6.436,0,0,1-15.2-8.218a4.3,4.3,0,0,1,1.7-1.885,5.081,5.081,0,0,1,2.637-.659A4.573,4.573,0,0,1-7.583-9.619a4.053,4.053,0,0,1,1.211,3.1H-9.458a1.807,1.807,0,0,0-.4-1.26,1.382,1.382,0,0,0-1.074-.439q-1.279,0-1.494,1.631A11.508,11.508,0,0,0-12.5-5.166a4.52,4.52,0,0,0,.381,2.207A1.319,1.319,0,0,0-10.9-2.344Zm12.217,1.2A3.393,3.393,0,0,1-1.509.2,3.328,3.328,0,0,1-4.141-.815a4.251,4.251,0,0,1-.894-2.905v-6.846h3.291V-3.7A1.183,1.183,0,0,0-.425-2.344a1.72,1.72,0,0,0,1.611-.811v-7.412H4.5V0H1.411Zm9.453-1.2a1.464,1.464,0,0,0,1.074-.376,1.379,1.379,0,0,0,.371-1.05H15.3A3.653,3.653,0,0,1,14.053-.918,4.631,4.631,0,0,1,10.845.2,4.689,4.689,0,0,1,7.212-1.25a5.7,5.7,0,0,1-1.328-4v-.137a6.436,6.436,0,0,1,.591-2.827,4.3,4.3,0,0,1,1.7-1.885,5.081,5.081,0,0,1,2.637-.659,4.573,4.573,0,0,1,3.271,1.143,4.053,4.053,0,0,1,1.211,3.1H12.212a1.807,1.807,0,0,0-.4-1.26,1.382,1.382,0,0,0-1.074-.439q-1.279,0-1.494,1.631a11.508,11.508,0,0,0-.068,1.426,4.52,4.52,0,0,0,.381,2.207A1.319,1.319,0,0,0,10.767-2.344ZM20.161,0h-3.3V-10.566h3.3Zm-3.5-13.3a1.482,1.482,0,0,1,.508-1.159,1.909,1.909,0,0,1,1.318-.452,1.909,1.909,0,0,1,1.318.452,1.482,1.482,0,0,1,.508,1.159,1.482,1.482,0,0,1-.508,1.159,1.909,1.909,0,0,1-1.318.452,1.909,1.909,0,0,1-1.318-.452A1.482,1.482,0,0,1,16.665-13.3Zm5.107,7.92A6.236,6.236,0,0,1,22.388-8.2a4.4,4.4,0,0,1,1.768-1.9,5.323,5.323,0,0,1,2.705-.664,4.858,4.858,0,0,1,3.74,1.47,5.64,5.64,0,0,1,1.367,4v.117A5.472,5.472,0,0,1,30.6-1.255,4.871,4.871,0,0,1,26.88.2a4.927,4.927,0,0,1-3.623-1.353,5.29,5.29,0,0,1-1.475-3.667Zm3.291.205a3.932,3.932,0,0,0,.459,2.148,1.529,1.529,0,0,0,1.357.684q1.758,0,1.8-2.705v-.332q0-2.842-1.816-2.842-1.65,0-1.787,2.451ZM27.31-15h3.477l-2.715,3.066-2.686,0Zm9.131,4.434.107,1.24a3.583,3.583,0,0,1,3.018-1.436,3.015,3.015,0,0,1,2.466.986,4.7,4.7,0,0,1,.845,2.969V0h-3.3V-6.67a1.783,1.783,0,0,0-.322-1.177,1.491,1.491,0,0,0-1.172-.376,1.569,1.569,0,0,0-1.436.762V0H33.354V-10.566Z" transform="translate(683 4647)" fill="#12263f"/>
    <path id="Trazado_264358" data-name="Trazado 264358" d="M-35.43-5.029h-1.855V0h-3.428V-14.219h5.6A6.246,6.246,0,0,1-31.162-13.1a3.8,3.8,0,0,1,1.426,3.17,4.616,4.616,0,0,1-.6,2.458,4.263,4.263,0,0,1-1.88,1.58l2.969,5.741V0H-32.92Zm-1.855-2.637h2.168a1.946,1.946,0,0,0,1.47-.514,1.987,1.987,0,0,0,.493-1.434,2.01,2.01,0,0,0-.5-1.444,1.928,1.928,0,0,0-1.465-.524h-2.168ZM-22.705.2a5.432,5.432,0,0,1-3.936-1.45,5.008,5.008,0,0,1-1.5-3.774V-5.3a6.489,6.489,0,0,1,.6-2.861,4.395,4.395,0,0,1,1.753-1.919,5.292,5.292,0,0,1,2.734-.679A4.574,4.574,0,0,1-19.541-9.38a5.43,5.43,0,0,1,1.289,3.853v1.279h-6.543a2.372,2.372,0,0,0,.771,1.4,2.3,2.3,0,0,0,1.543.508,2.958,2.958,0,0,0,2.441-1.094l1.5,1.777A4.2,4.2,0,0,1-20.278-.308,5.891,5.891,0,0,1-22.705.2Zm-.371-8.418q-1.445,0-1.719,1.914h3.32v-.254a1.63,1.63,0,0,0-.4-1.226A1.593,1.593,0,0,0-23.076-8.223ZM-13.457,0h-3.3V-10.566h3.3Zm-3.5-13.3a1.482,1.482,0,0,1,.508-1.159,1.909,1.909,0,0,1,1.318-.452,1.909,1.909,0,0,1,1.318.452A1.482,1.482,0,0,1-13.3-13.3a1.482,1.482,0,0,1-.508,1.159,1.909,1.909,0,0,1-1.318.452,1.909,1.909,0,0,1-1.318-.452A1.482,1.482,0,0,1-16.953-13.3Zm8.545,2.734.107,1.24a3.583,3.583,0,0,1,3.018-1.436,3.015,3.015,0,0,1,2.466.986,4.7,4.7,0,0,1,.845,2.969V0h-3.3V-6.67A1.783,1.783,0,0,0-5.6-7.847a1.491,1.491,0,0,0-1.172-.376A1.569,1.569,0,0,0-8.2-7.461V0h-3.291V-10.566ZM3.32,0H.02V-10.566h3.3Zm-3.5-13.3A1.482,1.482,0,0,1,.332-14.46a1.909,1.909,0,0,1,1.318-.452,1.909,1.909,0,0,1,1.318.452A1.482,1.482,0,0,1,3.477-13.3a1.482,1.482,0,0,1-.508,1.159,1.909,1.909,0,0,1-1.318.452,1.909,1.909,0,0,1-1.318-.452A1.482,1.482,0,0,1-.176-13.3ZM9.814-2.344a1.464,1.464,0,0,0,1.074-.376,1.379,1.379,0,0,0,.371-1.05h3.086A3.653,3.653,0,0,1,13.1-.918,4.631,4.631,0,0,1,9.893.2,4.689,4.689,0,0,1,6.26-1.25a5.7,5.7,0,0,1-1.328-4v-.137a6.436,6.436,0,0,1,.591-2.827,4.3,4.3,0,0,1,1.7-1.885,5.081,5.081,0,0,1,2.637-.659,4.573,4.573,0,0,1,3.271,1.143,4.053,4.053,0,0,1,1.211,3.1H11.26a1.807,1.807,0,0,0-.4-1.26,1.382,1.382,0,0,0-1.074-.439q-1.279,0-1.494,1.631a11.508,11.508,0,0,0-.068,1.426A4.52,4.52,0,0,0,8.6-2.959,1.319,1.319,0,0,0,9.814-2.344ZM19.209,0h-3.3V-10.566h3.3Zm-3.5-13.3a1.482,1.482,0,0,1,.508-1.159,1.909,1.909,0,0,1,1.318-.452,1.909,1.909,0,0,1,1.318.452,1.482,1.482,0,0,1,.508,1.159,1.482,1.482,0,0,1-.508,1.159,1.909,1.909,0,0,1-1.318.452,1.909,1.909,0,0,1-1.318-.452A1.482,1.482,0,0,1,15.713-13.3Zm5.107,7.92A6.236,6.236,0,0,1,21.436-8.2,4.4,4.4,0,0,1,23.2-10.1a5.323,5.323,0,0,1,2.705-.664,4.858,4.858,0,0,1,3.74,1.47,5.64,5.64,0,0,1,1.367,4v.117a5.472,5.472,0,0,1-1.372,3.921A4.871,4.871,0,0,1,25.928.2,4.927,4.927,0,0,1,22.3-1.157,5.29,5.29,0,0,1,20.83-4.824Zm3.291.205a3.932,3.932,0,0,0,.459,2.148,1.529,1.529,0,0,0,1.357.684q1.758,0,1.8-2.705v-.332q0-2.842-1.816-2.842-1.65,0-1.787,2.451ZM38-2.969a.76.76,0,0,0-.439-.674,6.685,6.685,0,0,0-1.67-.527,7.615,7.615,0,0,1-2.031-.718,3.4,3.4,0,0,1-1.221-1.079,2.577,2.577,0,0,1-.42-1.455,2.92,2.92,0,0,1,1.2-2.4,4.948,4.948,0,0,1,3.145-.942,5.482,5.482,0,0,1,3.359.947,2.962,2.962,0,0,1,1.27,2.49h-3.3q0-1.27-1.338-1.27a1.326,1.326,0,0,0-.869.288.892.892,0,0,0-.352.718.819.819,0,0,0,.43.713,4.06,4.06,0,0,0,1.372.449,11.857,11.857,0,0,1,1.655.42,3.007,3.007,0,0,1,2.383,2.939A2.767,2.767,0,0,1,39.888-.713,5.632,5.632,0,0,1,36.563.2a5.747,5.747,0,0,1-2.422-.488,4.05,4.05,0,0,1-1.66-1.328,3.007,3.007,0,0,1-.6-1.768h3.076a1.272,1.272,0,0,0,.488,1.069,2.009,2.009,0,0,0,1.2.337,1.58,1.58,0,0,0,1.011-.273A.875.875,0,0,0,38-2.969Z" transform="translate(1146 4647)" fill="#fff"/>
    <path id="Trazado_264359" data-name="Trazado 264359" d="M-87.783-3.779a1.408,1.408,0,0,0-.532-1.172,6.615,6.615,0,0,0-1.87-.869,17.941,17.941,0,0,1-2.187-.869q-2.764-1.357-2.764-3.73a3.345,3.345,0,0,1,.688-2.085A4.453,4.453,0,0,1-92.5-13.911a7.582,7.582,0,0,1,2.832-.5,6.632,6.632,0,0,1,2.749.547,4.352,4.352,0,0,1,1.89,1.558A4.068,4.068,0,0,1-84.355-10h-3.418a1.719,1.719,0,0,0-.532-1.348,2.075,2.075,0,0,0-1.44-.479,2.339,2.339,0,0,0-1.45.405,1.243,1.243,0,0,0-.532,1.03,1.252,1.252,0,0,0,.586.991,7.389,7.389,0,0,0,2.061.918A12.623,12.623,0,0,1-86.66-7.461a4.07,4.07,0,0,1,2.3,3.662,3.472,3.472,0,0,1-1.406,2.93A6.255,6.255,0,0,1-89.619.2a7.653,7.653,0,0,1-3.13-.62,4.719,4.719,0,0,1-2.109-1.7,4.427,4.427,0,0,1-.708-2.485h3.438a2.181,2.181,0,0,0,.591,1.685,2.793,2.793,0,0,0,1.919.542,2.206,2.206,0,0,0,1.343-.366A1.209,1.209,0,0,0-87.783-3.779Zm4.619-1.6A6.236,6.236,0,0,1-82.549-8.2a4.4,4.4,0,0,1,1.768-1.9,5.323,5.323,0,0,1,2.705-.664,4.858,4.858,0,0,1,3.74,1.47,5.64,5.64,0,0,1,1.367,4v.117a5.472,5.472,0,0,1-1.372,3.921A4.871,4.871,0,0,1-78.057.2,4.927,4.927,0,0,1-81.68-1.157a5.29,5.29,0,0,1-1.475-3.667Zm3.291.205a3.932,3.932,0,0,0,.459,2.148,1.529,1.529,0,0,0,1.357.684q1.758,0,1.8-2.705v-.332q0-2.842-1.816-2.842-1.65,0-1.787,2.451Zm18.164-.02A6.44,6.44,0,0,1-62.783-1.2,3.6,3.6,0,0,1-65.811.2a3.122,3.122,0,0,1-2.6-1.279L-68.545,0h-2.949V-15H-68.2v5.283a3.013,3.013,0,0,1,2.373-1.045,3.6,3.6,0,0,1,3.047,1.416,6.473,6.473,0,0,1,1.074,3.984Zm-3.3-.21a4.3,4.3,0,0,0-.405-2.169,1.366,1.366,0,0,0-1.245-.648,1.576,1.576,0,0,0-1.543.848v4.192a1.585,1.585,0,0,0,1.563.838,1.4,1.4,0,0,0,1.475-1.131A8.121,8.121,0,0,0-65.01-5.405Zm11.143-2.183-1.084-.078a1.947,1.947,0,0,0-1.992.977V0h-3.291V-10.566h3.086l.107,1.357a2.548,2.548,0,0,1,2.314-1.553,3.209,3.209,0,0,1,.918.117ZM-47.754.2a5.432,5.432,0,0,1-3.936-1.45,5.008,5.008,0,0,1-1.5-3.774V-5.3a6.489,6.489,0,0,1,.6-2.861,4.395,4.395,0,0,1,1.753-1.919,5.292,5.292,0,0,1,2.734-.679A4.574,4.574,0,0,1-44.59-9.38,5.43,5.43,0,0,1-43.3-5.527v1.279h-6.543a2.372,2.372,0,0,0,.771,1.4,2.3,2.3,0,0,0,1.543.508,2.958,2.958,0,0,0,2.441-1.094l1.5,1.777A4.2,4.2,0,0,1-45.327-.308,5.891,5.891,0,0,1-47.754.2Zm-.371-8.418q-1.445,0-1.719,1.914h3.32v-.254a1.63,1.63,0,0,0-.4-1.226A1.593,1.593,0,0,0-48.125-8.223ZM-37.51-2.344a1.464,1.464,0,0,0,1.074-.376,1.379,1.379,0,0,0,.371-1.05h3.086A3.653,3.653,0,0,1-34.224-.918,4.631,4.631,0,0,1-37.432.2,4.689,4.689,0,0,1-41.064-1.25a5.7,5.7,0,0,1-1.328-4v-.137A6.436,6.436,0,0,1-41.8-8.218,4.3,4.3,0,0,1-40.1-10.1a5.081,5.081,0,0,1,2.637-.659,4.573,4.573,0,0,1,3.271,1.143,4.053,4.053,0,0,1,1.211,3.1h-3.086a1.807,1.807,0,0,0-.4-1.26,1.382,1.382,0,0,0-1.074-.439q-1.279,0-1.494,1.631A11.507,11.507,0,0,0-39.1-5.166a4.52,4.52,0,0,0,.381,2.207A1.319,1.319,0,0,0-37.51-2.344ZM-25.635,0a3.716,3.716,0,0,1-.312-.947A3.06,3.06,0,0,1-28.486.2a3.749,3.749,0,0,1-2.539-.9A2.875,2.875,0,0,1-32.07-2.979a2.955,2.955,0,0,1,1.27-2.6,6.468,6.468,0,0,1,3.691-.879h1.016v-.559q0-1.462-1.26-1.462a1.03,1.03,0,0,0-1.172,1.158h-3.291a2.95,2.95,0,0,1,1.3-2.487,5.479,5.479,0,0,1,3.325-.956,4.8,4.8,0,0,1,3.193.986,3.429,3.429,0,0,1,1.2,2.705v4.678a4.79,4.79,0,0,0,.449,2.227V0ZM-27.7-2.148a1.836,1.836,0,0,0,1.021-.264,1.653,1.653,0,0,0,.581-.6V-4.7h-.957q-1.719,0-1.719,1.543a.942.942,0,0,0,.3.728A1.1,1.1,0,0,0-27.7-2.148ZM-17.5,0h-3.3V-15h3.3Zm7.139.2A5.432,5.432,0,0,1-14.3-1.255a5.008,5.008,0,0,1-1.5-3.774V-5.3a6.489,6.489,0,0,1,.6-2.861,4.395,4.395,0,0,1,1.753-1.919,5.292,5.292,0,0,1,2.734-.679A4.574,4.574,0,0,1-7.2-9.38,5.43,5.43,0,0,1-5.908-5.527v1.279h-6.543a2.372,2.372,0,0,0,.771,1.4,2.3,2.3,0,0,0,1.543.508A2.958,2.958,0,0,0-7.7-3.437l1.5,1.777A4.2,4.2,0,0,1-7.935-.308,5.891,5.891,0,0,1-10.361.2Zm-.371-8.418q-1.445,0-1.719,1.914h3.32v-.254a1.63,1.63,0,0,0-.4-1.226A1.593,1.593,0,0,0-10.732-8.223Zm9.17-2.344.107,1.24a3.583,3.583,0,0,1,3.018-1.436,3.015,3.015,0,0,1,2.466.986,4.7,4.7,0,0,1,.845,2.969V0h-3.3V-6.67A1.783,1.783,0,0,0,1.25-7.847,1.491,1.491,0,0,0,.078-8.223a1.569,1.569,0,0,0-1.436.762V0H-4.648V-10.566Zm12.09-2.627v2.627h1.738v2.285H10.527v4.834a1.234,1.234,0,0,0,.215.83,1.152,1.152,0,0,0,.85.234,4.828,4.828,0,0,0,.82-.059V-.088A6.074,6.074,0,0,1,10.557.2a3.448,3.448,0,0,1-2.51-.8,3.282,3.282,0,0,1-.811-2.432V-8.281H5.889v-2.285H7.236v-2.627ZM19.512,0A3.716,3.716,0,0,1,19.2-.947,3.06,3.06,0,0,1,16.66.2a3.749,3.749,0,0,1-2.539-.9,2.875,2.875,0,0,1-1.045-2.271,2.955,2.955,0,0,1,1.27-2.6,6.468,6.468,0,0,1,3.691-.879h1.016v-.559q0-1.462-1.26-1.462a1.03,1.03,0,0,0-1.172,1.158H13.33a2.95,2.95,0,0,1,1.3-2.487,5.479,5.479,0,0,1,3.325-.956,4.8,4.8,0,0,1,3.193.986,3.429,3.429,0,0,1,1.2,2.705v4.678A4.79,4.79,0,0,0,22.8-.166V0ZM17.451-2.148a1.836,1.836,0,0,0,1.021-.264,1.653,1.653,0,0,0,.581-.6V-4.7H18.1q-1.719,0-1.719,1.543a.942.942,0,0,0,.3.728A1.1,1.1,0,0,0,17.451-2.148Zm9.834-8.418.107,1.24a3.633,3.633,0,0,1,3.018-1.436A2.675,2.675,0,0,1,33.115-9.17a3.516,3.516,0,0,1,3.105-1.592q3.213,0,3.3,3.887V0h-3.3V-6.67a2.014,2.014,0,0,0-.273-1.182,1.164,1.164,0,0,0-1-.371,1.559,1.559,0,0,0-1.455.869l.01.137V0h-3.3V-6.65a2.117,2.117,0,0,0-.264-1.2,1.161,1.161,0,0,0-1.006-.371,1.578,1.578,0,0,0-1.445.869V0H24.2V-10.566ZM44.873,0h-3.3V-10.566h3.3Zm-3.5-13.3a1.482,1.482,0,0,1,.508-1.159,1.909,1.909,0,0,1,1.318-.452,1.909,1.909,0,0,1,1.318.452,1.482,1.482,0,0,1,.508,1.159,1.482,1.482,0,0,1-.508,1.159,1.909,1.909,0,0,1-1.318.452,1.909,1.909,0,0,1-1.318-.452A1.482,1.482,0,0,1,41.377-13.3ZM52.012.2a5.432,5.432,0,0,1-3.936-1.45,5.008,5.008,0,0,1-1.5-3.774V-5.3a6.489,6.489,0,0,1,.6-2.861,4.395,4.395,0,0,1,1.753-1.919,5.292,5.292,0,0,1,2.734-.679A4.574,4.574,0,0,1,55.176-9.38a5.43,5.43,0,0,1,1.289,3.853v1.279H49.922a2.372,2.372,0,0,0,.771,1.4,2.3,2.3,0,0,0,1.543.508,2.958,2.958,0,0,0,2.441-1.094l1.5,1.777A4.2,4.2,0,0,1,54.438-.308,5.891,5.891,0,0,1,52.012.2Zm-.371-8.418q-1.445,0-1.719,1.914h3.32v-.254a1.63,1.63,0,0,0-.4-1.226A1.593,1.593,0,0,0,51.641-8.223Zm9.17-2.344.107,1.24a3.583,3.583,0,0,1,3.018-1.436,3.015,3.015,0,0,1,2.466.986,4.7,4.7,0,0,1,.845,2.969V0h-3.3V-6.67a1.783,1.783,0,0,0-.322-1.177,1.491,1.491,0,0,0-1.172-.376,1.569,1.569,0,0,0-1.436.762V0H57.725V-10.566ZM72.9-13.193v2.627h1.738v2.285H72.9v4.834a1.234,1.234,0,0,0,.215.83,1.152,1.152,0,0,0,.85.234,4.828,4.828,0,0,0,.82-.059V-.088A6.074,6.074,0,0,1,72.93.2a3.448,3.448,0,0,1-2.51-.8,3.282,3.282,0,0,1-.811-2.432V-8.281H68.262v-2.285h1.348v-2.627Zm2.324,7.813A6.236,6.236,0,0,1,75.84-8.2a4.4,4.4,0,0,1,1.768-1.9,5.323,5.323,0,0,1,2.705-.664,4.858,4.858,0,0,1,3.74,1.47,5.64,5.64,0,0,1,1.367,4v.117a5.472,5.472,0,0,1-1.372,3.921A4.871,4.871,0,0,1,80.332.2a4.927,4.927,0,0,1-3.623-1.353,5.29,5.29,0,0,1-1.475-3.667Zm3.291.205a3.932,3.932,0,0,0,.459,2.148,1.529,1.529,0,0,0,1.357.684q1.758,0,1.8-2.705v-.332q0-2.842-1.816-2.842-1.65,0-1.787,2.451ZM92.4-2.969a.76.76,0,0,0-.439-.674,6.685,6.685,0,0,0-1.67-.527,7.615,7.615,0,0,1-2.031-.718,3.4,3.4,0,0,1-1.221-1.079,2.577,2.577,0,0,1-.42-1.455,2.92,2.92,0,0,1,1.2-2.4,4.948,4.948,0,0,1,3.145-.942,5.482,5.482,0,0,1,3.359.947,2.962,2.962,0,0,1,1.27,2.49h-3.3q0-1.27-1.338-1.27a1.326,1.326,0,0,0-.869.288.892.892,0,0,0-.352.718.819.819,0,0,0,.43.713,4.06,4.06,0,0,0,1.372.449,11.857,11.857,0,0,1,1.655.42,3.007,3.007,0,0,1,2.383,2.939A2.767,2.767,0,0,1,94.292-.713,5.631,5.631,0,0,1,90.967.2a5.747,5.747,0,0,1-2.422-.488,4.05,4.05,0,0,1-1.66-1.328,3.007,3.007,0,0,1-.6-1.768h3.076a1.272,1.272,0,0,0,.488,1.069,2.009,2.009,0,0,0,1.2.337,1.58,1.58,0,0,0,1.011-.273A.875.875,0,0,0,92.4-2.969Z" transform="translate(916 4528)" fill="#12263f"/>
    <path id="Trazado_262684" data-name="Trazado 262684" d="M167.6,146.855l-6,6q-.706-.324-1.443-.6v-8.482h-14.1v8.484q-.73.27-1.44.6l-6-6-9.972,9.971,6,6q-.327.709-.6,1.44h-8.484v14.1h8.484q.272.73.6,1.44l-6,6,9.972,9.972,6-6q.708.327,1.44.6v8.484h14.1v-8.481q.727-.27,1.44-.6l6,6,9.972-9.972-6-6c.217-.472.417-.953.6-1.44h8.483v-14.1h-8.483q-.272-.73-.6-1.44l6-6Zm2.444,20.339h7.683v8.249h-7.683A20.273,20.273,0,0,1,168,180.374l5.435,5.435-5.833,5.833-5.435-5.435a20.267,20.267,0,0,1-4.931,2.051v7.679h-8.249v-7.684a20.169,20.169,0,0,1-4.931-2.046l-5.435,5.436-5.833-5.834,5.435-5.435a20.258,20.258,0,0,1-2.046-4.931h-7.683v-8.249h7.683a20.186,20.186,0,0,1,2.046-4.931l-5.435-5.435,5.833-5.832,5.435,5.435a20.232,20.232,0,0,1,4.931-2.046V146.7h8.249v7.683a20.283,20.283,0,0,1,4.936,2.041l5.431-5.43,5.833,5.832L168,162.262a20.261,20.261,0,0,1,2.046,4.931Zm0,0" transform="translate(993.251 4296.722)" fill="#fff"/>
    <path id="Trazado_262685" data-name="Trazado 262685" d="M256.1,265.9a8.425,8.425,0,1,0,8.425,8.425A8.435,8.435,0,0,0,256.1,265.9Zm0,13.924a5.5,5.5,0,1,1,5.5-5.5A5.506,5.506,0,0,1,256.1,279.822Zm0,0" transform="translate(890.255 4193.717)" fill="#fff"/>
    <path id="Trazado_262686" data-name="Trazado 262686" d="M210.127,319.711H207.2a14.779,14.779,0,0,0,14.763,14.763v-2.927A11.849,11.849,0,0,1,210.127,319.711Zm0,0" transform="translate(924.395 4148.329)" fill="#fff"/>
    <path id="Trazado_262687" data-name="Trazado 262687" d="M18.914,72.816A35.657,35.657,0,0,1,55.2,15.518l-2.385,4.2L75.4,19.559,63.974.083l-2.83,4.98A47.367,47.367,0,0,0,9.905,80.294l.935,1.126,9.009-7.477Zm-7.672,4.466A44.44,44.44,0,0,1,61.323,8.218l1.158.414,1.533-2.7,6.293,10.731-12.441.085,1.7-2.991-1.735-.54A38.585,38.585,0,0,0,15.748,73.541Zm0,0" transform="translate(1099.997 4417.917)" fill="#fff"/>
    <path id="Trazado_262688" data-name="Trazado 262688" d="M181.915,120.647l-.932-1.127-9.023,7.459.932,1.128a35.657,35.657,0,0,1-36.264,57.262l2.376-4.2-22.578.2,11.46,19.454,2.82-4.985a47.367,47.367,0,0,0,51.209-75.189Zm-5.1,61.574a44.389,44.389,0,0,1-46.3,10.46l-1.159-.412-1.526,2.7-6.315-10.719,12.441-.111-1.695,3a40.421,40.421,0,0,0,13.135,2.247,38.578,38.578,0,0,0,30.658-61.993l4.515-3.732a44.42,44.42,0,0,1-3.756,58.565Zm0,0" transform="translate(1000.958 4317.179)" fill="#fff"/>
    <path id="Trazado_262689" data-name="Trazado 262689" d="M316.263,240.18h-2.927a11.859,11.859,0,0,0-3.913-8.793l1.96-2.173A14.788,14.788,0,0,1,316.263,240.18Zm-8.211-9.857a11.813,11.813,0,0,0-2.308-1.194l1.051-2.732a14.76,14.76,0,0,1,2.88,1.49Zm-3.968-1.695a11.913,11.913,0,0,0-2.584-.283v-2.927a14.835,14.835,0,0,1,3.22.353Zm0,0" transform="translate(844.857 4227.859)" fill="#fff"/>
    <path id="Trazado_262690" data-name="Trazado 262690" d="M37.5,183.3a42.443,42.443,0,0,1-1.373-45.577l2.513,1.5a39.518,39.518,0,0,0,1.281,42.433Zm2.142-45.67-2.439-1.617c.555-.837,1.147-1.666,1.762-2.465l2.319,1.786c-.573.743-1.125,1.515-1.641,2.3Zm2.825-3.759-2.233-1.893c.651-.767,1.337-1.521,2.041-2.24l2.093,2.046c-.656.67-1.3,1.372-1.9,2.087Zm0,0" transform="translate(1073.72 4308.557)" fill="#fff"/>
    <path id="Trazado_262691" data-name="Trazado 262691" d="M486.617,218.428l-2.07-2.069a40.443,40.443,0,0,0,9.2-43.117l2.734-1.044a43.359,43.359,0,0,1-9.865,46.23Zm6.419-46.931c-.375-.859-.785-1.717-1.218-2.548l2.6-1.353c.465.891.9,1.811,1.305,2.732Zm-2.126-4.2c-.471-.811-.978-1.615-1.5-2.39l2.42-1.645c.565.832,1.109,1.693,1.614,2.562Zm0,0" transform="translate(690.467 4280.282)" fill="#fff"/>
    <path id="Trazado_262692" data-name="Trazado 262692" d="M100,53.226a14.571,14.571,0,0,0-6.452-12.067V8.065a8.065,8.065,0,0,0-16.129,0v9.827A46.773,46.773,0,0,0,0,53.226,46.775,46.775,0,0,0,75.374,90.238a47.105,47.105,0,0,0,16.3-23.874A14.554,14.554,0,0,0,100,53.226Zm-26.879-7.6a27.469,27.469,0,0,0-26.347-19.82H45.161v9.677h3.226v-6.4a24.025,24.025,0,0,1,6.135,1.22l-2.449,5.911,2.98,1.234L57.5,31.545a24.288,24.288,0,0,1,5.194,3.48L58.179,39.54l2.281,2.281,4.515-4.515A24.281,24.281,0,0,1,68.456,42.5l-5.907,2.447,1.234,2.98,5.911-2.448a24.031,24.031,0,0,1,1.219,6.135h-6.4v3.226h6.4a24.031,24.031,0,0,1-1.219,6.135l-5.911-2.448-1.234,2.98,5.907,2.447a24.277,24.277,0,0,1-3.481,5.193L60.46,64.631l-2.281,2.281,4.515,4.515a24.29,24.29,0,0,1-5.194,3.48L55.054,69l-2.98,1.234,2.449,5.911a24.032,24.032,0,0,1-6.135,1.22v-6.4H45.161v9.677h1.613a27.468,27.468,0,0,0,26.35-19.83,14.723,14.723,0,0,0,2.149,2.7,14.531,14.531,0,0,0,5.916,3.576,37.108,37.108,0,1,1-3.77-34.765v8.833a14.527,14.527,0,0,0-4.3,4.468ZM46.774,96.774A43.548,43.548,0,1,1,77.419,22.294v4.727a40.317,40.317,0,1,0,7,40.679c.284.021.568.036.855.04l.215,0a14.673,14.673,0,0,0,2.426-.2A43.654,43.654,0,0,1,46.774,96.774ZM85.317,64.515A11.289,11.289,0,0,1,79.84,43.449l.805-.466V8.065a4.839,4.839,0,0,1,9.678,0V9.678H83.871V12.9h6.452v3.226H87.1v3.226h3.226v3.226H83.871v3.226h6.452v3.226H87.1v3.226h3.226V42.983l.805.466a11.333,11.333,0,0,1,5.647,9.777A11.29,11.29,0,0,1,85.317,64.515Z" transform="translate(864 4299)" fill="#12263f"/>
    <path id="Trazado_262693" data-name="Trazado 262693" d="M412.248,194.352v-9.84h-3.226v9.84a8.065,8.065,0,1,0,3.226,0Zm-1.613,12.741a4.839,4.839,0,1,1,4.839-4.839A4.844,4.844,0,0,1,410.636,207.093Z" transform="translate(538.848 4149.972)" fill="#12263f"/>
    <path id="Trazado_262694" data-name="Trazado 262694" d="M78.386,218.06a11.29,11.29,0,1,0,10.2,16.129h15.607a4.839,4.839,0,1,0,0-9.678H88.585A11.312,11.312,0,0,0,78.386,218.06Zm0,19.355a8.065,8.065,0,1,1,6.45-12.9h-6.45a4.839,4.839,0,0,0,0,9.678h6.45A8.079,8.079,0,0,1,78.386,237.415Zm27.419-8.065a1.615,1.615,0,0,1-1.613,1.613H78.386a1.613,1.613,0,1,1,0-3.226h25.807A1.615,1.615,0,0,1,105.805,229.35Z" transform="translate(809.808 4122.875)" fill="#12263f"/>
    <path id="rect820" d="M12.5,0a6.274,6.274,0,0,0-6.25,6.253V32.279A8.741,8.741,0,0,0,1.511,36.02,10.877,10.877,0,0,0,0,41.65v13.3c0,2.766,1.255,6.166,2.432,9.47.589,1.652,1.17,3.253,1.593,4.59a13.345,13.345,0,0,1,.656,2.859v5.905a4.675,4.675,0,0,0-1.556,3.473V95.3A4.717,4.717,0,0,0,7.809,100H29.691a4.715,4.715,0,0,0,4.681-4.7V81.244A4.7,4.7,0,0,0,31.7,77.02c.266-1.068.811-2.536,1.419-4.242a27.812,27.812,0,0,0,1.7-7.15H63.885L71.2,80.261a4.7,4.7,0,0,0-2.444,4.108V95.3a4.715,4.715,0,0,0,4.681,4.7H95.3a4.728,4.728,0,0,0,4.7-4.7V84.369a4.713,4.713,0,0,0-2.921-4.33A26.784,26.784,0,0,1,98.3,77,16.076,16.076,0,0,0,100,70.31V6.253A6.276,6.276,0,0,0,93.747,0Zm0,3.125H93.747a3.087,3.087,0,0,1,3.125,3.128V51.831a4.339,4.339,0,0,0-1.569-.275,4.092,4.092,0,0,0-1.556.284V10.934a4.7,4.7,0,0,0-4.681-4.681H17.184A4.7,4.7,0,0,0,12.5,10.934V38.074c-.1-.041-.191-.086-.287-.125a5.036,5.036,0,0,0-2.838-.336V6.253A3.087,3.087,0,0,1,12.5,3.125Zm3.125,37.79V10.934a1.516,1.516,0,0,1,1.556-1.556H89.066a1.516,1.516,0,0,1,1.556,1.556V50.281A4.143,4.143,0,0,0,89.066,50a4.514,4.514,0,0,0-2.316.6,4.646,4.646,0,0,0-3.937-2.17,4.966,4.966,0,0,0-1.569.272V42.193h4.672a1.564,1.564,0,0,0,0-3.128H81.244a4.689,4.689,0,1,0-9.378,0H57.806a1.564,1.564,0,0,0,0,3.128H71.866V56.665l-1.843-3.192a5.487,5.487,0,0,0-7.465-2.008,5.418,5.418,0,0,0-2.673,4.785H19.611c-.72-.789-1.372-1.43-1.8-1.95-.487-.591-.626-.91-.626-1.172V46.4a10.772,10.772,0,0,0-1.556-5.485ZM76.562,12.5a4.715,4.715,0,0,0-4.7,4.681H57.806a1.564,1.564,0,0,0,0,3.128H71.866a4.689,4.689,0,0,0,9.378,0h4.694a1.564,1.564,0,0,0,0-3.128H81.244A4.7,4.7,0,0,0,76.562,12.5Zm0,3.125a1.516,1.516,0,0,1,1.556,1.556v3.128a1.564,1.564,0,1,1-3.128,0V17.184A1.529,1.529,0,0,1,76.562,15.628ZM35.941,17.184A17.209,17.209,0,0,0,18.756,34.372v6.25a1.563,1.563,0,0,0,1.556,1.572H51.553a1.563,1.563,0,0,0,1.572-1.572v-6.25A17.209,17.209,0,0,0,35.941,17.184ZM34.372,20.4v1.483a1.563,1.563,0,0,0,3.125,0V20.4a13.991,13.991,0,0,1,7.224,2.979l-1.053,1.053a1.567,1.567,0,0,0,2.216,2.216l1.053-1.053a13.985,13.985,0,0,1,2.975,7.224H48.444a1.563,1.563,0,1,0,0,3.125H50v3.125h-7.8a6.222,6.222,0,0,0-1.532-4.083l2.628-2.628a1.558,1.558,0,1,0-2.2-2.2l-3.046,3.03a6.183,6.183,0,0,0-2.1-.366,6.274,6.274,0,0,0-6.25,6.25H21.881V35.94h1.556a1.563,1.563,0,0,0,0-3.125H21.967a13.99,13.99,0,0,1,2.979-7.224L26,26.645a1.562,1.562,0,0,0,2.2-2.216l-1.047-1.047A13.988,13.988,0,0,1,34.372,20.4Zm29.684,3.04a4.7,4.7,0,0,0-4.681,4.681H57.806a1.564,1.564,0,0,0,0,3.128h1.569a4.689,4.689,0,1,0,9.378,0H85.937a1.564,1.564,0,0,0,0-3.128H68.753A4.715,4.715,0,0,0,64.056,23.437Zm0,3.125a1.529,1.529,0,0,1,1.572,1.556v3.128a1.564,1.564,0,1,1-3.128,0V28.119A1.516,1.516,0,0,1,64.056,26.562Zm-57.8,9.082v17.49a1.563,1.563,0,0,0,3.125,0V41.73c0-.751.17-.858.369-.967a1.612,1.612,0,0,1,1.291.079c1.256.51,2.918,2.223,3.021,5.627v6.656A5.008,5.008,0,0,0,15.4,56.3c.682.827,1.455,1.549,2.179,2.365a9.52,9.52,0,0,1,2.734,6.967,1.563,1.563,0,0,0,3.125,0h8.237a25.309,25.309,0,0,1-1.5,6.1,31.938,31.938,0,0,0-1.337,4.834H7.809v-4.7a12.886,12.886,0,0,0-.8-3.806c-.455-1.438-1.056-3.045-1.639-4.681-1.166-3.273-2.249-6.768-2.249-8.432V41.65a8.022,8.022,0,0,1,1.05-4.013,5.274,5.274,0,0,1,2.078-1.993Zm29.688.3a3.1,3.1,0,0,1,3.125,3.125h-6.25A3.1,3.1,0,0,1,35.941,35.94Zm42.178,3.125V59.375a1.563,1.563,0,0,0,3.125,0v-6.25a1.563,1.563,0,1,1,3.125,0v6.25a1.563,1.563,0,0,0,3.125,0V54.681a1.564,1.564,0,0,1,3.128,0v4.694a1.563,1.563,0,0,0,3.125,0V56.25a1.563,1.563,0,1,1,3.125,0V70.309a13.089,13.089,0,0,1-1.428,5.42,20.286,20.286,0,0,0-1.526,3.958H74.4L63.309,57.461a2.377,2.377,0,0,1,.806-3.29,2.311,2.311,0,0,1,3.207.854l4.764,8.246a1.563,1.563,0,0,0,2.905-.772c0-7.808,0-15.634,0-23.434a1.564,1.564,0,1,1,3.128,0ZM21.893,59.375h38.87L62.323,62.5H23.08a12.573,12.573,0,0,0-1.187-3.125ZM7.809,79.687H29.69a1.516,1.516,0,0,1,1.556,1.556V95.3a1.526,1.526,0,0,1-1.556,1.569H7.809A1.526,1.526,0,0,1,6.253,95.3V81.244a1.516,1.516,0,0,1,1.556-1.556Zm65.625,3.125H95.3a1.526,1.526,0,0,1,1.569,1.556V95.3A1.536,1.536,0,0,1,95.3,96.872H73.434A1.536,1.536,0,0,1,71.866,95.3V84.369A1.526,1.526,0,0,1,73.434,82.812Z" transform="translate(402 4299)" fill="#fff"/>
    <path id="Trazado_262695" data-name="Trazado 262695" d="M17.9,14.038l2.063,6.19h7.615V17H22.292L17.9,3.838,12.765,19.251,10.835,15.39H5v3.226H8.842l4.523,9.042Z" transform="translate(634.452 4418.739)" fill="#12263f"/>
    <path id="Trazado_262696" data-name="Trazado 262696" d="M92.935,76.806A8.074,8.074,0,0,0,101,68.742V26.806a8.073,8.073,0,0,0-6.526-7.91,17.729,17.729,0,0,0-35.327-.155H36.484A17.742,17.742,0,1,0,8.039,32.887a11.252,11.252,0,0,0-3.813,8.435v9.153A15.738,15.738,0,0,0,13.9,65.015v4.529A18.9,18.9,0,0,0,4.226,86.018V101H41.09v-.037A13.261,13.261,0,0,0,45.919,99.8l13.123-5.965a5.5,5.5,0,0,0,1.381-.9h6.706a4.832,4.832,0,0,0,4.542-3.226h24.49a4.839,4.839,0,0,0,0-9.677H86.484a1.613,1.613,0,0,1-1.613-1.613V76.806Zm0-3.226H37.271a19,19,0,0,0-10.465-6.073V65.137a6.739,6.739,0,0,0,2.2-1.234H97.774v4.839A4.845,4.845,0,0,1,92.935,73.581ZM63.9,80.032H61.058a10.969,10.969,0,0,0-8.445,3.994V76.806h12.9V80.2A8.057,8.057,0,0,0,63.9,80.032ZM42.635,89.1l-.823-5.755a18.686,18.686,0,0,0-2.231-6.54h9.8v9.226ZM21.352,42.934,22.519,40.6a1.6,1.6,0,0,1,1.444-.892h9.3a1.613,1.613,0,1,1,0,3.226Zm55.455-37.1A14.516,14.516,0,1,1,62.29,20.355,14.533,14.533,0,0,1,76.806,5.839ZM59.147,21.968a17.736,17.736,0,0,0,35.3.266,4.828,4.828,0,0,1,3.327,4.573V60.677H31.123a6.686,6.686,0,0,0,.271-2.584L30.2,46.16h3.058a4.839,4.839,0,0,0,0-9.677H29.869A8.007,8.007,0,0,0,28.555,33.5a17.609,17.609,0,0,0,7.6-11.529ZM4.226,18.742A14.516,14.516,0,1,1,26.126,31.2a7.989,7.989,0,0,0-4.156-1.171H15.516A11.22,11.22,0,0,0,11,30.984,14.522,14.522,0,0,1,4.226,18.742ZM7.452,41.323a8.074,8.074,0,0,1,8.065-8.065h6.453a4.841,4.841,0,0,1,4.56,3.224H23.961a4.814,4.814,0,0,0-4.329,2.674l-1.889,3.777H7.452Zm0,9.153V46.16h4.421a7.392,7.392,0,0,0-1.2,4.034,7.505,7.505,0,0,0,2.184,5.271L13.9,56.506v4.908A12.509,12.509,0,0,1,7.452,50.476Zm7.69,2.708a4.259,4.259,0,0,1-1.239-2.99,4.2,4.2,0,0,1,1.239-2.99l1.044-1.044H26.96l1.226,12.258a3.508,3.508,0,0,1-1.015,2.842,3.552,3.552,0,0,1-2.492,1.032H20.355v3.226h3.226v1.634c-.156,0-.31-.023-.466-.023a18.765,18.765,0,0,0-5.985.989V55.171ZM44.584,96.866a10.138,10.138,0,0,1-13.9-6.318L28.353,82.8l-3.09.926,2.326,7.753a13.3,13.3,0,0,0,4.127,6.3H7.452V86.018A15.662,15.662,0,0,1,38.618,83.8l.956,6.689-2.145.976L38.765,94.4l9.55-4.342L50.2,94.31ZM57.708,90.9l-4.566,2.076-1.889-4.25,4.481-2.037a2.417,2.417,0,0,1,1.018-.2,2.311,2.311,0,0,1,.956,4.416Zm9.421-1.19H62.206a5.368,5.368,0,0,0,.084-.913,5.517,5.517,0,0,0-3.574-5.152,7.59,7.59,0,0,1,2.342-.387H63.9A4.845,4.845,0,0,1,68.742,88.1a1.613,1.613,0,0,1-1.613,1.613Zm19.355-6.452h9.677a1.613,1.613,0,1,1,0,3.226H71.8a8.045,8.045,0,0,0-3.063-4.8V76.806h12.9v1.613a4.845,4.845,0,0,0,4.839,4.839Z" transform="translate(632 4417)" fill="#12263f"/>
    <path id="Trazado_262697" data-name="Trazado 262697" d="M57,42h3.226v3.226H57Z" transform="translate(666.323 4442.129)" fill="#12263f"/>
    <path id="Trazado_262698" data-name="Trazado 262698" d="M49,42h3.226v3.226H49Z" transform="translate(661.419 4442.129)" fill="#12263f"/>
    <path id="Trazado_262699" data-name="Trazado 262699" d="M53,42h3.226v3.226H53Z" transform="translate(663.871 4442.129)" fill="#12263f"/>
    <path id="Trazado_262700" data-name="Trazado 262700" d="M42,8h3.226v3.226H42Z" transform="translate(657.129 4421.291)" fill="#12263f"/>
    <path id="Trazado_262701" data-name="Trazado 262701" d="M46,8H58.9v3.226H46Z" transform="translate(659.581 4421.291)" fill="#12263f"/>
    <path id="Trazado_262702" data-name="Trazado 262702" d="M42,12h3.226v3.226H42Z" transform="translate(657.129 4423.742)" fill="#12263f"/>
    <path id="Trazado_262703" data-name="Trazado 262703" d="M46,12H58.9v3.226H46Z" transform="translate(659.581 4423.742)" fill="#12263f"/>
    <path id="Trazado_262704" data-name="Trazado 262704" d="M42,16h3.226v3.226H42Z" transform="translate(657.129 4426.193)" fill="#12263f"/>
    <path id="Trazado_262705" data-name="Trazado 262705" d="M46,16H58.9v3.226H46Z" transform="translate(659.581 4426.193)" fill="#12263f"/>
    <path id="Trazado_262706" data-name="Trazado 262706" d="M42.129,28H26V40.9H42.129ZM38.9,37.677H29.226V31.226H38.9Z" transform="translate(647.323 4433.548)" fill="#12263f"/>
    <path id="Trazado_262707" data-name="Trazado 262707" d="M26,24H42.129v3.226H26Z" transform="translate(647.323 4431.097)" fill="#12263f"/>
    <path id="Trazado_262708" data-name="Trazado 262708" d="M26,20H42.129v3.226H26Z" transform="translate(647.323 4428.645)" fill="#12263f"/>
    <path id="Trazado_262709" data-name="Trazado 262709" d="M26,16H42.129v3.226H26Z" transform="translate(647.323 4426.193)" fill="#12263f"/>
    <path id="Trazado_262710" data-name="Trazado 262710" d="M38,34h3.226v3.226H38Z" transform="translate(654.677 4437.226)" fill="#12263f"/>
    <path id="Trazado_262711" data-name="Trazado 262711" d="M42,34H69.419v3.226H42Z" transform="translate(657.129 4437.226)" fill="#12263f"/>
    <path id="Trazado_262712" data-name="Trazado 262712" d="M38,30H71.871v3.226H38Z" transform="translate(654.677 4434.774)" fill="#12263f"/>
    <path id="Trazado_262713" data-name="Trazado 262713" d="M38,26H71.871v3.226H38Z" transform="translate(654.677 4432.323)" fill="#12263f"/>
    <path id="Trazado_262665" data-name="Trazado 262665" d="M58.02,114.509A27.01,27.01,0,1,1,31.01,87.5a27.009,27.009,0,0,1,27.01,27.01" transform="translate(366.541 4288.699)" fill="#212d6e"/>
    <path id="Trazado_262714" data-name="Trazado 262714" d="M14.641-4.25H7.125L5.813,0H-.047L8.3-22.75h5.156L21.859,0H15.969Zm-6.2-4.234h4.891l-2.453-7.891Z" transform="translate(386.645 4414.583)" fill="#fff"/>
    <path id="Trazado_262668" data-name="Trazado 262668" d="M211.02,122.01a27.01,27.01,0,1,0-27.01,27.01,27.009,27.009,0,0,0,27.01-27.01" transform="translate(445.466 4291.588)" fill="#cc8821"/>
    <path id="Trazado_262716" data-name="Trazado 262716" d="M1.719,0V-22.75H9.891q4.391,0,6.68,1.609a5.355,5.355,0,0,1,2.289,4.672,5.413,5.413,0,0,1-.812,3.016,4.735,4.735,0,0,1-2.391,1.844,4.8,4.8,0,0,1,2.734,1.75,5.088,5.088,0,0,1,.953,3.125,6.024,6.024,0,0,1-2.117,5.023Q15.109-.031,10.953,0ZM7.2-9.672v5.453H10.8a3.418,3.418,0,0,0,2.281-.68,2.379,2.379,0,0,0,.8-1.914,2.522,2.522,0,0,0-2.828-2.859Zm0-3.594h2.859a4.062,4.062,0,0,0,2.563-.658,2.335,2.335,0,0,0,.766-1.9,2.452,2.452,0,0,0-.828-2.077,4.433,4.433,0,0,0-2.672-.635H7.2Z" transform="translate(618.945 4425.958)" fill="#fff"/>
    <path id="Trazado_262675" data-name="Trazado 262675" d="M356.02,114.509A27.01,27.01,0,1,1,329.01,87.5a27.009,27.009,0,0,1,27.01,27.01" transform="translate(531 4288.501)" fill="#1bab69"/>
    <path id="Trazado_262717" data-name="Trazado 262717" d="M20.125-7.7a8.308,8.308,0,0,1-1.281,4.2,7.733,7.733,0,0,1-3.289,2.82,11.2,11.2,0,0,1-4.836,1A8.934,8.934,0,0,1,3.656-2.609q-2.578-2.922-2.578-8.25v-1.125a13.771,13.771,0,0,1,1.164-5.852,8.82,8.82,0,0,1,3.352-3.875,9.351,9.351,0,0,1,5.063-1.367,9.806,9.806,0,0,1,6.656,2.18,8.612,8.612,0,0,1,2.859,6.008H14.7a4.075,4.075,0,0,0-1.047-2.984,4.306,4.306,0,0,0-3-.906,3.276,3.276,0,0,0-3,1.531,9.841,9.841,0,0,0-1,4.891v1.609a10.89,10.89,0,0,0,.914,5.2,3.345,3.345,0,0,0,3.148,1.563,4.211,4.211,0,0,0,2.891-.891A3.78,3.78,0,0,0,14.672-7.7Z" transform="translate(848.922 4414.078)" fill="#fff"/>
  </g>
</svg>
