<svg xmlns="http://www.w3.org/2000/svg" width="75.326" height="67.379" viewBox="0 0 75.326 67.379">
  <g id="Grupo_172989" data-name="Grupo 172989" transform="translate(-303.193 -4777)">
    <path id="Trazado_200681" data-name="Trazado 200681" d="M234.951,196A12.947,12.947,0,1,0,247.9,208.947,12.961,12.961,0,0,0,234.951,196Zm0,22.951a10,10,0,1,1,10-10A10.015,10.015,0,0,1,234.951,218.951Z" transform="translate(113.851 4605.716)" fill="#fff"/>
    <path id="Trazado_200682" data-name="Trazado 200682" d="M301.475,239a1.471,1.471,0,0,0,0,2.942,3.682,3.682,0,0,1,3.677,3.677,1.471,1.471,0,1,0,2.942,0A6.627,6.627,0,0,0,301.475,239Z" transform="translate(47.326 4569.039)" fill="#fff"/>
    <path id="Trazado_200683" data-name="Trazado 200683" d="M45.54,98.792a1.471,1.471,0,1,0-2.613,1.353l3.96,7.65a1.471,1.471,0,0,0,2.633-.04l2.4-4.992,2.6,5.032a1.473,1.473,0,0,0,1.307.795h.022a1.473,1.473,0,0,0,1.3-.834l3.674-7.65a1.471,1.471,0,1,0-2.652-1.273l-2.4,4.992-2.6-5.032a1.471,1.471,0,0,0-2.633.04l-2.4,4.992Z" transform="translate(266.723 4689.301)" fill="#fff"/>
    <path id="Trazado_200684" data-name="Trazado 200684" d="M117.459,30.942a1.473,1.473,0,1,0-1.04-.431A1.482,1.482,0,0,0,117.459,30.942Z" transform="translate(204.27 4749)" fill="#fff"/>
    <path id="Trazado_200685" data-name="Trazado 200685" d="M75.326,53.3V33.885A5.892,5.892,0,0,0,69.441,28H24.714a1.471,1.471,0,1,0,0,2.942H69.441a2.946,2.946,0,0,1,2.942,2.942V53.3a2.946,2.946,0,0,1-2.942,2.942H62.379c-.043,0-.084,0-.125.006a19.227,19.227,0,0,0-10.342-8.647l2.181-4.541L56.7,48.1A1.47,1.47,0,0,0,58,48.891h.022a1.472,1.472,0,0,0,1.3-.834L63,40.406a1.471,1.471,0,0,0-2.652-1.273l-2.4,4.992-2.6-5.032a1.472,1.472,0,0,0-2.633.04l-2.4,4.992-2.6-5.032A1.472,1.472,0,0,0,45.1,40.446l3.256,6.29a19.153,19.153,0,0,0-7.97.525l3.292-6.855a1.471,1.471,0,0,0-2.652-1.273l-2.4,4.992-2.6-5.032a1.472,1.472,0,0,0-2.633.04L31,44.125l-2.6-5.032a1.471,1.471,0,0,0-2.613,1.353l3.96,7.65a1.471,1.471,0,0,0,2.633-.04l2.4-4.991,2.6,5.031a1.441,1.441,0,0,0,.155.234,19.252,19.252,0,0,0-8.563,7.917H5.885A2.946,2.946,0,0,1,2.942,53.3V33.885a2.946,2.946,0,0,1,2.942-2.942h6.031a1.471,1.471,0,1,0,0-2.942H5.885A5.892,5.892,0,0,0,0,33.885V53.3A5.891,5.891,0,0,0,5.885,59.19H27.611A19.121,19.121,0,0,0,55.133,82.244L66.809,93.92a4.989,4.989,0,0,0,7.055-7.055l-4.588-4.588a1.471,1.471,0,0,0-2.08,2.08l4.588,4.588A2.046,2.046,0,1,1,68.89,91.84L57.6,80.55a19.108,19.108,0,0,0,6-21.36h5.836A5.891,5.891,0,0,0,75.326,53.3ZM45.608,81.846A16.183,16.183,0,1,1,61.791,65.663,16.2,16.2,0,0,1,45.608,81.846Z" transform="translate(303.193 4749)" fill="#fff"/>
    <path id="Trazado_200686" data-name="Trazado 200686" d="M430.521,370.712a1.47,1.47,0,1,0,1.04-.431A1.481,1.481,0,0,0,430.521,370.712Z" transform="translate(-63.622 4457.076)" fill="#fff"/>
  </g>
</svg>
