<svg xmlns="http://www.w3.org/2000/svg" xmlns:xlink="http://www.w3.org/1999/xlink" width="400" height="281" viewBox="0 0 400 281">
  <defs>
    <clipPath id="clip-path">
      <rect id="Rectángulo_293842" data-name="Rectángulo 293842" width="378" height="281" transform="translate(-0.32 0)" fill="#fff" stroke="#707070" stroke-width="1"/>
    </clipPath>
    <linearGradient id="linear-gradient" x1="0.5" x2="0.5" y2="1" gradientUnits="objectBoundingBox">
      <stop offset="0" stop-color="#93eac2"/>
      <stop offset="1" stop-color="#20cb7d"/>
    </linearGradient>
  </defs>
  <g id="Grupo_172977" data-name="Grupo 172977" transform="translate(-285 -956)">
    <g id="Enmascarar_grupo_130585" data-name="Enmascarar grupo 130585" transform="translate(307.32 956)" clip-path="url(#clip-path)">
      <g id="Grupo_150491" data-name="Grupo 150491" transform="translate(-43.953 -16.996)">
        <g id="Grupo_79815" data-name="Grupo 79815" transform="translate(0 0)">
          <g id="Grupo_79776" data-name="Grupo 79776">
            <g id="Grupo_79644" data-name="Grupo 79644" transform="translate(0 0)">
              <path id="Trazado_145968" data-name="Trazado 145968" d="M84.051,0A84.051,84.051,0,1,1,0,84.051,84.051,84.051,0,0,1,84.051,0Z" transform="translate(251.3 129.711)" fill="#c6cbe2" opacity="0.444" style="mix-blend-mode: multiply;isolation: isolate"/>
              <path id="Trazado_145969" data-name="Trazado 145969" d="M57.432,0A57.432,57.432,0,1,1,0,57.432,57.432,57.432,0,0,1,57.432,0Z" transform="translate(46.959 21.319)" opacity="0.6" fill="url(#linear-gradient)" style="mix-blend-mode: multiply;isolation: isolate"/>
              <rect id="Rectángulo_34812" data-name="Rectángulo 34812" width="448.071" height="309.713" fill="none"/>
              <path id="Trazado_145971" data-name="Trazado 145971" d="M36.3,0A36.3,36.3,0,1,1,0,36.3,36.3,36.3,0,0,1,36.3,0Z" transform="translate(62.385 205.812)" fill="#fed9a0" opacity="0.444" style="mix-blend-mode: multiply;isolation: isolate"/>
              <g id="Grupo_78276" data-name="Grupo 78276" transform="translate(282.85 169.896)">
                <g id="Grupo_53306" data-name="Grupo 53306" transform="translate(0)">
                  <path id="Trazado_99200" data-name="Trazado 99200" d="M416.5,51.315a1.143,1.143,0,1,1-1.142-1.091A1.117,1.117,0,0,1,416.5,51.315Z" transform="translate(-414.214 -50.224)" fill="#fff"/>
                  <path id="Trazado_99201" data-name="Trazado 99201" d="M424.943,51.315a1.142,1.142,0,1,1-1.141-1.091A1.117,1.117,0,0,1,424.943,51.315Z" transform="translate(-412.389 -50.224)" fill="#fff"/>
                  <path id="Trazado_99202" data-name="Trazado 99202" d="M433.389,51.315a1.143,1.143,0,1,1-1.141-1.091A1.117,1.117,0,0,1,433.389,51.315Z" transform="translate(-410.563 -50.224)" fill="#fff"/>
                  <path id="Trazado_99203" data-name="Trazado 99203" d="M441.836,51.315a1.142,1.142,0,1,1-1.142-1.091A1.117,1.117,0,0,1,441.836,51.315Z" transform="translate(-408.738 -50.224)" fill="#fff"/>
                  <path id="Trazado_99204" data-name="Trazado 99204" d="M450.282,51.315a1.142,1.142,0,1,1-1.141-1.091A1.117,1.117,0,0,1,450.282,51.315Z" transform="translate(-406.912 -50.224)" fill="#fff"/>
                  <path id="Trazado_99205" data-name="Trazado 99205" d="M458.728,51.315a1.143,1.143,0,1,1-1.141-1.091A1.117,1.117,0,0,1,458.728,51.315Z" transform="translate(-405.087 -50.224)" fill="#fff"/>
                  <path id="Trazado_99206" data-name="Trazado 99206" d="M467.175,51.315a1.143,1.143,0,1,1-1.142-1.091A1.118,1.118,0,0,1,467.175,51.315Z" transform="translate(-403.261 -50.224)" fill="#fff"/>
                  <path id="Trazado_99207" data-name="Trazado 99207" d="M475.621,51.315a1.143,1.143,0,1,1-1.141-1.091A1.117,1.117,0,0,1,475.621,51.315Z" transform="translate(-401.436 -50.224)" fill="#fff"/>
                  <path id="Trazado_99208" data-name="Trazado 99208" d="M484.067,51.315a1.143,1.143,0,1,1-1.141-1.091A1.117,1.117,0,0,1,484.067,51.315Z" transform="translate(-399.61 -50.224)" fill="#fff"/>
                  <path id="Trazado_99209" data-name="Trazado 99209" d="M492.514,51.315a1.142,1.142,0,1,1-1.142-1.091A1.118,1.118,0,0,1,492.514,51.315Z" transform="translate(-397.785 -50.224)" fill="#fff"/>
                  <path id="Trazado_99210" data-name="Trazado 99210" d="M500.96,51.315a1.142,1.142,0,1,1-1.142-1.091A1.117,1.117,0,0,1,500.96,51.315Z" transform="translate(-395.96 -50.224)" fill="#fff"/>
                </g>
                <g id="Grupo_53307" data-name="Grupo 53307" transform="translate(0 8.732)">
                  <path id="Trazado_99211" data-name="Trazado 99211" d="M416.5,58.823a1.143,1.143,0,1,1-1.142-1.091A1.117,1.117,0,0,1,416.5,58.823Z" transform="translate(-414.214 -57.732)" fill="#fff"/>
                  <path id="Trazado_99212" data-name="Trazado 99212" d="M424.943,58.823a1.142,1.142,0,1,1-1.141-1.091A1.117,1.117,0,0,1,424.943,58.823Z" transform="translate(-412.389 -57.732)" fill="#fff"/>
                  <path id="Trazado_99213" data-name="Trazado 99213" d="M433.389,58.823a1.143,1.143,0,1,1-1.141-1.091A1.117,1.117,0,0,1,433.389,58.823Z" transform="translate(-410.563 -57.732)" fill="#fff"/>
                  <path id="Trazado_99214" data-name="Trazado 99214" d="M441.836,58.823a1.142,1.142,0,1,1-1.142-1.091A1.117,1.117,0,0,1,441.836,58.823Z" transform="translate(-408.738 -57.732)" fill="#fff"/>
                  <path id="Trazado_99215" data-name="Trazado 99215" d="M450.282,58.823a1.142,1.142,0,1,1-1.141-1.091A1.117,1.117,0,0,1,450.282,58.823Z" transform="translate(-406.912 -57.732)" fill="#fff"/>
                  <path id="Trazado_99216" data-name="Trazado 99216" d="M458.728,58.823a1.143,1.143,0,1,1-1.141-1.091A1.117,1.117,0,0,1,458.728,58.823Z" transform="translate(-405.087 -57.732)" fill="#fff"/>
                  <path id="Trazado_99217" data-name="Trazado 99217" d="M467.175,58.823a1.143,1.143,0,1,1-1.142-1.091A1.118,1.118,0,0,1,467.175,58.823Z" transform="translate(-403.261 -57.732)" fill="#fff"/>
                  <path id="Trazado_99218" data-name="Trazado 99218" d="M475.621,58.823a1.143,1.143,0,1,1-1.141-1.091A1.117,1.117,0,0,1,475.621,58.823Z" transform="translate(-401.436 -57.732)" fill="#fff"/>
                  <path id="Trazado_99219" data-name="Trazado 99219" d="M484.067,58.823a1.143,1.143,0,1,1-1.141-1.091A1.117,1.117,0,0,1,484.067,58.823Z" transform="translate(-399.61 -57.732)" fill="#fff"/>
                  <path id="Trazado_99220" data-name="Trazado 99220" d="M492.514,58.823a1.142,1.142,0,1,1-1.142-1.091A1.118,1.118,0,0,1,492.514,58.823Z" transform="translate(-397.785 -57.732)" fill="#fff"/>
                  <path id="Trazado_99221" data-name="Trazado 99221" d="M500.96,58.823a1.142,1.142,0,1,1-1.142-1.091A1.117,1.117,0,0,1,500.96,58.823Z" transform="translate(-395.96 -57.732)" fill="#fff"/>
                </g>
                <g id="Grupo_53308" data-name="Grupo 53308" transform="translate(0 17.464)">
                  <ellipse id="Elipse_3955" data-name="Elipse 3955" cx="1.141" cy="1.091" rx="1.141" ry="1.091" fill="#fff"/>
                  <path id="Trazado_99222" data-name="Trazado 99222" d="M424.943,66.331A1.142,1.142,0,1,1,423.8,65.24,1.118,1.118,0,0,1,424.943,66.331Z" transform="translate(-412.388 -65.24)" fill="#fff"/>
                  <ellipse id="Elipse_3956" data-name="Elipse 3956" cx="1.141" cy="1.091" rx="1.141" ry="1.091" transform="translate(20.544)" fill="#fff"/>
                  <path id="Trazado_99223" data-name="Trazado 99223" d="M441.836,66.331a1.142,1.142,0,1,1-1.142-1.091A1.118,1.118,0,0,1,441.836,66.331Z" transform="translate(-408.737 -65.24)" fill="#fff"/>
                  <path id="Trazado_99224" data-name="Trazado 99224" d="M450.282,66.331a1.142,1.142,0,1,1-1.141-1.091A1.118,1.118,0,0,1,450.282,66.331Z" transform="translate(-406.912 -65.24)" fill="#fff"/>
                  <ellipse id="Elipse_3957" data-name="Elipse 3957" cx="1.141" cy="1.091" rx="1.141" ry="1.091" transform="translate(51.359)" fill="#fff"/>
                  <path id="Trazado_99225" data-name="Trazado 99225" d="M467.175,66.331a1.143,1.143,0,1,1-1.142-1.091A1.119,1.119,0,0,1,467.175,66.331Z" transform="translate(-403.261 -65.24)" fill="#fff"/>
                  <ellipse id="Elipse_3958" data-name="Elipse 3958" cx="1.141" cy="1.091" rx="1.141" ry="1.091" transform="translate(71.902)" fill="#fff"/>
                  <ellipse id="Elipse_3959" data-name="Elipse 3959" cx="1.141" cy="1.091" rx="1.141" ry="1.091" transform="translate(82.174)" fill="#fff"/>
                  <path id="Trazado_99226" data-name="Trazado 99226" d="M492.514,66.331a1.142,1.142,0,1,1-1.142-1.091A1.119,1.119,0,0,1,492.514,66.331Z" transform="translate(-397.785 -65.24)" fill="#fff"/>
                  <path id="Trazado_99227" data-name="Trazado 99227" d="M500.96,66.331a1.142,1.142,0,1,1-1.142-1.091A1.118,1.118,0,0,1,500.96,66.331Z" transform="translate(-395.959 -65.24)" fill="#fff"/>
                </g>
                <g id="Grupo_53309" data-name="Grupo 53309" transform="translate(0 26.194)">
                  <ellipse id="Elipse_3960" data-name="Elipse 3960" cx="1.141" cy="1.091" rx="1.141" ry="1.091" transform="translate(0 0)" fill="#fff"/>
                  <path id="Trazado_99228" data-name="Trazado 99228" d="M424.943,73.839a1.142,1.142,0,1,1-1.141-1.092A1.117,1.117,0,0,1,424.943,73.839Z" transform="translate(-412.388 -72.747)" fill="#fff"/>
                  <ellipse id="Elipse_3961" data-name="Elipse 3961" cx="1.141" cy="1.091" rx="1.141" ry="1.091" transform="translate(20.544 0)" fill="#fff"/>
                  <path id="Trazado_99229" data-name="Trazado 99229" d="M441.836,73.839a1.142,1.142,0,1,1-1.142-1.092A1.117,1.117,0,0,1,441.836,73.839Z" transform="translate(-408.737 -72.747)" fill="#fff"/>
                  <path id="Trazado_99230" data-name="Trazado 99230" d="M450.282,73.839a1.142,1.142,0,1,1-1.141-1.092A1.117,1.117,0,0,1,450.282,73.839Z" transform="translate(-406.912 -72.747)" fill="#fff"/>
                  <ellipse id="Elipse_3962" data-name="Elipse 3962" cx="1.141" cy="1.091" rx="1.141" ry="1.091" transform="translate(51.359 0)" fill="#fff"/>
                  <path id="Trazado_99231" data-name="Trazado 99231" d="M467.175,73.839a1.143,1.143,0,1,1-1.142-1.092A1.118,1.118,0,0,1,467.175,73.839Z" transform="translate(-403.261 -72.747)" fill="#fff"/>
                  <ellipse id="Elipse_3963" data-name="Elipse 3963" cx="1.141" cy="1.091" rx="1.141" ry="1.091" transform="translate(71.902 0)" fill="#fff"/>
                  <ellipse id="Elipse_3964" data-name="Elipse 3964" cx="1.141" cy="1.091" rx="1.141" ry="1.091" transform="translate(82.174 0)" fill="#fff"/>
                  <path id="Trazado_99232" data-name="Trazado 99232" d="M492.514,73.839a1.142,1.142,0,1,1-1.142-1.092A1.118,1.118,0,0,1,492.514,73.839Z" transform="translate(-397.785 -72.747)" fill="#fff"/>
                  <path id="Trazado_99233" data-name="Trazado 99233" d="M500.96,73.839a1.142,1.142,0,1,1-1.142-1.092A1.117,1.117,0,0,1,500.96,73.839Z" transform="translate(-395.959 -72.747)" fill="#fff"/>
                </g>
                <g id="Grupo_53310" data-name="Grupo 53310" transform="translate(0 34.926)">
                  <path id="Trazado_99234" data-name="Trazado 99234" d="M416.5,81.347a1.142,1.142,0,1,1-1.142-1.092A1.117,1.117,0,0,1,416.5,81.347Z" transform="translate(-414.214 -80.255)" fill="#fff"/>
                  <path id="Trazado_99235" data-name="Trazado 99235" d="M424.943,81.347a1.142,1.142,0,1,1-1.141-1.092A1.117,1.117,0,0,1,424.943,81.347Z" transform="translate(-412.389 -80.255)" fill="#fff"/>
                  <path id="Trazado_99236" data-name="Trazado 99236" d="M433.389,81.347a1.142,1.142,0,1,1-1.141-1.092A1.117,1.117,0,0,1,433.389,81.347Z" transform="translate(-410.563 -80.255)" fill="#fff"/>
                  <path id="Trazado_99237" data-name="Trazado 99237" d="M441.836,81.347a1.142,1.142,0,1,1-1.142-1.092A1.117,1.117,0,0,1,441.836,81.347Z" transform="translate(-408.738 -80.255)" fill="#fff"/>
                  <path id="Trazado_99238" data-name="Trazado 99238" d="M450.282,81.347a1.142,1.142,0,1,1-1.141-1.092A1.117,1.117,0,0,1,450.282,81.347Z" transform="translate(-406.912 -80.255)" fill="#fff"/>
                  <path id="Trazado_99239" data-name="Trazado 99239" d="M458.728,81.347a1.142,1.142,0,1,1-1.141-1.092A1.117,1.117,0,0,1,458.728,81.347Z" transform="translate(-405.087 -80.255)" fill="#fff"/>
                  <path id="Trazado_99240" data-name="Trazado 99240" d="M467.175,81.347a1.143,1.143,0,1,1-1.142-1.092A1.118,1.118,0,0,1,467.175,81.347Z" transform="translate(-403.261 -80.255)" fill="#fff"/>
                  <path id="Trazado_99241" data-name="Trazado 99241" d="M475.621,81.347a1.142,1.142,0,1,1-1.141-1.092A1.117,1.117,0,0,1,475.621,81.347Z" transform="translate(-401.436 -80.255)" fill="#fff"/>
                  <path id="Trazado_99242" data-name="Trazado 99242" d="M484.067,81.347a1.143,1.143,0,1,1-1.141-1.092A1.117,1.117,0,0,1,484.067,81.347Z" transform="translate(-399.61 -80.255)" fill="#fff"/>
                  <path id="Trazado_99243" data-name="Trazado 99243" d="M492.514,81.347a1.142,1.142,0,1,1-1.142-1.092A1.118,1.118,0,0,1,492.514,81.347Z" transform="translate(-397.785 -80.255)" fill="#fff"/>
                  <path id="Trazado_99244" data-name="Trazado 99244" d="M500.96,81.347a1.142,1.142,0,1,1-1.142-1.092A1.117,1.117,0,0,1,500.96,81.347Z" transform="translate(-395.96 -80.255)" fill="#fff"/>
                </g>
                <g id="Grupo_53311" data-name="Grupo 53311" transform="translate(0 43.658)">
                  <ellipse id="Elipse_3965" data-name="Elipse 3965" cx="1.141" cy="1.091" rx="1.141" ry="1.091" transform="translate(0 0)" fill="#fff"/>
                  <path id="Trazado_99245" data-name="Trazado 99245" d="M424.943,88.855a1.142,1.142,0,1,1-1.141-1.092A1.117,1.117,0,0,1,424.943,88.855Z" transform="translate(-412.388 -87.763)" fill="#fff"/>
                  <ellipse id="Elipse_3966" data-name="Elipse 3966" cx="1.141" cy="1.091" rx="1.141" ry="1.091" transform="translate(20.544 0)" fill="#fff"/>
                  <path id="Trazado_99246" data-name="Trazado 99246" d="M441.836,88.855a1.142,1.142,0,1,1-1.142-1.092A1.117,1.117,0,0,1,441.836,88.855Z" transform="translate(-408.737 -87.763)" fill="#fff"/>
                  <path id="Trazado_99247" data-name="Trazado 99247" d="M450.282,88.855a1.142,1.142,0,1,1-1.141-1.092A1.117,1.117,0,0,1,450.282,88.855Z" transform="translate(-406.912 -87.763)" fill="#fff"/>
                  <ellipse id="Elipse_3967" data-name="Elipse 3967" cx="1.141" cy="1.091" rx="1.141" ry="1.091" transform="translate(51.359 0)" fill="#fff"/>
                  <path id="Trazado_99248" data-name="Trazado 99248" d="M467.175,88.855a1.143,1.143,0,1,1-1.142-1.092A1.118,1.118,0,0,1,467.175,88.855Z" transform="translate(-403.261 -87.763)" fill="#fff"/>
                  <ellipse id="Elipse_3968" data-name="Elipse 3968" cx="1.141" cy="1.091" rx="1.141" ry="1.091" transform="translate(71.902 0)" fill="#fff"/>
                  <ellipse id="Elipse_3969" data-name="Elipse 3969" cx="1.141" cy="1.091" rx="1.141" ry="1.091" transform="translate(82.174 0)" fill="#fff"/>
                  <path id="Trazado_99249" data-name="Trazado 99249" d="M492.514,88.855a1.142,1.142,0,1,1-1.142-1.092A1.118,1.118,0,0,1,492.514,88.855Z" transform="translate(-397.785 -87.763)" fill="#fff"/>
                  <path id="Trazado_99250" data-name="Trazado 99250" d="M500.96,88.855a1.142,1.142,0,1,1-1.142-1.092A1.117,1.117,0,0,1,500.96,88.855Z" transform="translate(-395.959 -87.763)" fill="#fff"/>
                </g>
                <g id="Grupo_53312" data-name="Grupo 53312" transform="translate(0 52.39)">
                  <ellipse id="Elipse_3970" data-name="Elipse 3970" cx="1.141" cy="1.091" rx="1.141" ry="1.091" fill="#fff"/>
                  <path id="Trazado_99251" data-name="Trazado 99251" d="M424.943,96.362a1.142,1.142,0,1,1-1.141-1.091A1.117,1.117,0,0,1,424.943,96.362Z" transform="translate(-412.388 -95.271)" fill="#fff"/>
                  <ellipse id="Elipse_3971" data-name="Elipse 3971" cx="1.141" cy="1.091" rx="1.141" ry="1.091" transform="translate(20.544)" fill="#fff"/>
                  <path id="Trazado_99252" data-name="Trazado 99252" d="M441.836,96.362a1.142,1.142,0,1,1-1.142-1.091A1.117,1.117,0,0,1,441.836,96.362Z" transform="translate(-408.737 -95.271)" fill="#fff"/>
                  <path id="Trazado_99253" data-name="Trazado 99253" d="M450.282,96.362a1.142,1.142,0,1,1-1.141-1.091A1.117,1.117,0,0,1,450.282,96.362Z" transform="translate(-406.912 -95.271)" fill="#fff"/>
                  <ellipse id="Elipse_3972" data-name="Elipse 3972" cx="1.141" cy="1.091" rx="1.141" ry="1.091" transform="translate(51.359)" fill="#fff"/>
                  <path id="Trazado_99254" data-name="Trazado 99254" d="M467.175,96.362a1.143,1.143,0,1,1-1.142-1.091A1.118,1.118,0,0,1,467.175,96.362Z" transform="translate(-403.261 -95.271)" fill="#fff"/>
                  <ellipse id="Elipse_3973" data-name="Elipse 3973" cx="1.141" cy="1.091" rx="1.141" ry="1.091" transform="translate(71.902)" fill="#fff"/>
                  <ellipse id="Elipse_3974" data-name="Elipse 3974" cx="1.141" cy="1.091" rx="1.141" ry="1.091" transform="translate(82.174)" fill="#fff"/>
                  <path id="Trazado_99255" data-name="Trazado 99255" d="M492.514,96.362a1.142,1.142,0,1,1-1.142-1.091A1.118,1.118,0,0,1,492.514,96.362Z" transform="translate(-397.785 -95.271)" fill="#fff"/>
                  <path id="Trazado_99256" data-name="Trazado 99256" d="M500.96,96.362a1.142,1.142,0,1,1-1.142-1.091A1.117,1.117,0,0,1,500.96,96.362Z" transform="translate(-395.959 -95.271)" fill="#fff"/>
                </g>
                <g id="Grupo_53313" data-name="Grupo 53313" transform="translate(0 61.122)">
                  <path id="Trazado_99257" data-name="Trazado 99257" d="M416.5,103.87a1.143,1.143,0,1,1-1.142-1.091A1.117,1.117,0,0,1,416.5,103.87Z" transform="translate(-414.214 -102.779)" fill="#fff"/>
                  <path id="Trazado_99258" data-name="Trazado 99258" d="M424.943,103.87a1.142,1.142,0,1,1-1.141-1.091A1.117,1.117,0,0,1,424.943,103.87Z" transform="translate(-412.389 -102.779)" fill="#fff"/>
                  <path id="Trazado_99259" data-name="Trazado 99259" d="M433.389,103.87a1.143,1.143,0,1,1-1.141-1.091A1.117,1.117,0,0,1,433.389,103.87Z" transform="translate(-410.563 -102.779)" fill="#fff"/>
                  <path id="Trazado_99260" data-name="Trazado 99260" d="M441.836,103.87a1.142,1.142,0,1,1-1.142-1.091A1.117,1.117,0,0,1,441.836,103.87Z" transform="translate(-408.738 -102.779)" fill="#fff"/>
                  <path id="Trazado_99261" data-name="Trazado 99261" d="M450.282,103.87a1.142,1.142,0,1,1-1.141-1.091A1.117,1.117,0,0,1,450.282,103.87Z" transform="translate(-406.912 -102.779)" fill="#fff"/>
                  <path id="Trazado_99262" data-name="Trazado 99262" d="M458.728,103.87a1.143,1.143,0,1,1-1.141-1.091A1.117,1.117,0,0,1,458.728,103.87Z" transform="translate(-405.087 -102.779)" fill="#fff"/>
                  <path id="Trazado_99263" data-name="Trazado 99263" d="M467.175,103.87a1.143,1.143,0,1,1-1.142-1.091A1.118,1.118,0,0,1,467.175,103.87Z" transform="translate(-403.261 -102.779)" fill="#fff"/>
                  <path id="Trazado_99264" data-name="Trazado 99264" d="M475.621,103.87a1.143,1.143,0,1,1-1.141-1.091A1.117,1.117,0,0,1,475.621,103.87Z" transform="translate(-401.436 -102.779)" fill="#fff"/>
                  <path id="Trazado_99265" data-name="Trazado 99265" d="M484.067,103.87a1.143,1.143,0,1,1-1.141-1.091A1.117,1.117,0,0,1,484.067,103.87Z" transform="translate(-399.61 -102.779)" fill="#fff"/>
                  <path id="Trazado_99266" data-name="Trazado 99266" d="M492.514,103.87a1.142,1.142,0,1,1-1.142-1.091A1.118,1.118,0,0,1,492.514,103.87Z" transform="translate(-397.785 -102.779)" fill="#fff"/>
                  <path id="Trazado_99267" data-name="Trazado 99267" d="M500.96,103.87a1.142,1.142,0,1,1-1.142-1.091A1.117,1.117,0,0,1,500.96,103.87Z" transform="translate(-395.96 -102.779)" fill="#fff"/>
                </g>
                <g id="Grupo_53314" data-name="Grupo 53314" transform="translate(0 69.854)">
                  <ellipse id="Elipse_3975" data-name="Elipse 3975" cx="1.141" cy="1.091" rx="1.141" ry="1.091" fill="#fff"/>
                  <path id="Trazado_99268" data-name="Trazado 99268" d="M424.943,111.378a1.142,1.142,0,1,1-1.141-1.091A1.118,1.118,0,0,1,424.943,111.378Z" transform="translate(-412.388 -110.287)" fill="#fff"/>
                  <ellipse id="Elipse_3976" data-name="Elipse 3976" cx="1.141" cy="1.091" rx="1.141" ry="1.091" transform="translate(20.544)" fill="#fff"/>
                  <path id="Trazado_99269" data-name="Trazado 99269" d="M441.836,111.378a1.142,1.142,0,1,1-1.142-1.091A1.118,1.118,0,0,1,441.836,111.378Z" transform="translate(-408.737 -110.287)" fill="#fff"/>
                  <path id="Trazado_99270" data-name="Trazado 99270" d="M450.282,111.378a1.142,1.142,0,1,1-1.141-1.091A1.118,1.118,0,0,1,450.282,111.378Z" transform="translate(-406.912 -110.287)" fill="#fff"/>
                  <ellipse id="Elipse_3977" data-name="Elipse 3977" cx="1.141" cy="1.091" rx="1.141" ry="1.091" transform="translate(51.359)" fill="#fff"/>
                  <path id="Trazado_99271" data-name="Trazado 99271" d="M467.175,111.378a1.143,1.143,0,1,1-1.142-1.091A1.119,1.119,0,0,1,467.175,111.378Z" transform="translate(-403.261 -110.287)" fill="#fff"/>
                  <ellipse id="Elipse_3978" data-name="Elipse 3978" cx="1.141" cy="1.091" rx="1.141" ry="1.091" transform="translate(71.902)" fill="#fff"/>
                  <ellipse id="Elipse_3979" data-name="Elipse 3979" cx="1.141" cy="1.091" rx="1.141" ry="1.091" transform="translate(82.174)" fill="#fff"/>
                  <path id="Trazado_99272" data-name="Trazado 99272" d="M492.514,111.378a1.142,1.142,0,1,1-1.142-1.091A1.119,1.119,0,0,1,492.514,111.378Z" transform="translate(-397.785 -110.287)" fill="#fff"/>
                  <path id="Trazado_99273" data-name="Trazado 99273" d="M500.96,111.378a1.142,1.142,0,1,1-1.142-1.091A1.118,1.118,0,0,1,500.96,111.378Z" transform="translate(-395.959 -110.287)" fill="#fff"/>
                </g>
                <g id="Grupo_53315" data-name="Grupo 53315" transform="translate(0 78.584)">
                  <path id="Trazado_99274" data-name="Trazado 99274" d="M416.5,118.886a1.142,1.142,0,1,1-1.142-1.092A1.118,1.118,0,0,1,416.5,118.886Z" transform="translate(-414.214 -117.794)" fill="#fff"/>
                  <path id="Trazado_99275" data-name="Trazado 99275" d="M424.943,118.886a1.142,1.142,0,1,1-1.141-1.092A1.118,1.118,0,0,1,424.943,118.886Z" transform="translate(-412.389 -117.794)" fill="#fff"/>
                  <path id="Trazado_99276" data-name="Trazado 99276" d="M433.389,118.886a1.142,1.142,0,1,1-1.141-1.092A1.118,1.118,0,0,1,433.389,118.886Z" transform="translate(-410.563 -117.794)" fill="#fff"/>
                  <path id="Trazado_99277" data-name="Trazado 99277" d="M441.836,118.886a1.142,1.142,0,1,1-1.142-1.092A1.118,1.118,0,0,1,441.836,118.886Z" transform="translate(-408.738 -117.794)" fill="#fff"/>
                  <path id="Trazado_99278" data-name="Trazado 99278" d="M450.282,118.886a1.142,1.142,0,1,1-1.141-1.092A1.118,1.118,0,0,1,450.282,118.886Z" transform="translate(-406.912 -117.794)" fill="#fff"/>
                  <path id="Trazado_99279" data-name="Trazado 99279" d="M458.728,118.886a1.142,1.142,0,1,1-1.141-1.092A1.118,1.118,0,0,1,458.728,118.886Z" transform="translate(-405.087 -117.794)" fill="#fff"/>
                  <path id="Trazado_99280" data-name="Trazado 99280" d="M467.175,118.886a1.143,1.143,0,1,1-1.142-1.092A1.119,1.119,0,0,1,467.175,118.886Z" transform="translate(-403.261 -117.794)" fill="#fff"/>
                  <path id="Trazado_99281" data-name="Trazado 99281" d="M475.621,118.886a1.142,1.142,0,1,1-1.141-1.092A1.118,1.118,0,0,1,475.621,118.886Z" transform="translate(-401.436 -117.794)" fill="#fff"/>
                  <path id="Trazado_99282" data-name="Trazado 99282" d="M484.067,118.886a1.143,1.143,0,1,1-1.141-1.092A1.118,1.118,0,0,1,484.067,118.886Z" transform="translate(-399.61 -117.794)" fill="#fff"/>
                  <path id="Trazado_99283" data-name="Trazado 99283" d="M492.514,118.886a1.142,1.142,0,1,1-1.142-1.092A1.119,1.119,0,0,1,492.514,118.886Z" transform="translate(-397.785 -117.794)" fill="#fff"/>
                  <path id="Trazado_99284" data-name="Trazado 99284" d="M500.96,118.886a1.142,1.142,0,1,1-1.142-1.092A1.118,1.118,0,0,1,500.96,118.886Z" transform="translate(-395.96 -117.794)" fill="#fff"/>
                </g>
                <g id="Grupo_53316" data-name="Grupo 53316" transform="translate(0 87.316)">
                  <ellipse id="Elipse_3980" data-name="Elipse 3980" cx="1.141" cy="1.091" rx="1.141" ry="1.091" transform="translate(0 0)" fill="#fff"/>
                  <path id="Trazado_99285" data-name="Trazado 99285" d="M424.943,126.394A1.142,1.142,0,1,1,423.8,125.3,1.117,1.117,0,0,1,424.943,126.394Z" transform="translate(-412.388 -125.302)" fill="#fff"/>
                  <ellipse id="Elipse_3981" data-name="Elipse 3981" cx="1.141" cy="1.091" rx="1.141" ry="1.091" transform="translate(20.544 0)" fill="#fff"/>
                  <path id="Trazado_99286" data-name="Trazado 99286" d="M441.836,126.394a1.142,1.142,0,1,1-1.142-1.092A1.117,1.117,0,0,1,441.836,126.394Z" transform="translate(-408.737 -125.302)" fill="#fff"/>
                  <path id="Trazado_99287" data-name="Trazado 99287" d="M450.282,126.394a1.142,1.142,0,1,1-1.141-1.092A1.117,1.117,0,0,1,450.282,126.394Z" transform="translate(-406.912 -125.302)" fill="#fff"/>
                  <ellipse id="Elipse_3982" data-name="Elipse 3982" cx="1.141" cy="1.091" rx="1.141" ry="1.091" transform="translate(51.359 0)" fill="#fff"/>
                  <path id="Trazado_99288" data-name="Trazado 99288" d="M467.175,126.394a1.143,1.143,0,1,1-1.142-1.092A1.118,1.118,0,0,1,467.175,126.394Z" transform="translate(-403.261 -125.302)" fill="#fff"/>
                  <ellipse id="Elipse_3983" data-name="Elipse 3983" cx="1.141" cy="1.091" rx="1.141" ry="1.091" transform="translate(71.902 0)" fill="#fff"/>
                  <ellipse id="Elipse_3984" data-name="Elipse 3984" cx="1.141" cy="1.091" rx="1.141" ry="1.091" transform="translate(82.174 0)" fill="#fff"/>
                  <path id="Trazado_99289" data-name="Trazado 99289" d="M492.514,126.394a1.142,1.142,0,1,1-1.142-1.092A1.118,1.118,0,0,1,492.514,126.394Z" transform="translate(-397.785 -125.302)" fill="#fff"/>
                  <path id="Trazado_99290" data-name="Trazado 99290" d="M500.96,126.394a1.142,1.142,0,1,1-1.142-1.092A1.117,1.117,0,0,1,500.96,126.394Z" transform="translate(-395.959 -125.302)" fill="#fff"/>
                </g>
                <g id="Grupo_53317" data-name="Grupo 53317" transform="translate(0 96.049)">
                  <ellipse id="Elipse_3985" data-name="Elipse 3985" cx="1.141" cy="1.091" rx="1.141" ry="1.091" transform="translate(0 0)" fill="#fff"/>
                  <path id="Trazado_99291" data-name="Trazado 99291" d="M424.943,133.9a1.142,1.142,0,1,1-1.141-1.092A1.117,1.117,0,0,1,424.943,133.9Z" transform="translate(-412.388 -132.81)" fill="#fff"/>
                  <ellipse id="Elipse_3986" data-name="Elipse 3986" cx="1.141" cy="1.091" rx="1.141" ry="1.091" transform="translate(20.544 0)" fill="#fff"/>
                  <path id="Trazado_99292" data-name="Trazado 99292" d="M441.836,133.9a1.142,1.142,0,1,1-1.142-1.092A1.117,1.117,0,0,1,441.836,133.9Z" transform="translate(-408.737 -132.81)" fill="#fff"/>
                  <path id="Trazado_99293" data-name="Trazado 99293" d="M450.282,133.9a1.142,1.142,0,1,1-1.141-1.092A1.117,1.117,0,0,1,450.282,133.9Z" transform="translate(-406.912 -132.81)" fill="#fff"/>
                  <ellipse id="Elipse_3987" data-name="Elipse 3987" cx="1.141" cy="1.091" rx="1.141" ry="1.091" transform="translate(51.359 0)" fill="#fff"/>
                  <path id="Trazado_99294" data-name="Trazado 99294" d="M467.175,133.9a1.143,1.143,0,1,1-1.142-1.092A1.118,1.118,0,0,1,467.175,133.9Z" transform="translate(-403.261 -132.81)" fill="#fff"/>
                  <ellipse id="Elipse_3988" data-name="Elipse 3988" cx="1.141" cy="1.091" rx="1.141" ry="1.091" transform="translate(71.902 0)" fill="#fff"/>
                  <ellipse id="Elipse_3989" data-name="Elipse 3989" cx="1.141" cy="1.091" rx="1.141" ry="1.091" transform="translate(82.174 0)" fill="#fff"/>
                  <path id="Trazado_99295" data-name="Trazado 99295" d="M492.514,133.9a1.142,1.142,0,1,1-1.142-1.092A1.118,1.118,0,0,1,492.514,133.9Z" transform="translate(-397.785 -132.81)" fill="#fff"/>
                  <path id="Trazado_99296" data-name="Trazado 99296" d="M500.96,133.9a1.142,1.142,0,1,1-1.142-1.092A1.117,1.117,0,0,1,500.96,133.9Z" transform="translate(-395.959 -132.81)" fill="#fff"/>
                </g>
              </g>
            </g>
          </g>
        </g>
      </g>
    </g>
    <g id="Grupo_150492" data-name="Grupo 150492" transform="translate(285 974.167)">
      <g id="Grupo_150218" data-name="Grupo 150218" transform="translate(3.156 0)">
        <path id="Trazado_261685" data-name="Trazado 261685" d="M239.913,415.362s-25.489-38.563,2.271-83.934,65.044-22.554,63.24-75.361,77.054-57.929,104.922-42.617,52.473,6.54,85.759,7.608c53.984,1.732,69.1,55,54.128,80.921-21.236,36.78,66.526,41.1,16.008,113.382Z" transform="translate(-229.229 -205.912)" fill="#ebf3fa"/>
      </g>
      <g id="Grupo_150219" data-name="Grupo 150219" transform="translate(55.764 104.004)" opacity="0.3">
        <path id="Trazado_261686" data-name="Trazado 261686" d="M608.737,977.959c-2.509-9.2,12.347-14.585,12.347-14.585s17.254,8.556,20.095,7.334-13.323-10.2-13.323-10.2c4.837-3.506,21.6-4.889,21.6-4.889s8.687,16.7,11.14,14.813-8.446-14.392-8.446-14.392c5.837-1.423,13.867,1.648,13.867,1.648,11.324,6.032,2.994,20.261,2.994,20.261a30.6,30.6,0,0,0,10.4,10.135h0a22.19,22.19,0,0,1,3.468,2.288l-1.353.794q-.485-.447-.984-.835a.009.009,0,0,0-.006,0l-.014-.011c-.215-.155-.523-.374-.9-.639h0c-.888-.567-1.518-1-1.948-1.328l0,0c-2.729-1.813-6.456-4.076-8.053-4.072a3.042,3.042,0,0,0-.075-.79l.075.79c.6,6.322-10.5,13.945-17.727,16.408s-5.484-1.007-3.743-6,9.477-8.485,10.948-10.905-2.352-1.734-6.459,1.121-3.733,8.418-10.293,13.158-19.523-5.223-19.523-5.223c5.671-1.327,12.72-9.022,12.08-10.87s-13.281,5.792-15.557,6.461S611.247,987.162,608.737,977.959Z" transform="translate(-608.452 -955.623)" fill="#aec3ff"/>
      </g>
      <g id="Grupo_150220" data-name="Grupo 150220" transform="translate(209.944 131.19)">
        <path id="Trazado_261687" data-name="Trazado 261687" d="M1814.438,1214.439c9.228-8.962-4.326-25.405-4.326-25.405s-25.9-1.906-28.362-5.274,22.464-2.7,22.464-2.7c-3.21-7.39-21.716-20.495-21.716-20.495s-21.543,13.424-23.1,9.554,19.682-10.913,19.682-10.913c-5.8-5.658-17.23-7.6-17.23-7.6-17.285-.768-17.379,21.468-17.379,21.468a41.268,41.268,0,0,1-19.024,4.633h0a29.92,29.92,0,0,0-5.6.277l1.026,1.85c.58-.124,1.152-.223,1.715-.294a.012.012,0,0,1,.01,0l.024,0c.356-.032.864-.075,1.486-.123h.005c1.42-.048,2.449-.12,3.174-.205h.007c4.413-.232,10.292-.3,12.144.8a4.1,4.1,0,0,1,.629-.866l-.629.866c-5.031,6.931,2.619,23.394,9.321,31.213s7.058,2.594,8.463-4.4-5.18-16.354-5.227-20.173,3.92-.4,6.729,5.734-1.442,12.335,2.922,22.339,26.25,7.333,26.25,7.333c-5.674-5.432-8.577-19.2-6.566-20.91s11.444,15.838,13.628,18.177S1805.209,1223.4,1814.438,1214.439Z" transform="translate(-1719.852 -1151.588)" fill="#dfebfd"/>
      </g>
      <g id="Grupo_150223" data-name="Grupo 150223" transform="translate(74.015 83.936)">
        <g id="Grupo_150221" data-name="Grupo 150221" transform="translate(8.05 0)" opacity="0.5">
          <path id="Trazado_261688" data-name="Trazado 261688" d="M825.107,826.13s-11.788-12.28-24.777-15.119a1.89,1.89,0,0,0-1.878,3.019l.056.07C800.413,816.44,815.814,820.755,825.107,826.13Z" transform="translate(-798.041 -810.965)" fill="#c5ddff"/>
        </g>
        <g id="Grupo_150222" data-name="Grupo 150222" transform="translate(0 8.021)" opacity="0.5">
          <path id="Trazado_261689" data-name="Trazado 261689" d="M778.882,879.155s-19.611-11.671-37.007-10.255a2,2,0,0,0-1.861,2.047,3.181,3.181,0,0,0,1.618,2.358C744.807,875.566,765.464,875.653,778.882,879.155Z" transform="translate(-740.012 -868.781)" fill="#c5ddff"/>
        </g>
      </g>
      <g id="Grupo_150226" data-name="Grupo 150226" transform="translate(249.737 101.099)" opacity="0.5">
        <g id="Grupo_150224" data-name="Grupo 150224" transform="translate(1.295 0)" opacity="0.5">
          <path id="Trazado_261690" data-name="Trazado 261690" d="M2016.036,962.943s2.8-17.5,12.225-27.633a1.968,1.968,0,0,1,3.4,1.468c0,.03,0,.062-.006.093C2031.411,940,2020.8,952.831,2016.036,962.943Z" transform="translate(-2016.036 -934.683)" fill="#aec3ff"/>
        </g>
        <g id="Grupo_150225" data-name="Grupo 150225" transform="translate(0 2.233)" opacity="0.5">
          <path id="Trazado_261691" data-name="Trazado 261691" d="M2006.7,981.8s9.852-21.619,25.573-30.728a2.087,2.087,0,0,1,2.807.647,3.311,3.311,0,0,1,.015,2.977C2033.719,958.511,2016.1,970.842,2006.7,981.8Z" transform="translate(-2006.699 -950.782)" fill="#aec3ff"/>
        </g>
      </g>
      <g id="Grupo_150227" data-name="Grupo 150227" transform="translate(167.45 40.639)" opacity="0.2">
        <path id="Trazado_261692" data-name="Trazado 261692" d="M1416.5,547.38l6.864-.754a1.532,1.532,0,0,1,1.439.694q.593.927,1.271,1.816a25.684,25.684,0,0,0,2.708,3.042,1.51,1.51,0,0,1,.368,1.662l-2.651,6.713a1.483,1.483,0,0,0,.725,1.882l5.9,2.945a1.466,1.466,0,0,0,1.881-.516l3.591-5.591a1.472,1.472,0,0,1,1.65-.633,26.671,26.671,0,0,0,8.367.857,1.52,1.52,0,0,1,1.519,1.059l1.2,3.86a1.535,1.535,0,0,0,1.742,1.041l6.424-1.28a1.34,1.34,0,0,0,.371-.122,1.473,1.473,0,0,0,.826-1.5l-.557-5.128-.138-1.25a26.406,26.406,0,0,0,3.119-2.048,26.777,26.777,0,0,0,3.663-3.372,1.471,1.471,0,0,1,1.644-.392l5.4,2.141a1.526,1.526,0,0,0,1.927-.74l2.252-4.514.642-1.3a1.545,1.545,0,0,0-.544-1.992l-4.67-3a1.47,1.47,0,0,1-.655-1.6,26.485,26.485,0,0,0,.729-5.616,4.663,4.663,0,0,0,.016-.476.811.811,0,0,1,.01-.16,1.506,1.506,0,0,1,1.066-1.287l6.263-1.963a1.117,1.117,0,0,0,.2-.08,1.531,1.531,0,0,0,.831-1.657l-1.267-6.406a1.524,1.524,0,0,0-1.658-1.218l-7.159.789a1.472,1.472,0,0,1-1.476-.779,26.949,26.949,0,0,0-2.231-3.434q-.672-.881-1.4-1.688a1.553,1.553,0,0,1-.289-1.609l2.546-6.453a1.481,1.481,0,0,0-.716-1.87l-5.845-2.9a1.548,1.548,0,0,0-2,.548l-2.842,4.423a1.521,1.521,0,0,1-1.772.622,26.621,26.621,0,0,0-8.07-1.473,1.512,1.512,0,0,1-1.421-1.067l-1.767-5.646a1.564,1.564,0,0,0-1.787-1.063l-6.384,1.259a1.5,1.5,0,0,0-1.2,1.634l.03.3.65,5.958a1.528,1.528,0,0,1-.83,1.533l-.006,0a26.473,26.473,0,0,0-3.966,2.5c-.677.516-1.314,1.059-1.934,1.627a1.5,1.5,0,0,1-1.578.3l-5.487-2.174a1.551,1.551,0,0,0-1.96.747l-2.9,5.819a1.677,1.677,0,0,0-.15.512,1.544,1.544,0,0,0,.687,1.447l3.737,2.39a1.542,1.542,0,0,1,.7,1.346,1.65,1.65,0,0,1-.078.42,26.508,26.508,0,0,0-1.377,10.394,1.493,1.493,0,0,1-.805,1.429,1.522,1.522,0,0,1-.239.1l-5.073,1.586a1.518,1.518,0,0,0-1.035,1.737l.028.149,1.229,6.245A1.544,1.544,0,0,0,1416.5,547.38Zm43.956-19.362a17.734,17.734,0,0,1,.923,3.172,13.945,13.945,0,0,1-1.013,7.53c-.1.212-.212.418-.321.623-6.749,12.445-24.343,9.916-27.2-4.155a14.454,14.454,0,0,1,.534-6.567,9.432,9.432,0,0,1,.529-1.294,16.389,16.389,0,0,1,3.288-4.5A14.3,14.3,0,0,1,1460.46,528.018Z" transform="translate(-1413.535 -498.859)" fill="#91b5f8"/>
      </g>
      <g id="Grupo_150228" data-name="Grupo 150228" transform="translate(255.426 47.788)">
        <path id="Trazado_261693" data-name="Trazado 261693" d="M2049.555,580.52l4.263-.468a.95.95,0,0,1,.893.431q.368.576.79,1.128a15.944,15.944,0,0,0,1.682,1.889.937.937,0,0,1,.228,1.032l-1.646,4.169a.92.92,0,0,0,.45,1.169l3.667,1.829a.91.91,0,0,0,1.168-.32l2.23-3.472a.914.914,0,0,1,1.024-.393,16.567,16.567,0,0,0,5.2.532.944.944,0,0,1,.943.658l.746,2.4a.953.953,0,0,0,1.082.646l3.99-.8a.831.831,0,0,0,.231-.076.914.914,0,0,0,.512-.932l-.346-3.185-.086-.776a16.366,16.366,0,0,0,1.937-1.272,16.654,16.654,0,0,0,2.275-2.094.914.914,0,0,1,1.021-.243l3.356,1.33a.947.947,0,0,0,1.2-.46l1.4-2.8.4-.8a.959.959,0,0,0-.337-1.237l-2.9-1.866a.913.913,0,0,1-.407-1,16.435,16.435,0,0,0,.453-3.488,2.87,2.87,0,0,0,.01-.3.517.517,0,0,1,.006-.1.936.936,0,0,1,.662-.8l3.89-1.219a.707.707,0,0,0,.127-.05.951.951,0,0,0,.516-1.029l-.787-3.978a.946.946,0,0,0-1.03-.756l-4.445.49a.915.915,0,0,1-.917-.484,16.712,16.712,0,0,0-1.385-2.133q-.417-.547-.871-1.048a.963.963,0,0,1-.179-1l1.581-4.007a.92.92,0,0,0-.445-1.161l-3.63-1.8a.961.961,0,0,0-1.241.341l-1.765,2.747a.944.944,0,0,1-1.1.386,16.531,16.531,0,0,0-5.011-.915.939.939,0,0,1-.882-.663l-1.1-3.506a.972.972,0,0,0-1.11-.66l-3.964.782a.929.929,0,0,0-.744,1.015l.019.186.4,3.7a.948.948,0,0,1-.515.952l0,0a16.414,16.414,0,0,0-2.463,1.555c-.421.321-.816.658-1.2,1.01a.931.931,0,0,1-.98.189l-3.407-1.35a.962.962,0,0,0-1.217.464l-1.8,3.614a1.043,1.043,0,0,0-.093.318.959.959,0,0,0,.427.9l2.321,1.484a.957.957,0,0,1,.432.836,1.022,1.022,0,0,1-.048.261,16.464,16.464,0,0,0-.855,6.455.927.927,0,0,1-.5.888.986.986,0,0,1-.148.06l-3.15.985a.942.942,0,0,0-.643,1.079l.017.093.763,3.878A.959.959,0,0,0,2049.555,580.52Zm27.3-12.024a10.978,10.978,0,0,1,.573,1.97,8.658,8.658,0,0,1-.629,4.676c-.064.131-.132.259-.2.387a8.946,8.946,0,0,1-16.56-6.659,5.85,5.85,0,0,1,.328-.8,10.176,10.176,0,0,1,2.042-2.793A8.883,8.883,0,0,1,2076.852,568.5Z" transform="translate(-2047.712 -550.388)" fill="#aec3ff"/>
      </g>
      <g id="Grupo_150229" data-name="Grupo 150229" transform="translate(229.958 28.037)">
        <path id="Trazado_261694" data-name="Trazado 261694" d="M1866.582,431.864l2.911-.977a.68.68,0,0,1,.691.165q.345.346.724.669a11.414,11.414,0,0,0,1.464,1.065.671.671,0,0,1,.317.687l-.516,3.167a.659.659,0,0,0,.493.749l2.844.721a.652.652,0,0,0,.769-.4l1.031-2.769a.654.654,0,0,1,.657-.431,11.856,11.856,0,0,0,3.716-.419.676.676,0,0,1,.76.317l.887,1.564a.683.683,0,0,0,.855.287l2.67-1.164a.6.6,0,0,0,.15-.088.655.655,0,0,0,.217-.731l-.727-2.175-.178-.53a11.787,11.787,0,0,0,1.161-1.185,11.939,11.939,0,0,0,1.273-1.812.654.654,0,0,1,.677-.326l2.551.419a.678.678,0,0,0,.767-.5l.552-2.174.157-.623a.687.687,0,0,0-.425-.814l-2.313-.864a.654.654,0,0,1-.436-.635,11.774,11.774,0,0,0-.215-2.509,2.04,2.04,0,0,0-.038-.208.346.346,0,0,1-.01-.07.669.669,0,0,1,.341-.66l2.536-1.445a.493.493,0,0,0,.081-.054.68.68,0,0,0,.2-.8l-1.156-2.664a.678.678,0,0,0-.836-.372l-3.036,1.02a.655.655,0,0,1-.715-.2,11.962,11.962,0,0,0-1.294-1.281q-.375-.319-.769-.6a.691.691,0,0,1-.278-.672l.5-3.044a.659.659,0,0,0-.488-.745l-2.815-.709a.689.689,0,0,0-.816.427l-.816,2.191a.677.677,0,0,1-.711.438,11.833,11.833,0,0,0-3.646.123.673.673,0,0,1-.719-.329l-1.3-2.286a.7.7,0,0,0-.877-.293l-2.655,1.151a.664.664,0,0,0-.366.823l.041.128.846,2.527a.679.679,0,0,1-.216.745l0,0a11.725,11.725,0,0,0-1.486,1.463c-.245.288-.471.585-.687.89a.666.666,0,0,1-.657.281l-2.589-.426a.689.689,0,0,0-.781.51l-.708,2.8a.75.75,0,0,0-.017.237.687.687,0,0,0,.435.564l1.85.685a.686.686,0,0,1,.429.519.733.733,0,0,1,.006.19,11.79,11.79,0,0,0,.385,4.646.664.664,0,0,1-.215.7.674.674,0,0,1-.095.065l-2.054,1.169a.675.675,0,0,0-.285.852l.026.062,1.125,2.6A.687.687,0,0,0,1866.582,431.864Zm17.267-12.57a7.9,7.9,0,0,1,.7,1.291,6.2,6.2,0,0,1,.272,3.367c-.025.1-.053.2-.08.3a6.406,6.406,0,0,1-12.6-2.136,4.165,4.165,0,0,1,.108-.612,7.281,7.281,0,0,1,1-2.265A6.36,6.36,0,0,1,1883.849,419.294Z" transform="translate(-1864.124 -408.018)" fill="#f99746"/>
      </g>
      <g id="Grupo_150230" data-name="Grupo 150230" transform="translate(22.975 195.264)">
        <path id="Trazado_261695" data-name="Trazado 261695" d="M372.717,1627.4h12.551c.673-.571-.465-1.866-1.654-1.953a7.332,7.332,0,0,0-1.916.227c-.173-2.294-1.159-12.606-4.876-12.192-4.18.464,0,4.541,1.182,6.955a57.452,57.452,0,0,1,2.22,5.562c-.339.074-.691.146-1.049.212-.554-1.7-2.615-7.422-5.236-7.089-3.078.39-1.841,2.684.341,4.046,1.6,1,3.566,2.425,4.5,3.112a13.32,13.32,0,0,1-2.455.2A5.29,5.29,0,0,0,372.717,1627.4Z" transform="translate(-372.093 -1613.468)" fill="#a8d29f"/>
      </g>
      <g id="Grupo_150231" data-name="Grupo 150231" transform="translate(316.974 193.137)">
        <path id="Trazado_261696" data-name="Trazado 261696" d="M2505.8,1613.889H2491.6c-.761-.645.526-2.11,1.871-2.208a8.286,8.286,0,0,1,2.166.256c.2-2.594,1.311-14.255,5.514-13.786,4.726.524,0,5.135-1.336,7.865a64.983,64.983,0,0,0-2.511,6.29c.384.083.781.165,1.187.239.626-1.923,2.957-8.393,5.921-8.016,3.481.442,2.082,3.036-.385,4.575-1.81,1.132-4.032,2.742-5.088,3.519a15.1,15.1,0,0,0,2.775.222A5.982,5.982,0,0,1,2505.8,1613.889Z" transform="translate(-2491.378 -1598.136)" fill="#a8d29f"/>
      </g>
      <g id="Grupo_150260" data-name="Grupo 150260" transform="translate(99.391 77.914)">
        <g id="Grupo_150243" data-name="Grupo 150243" transform="translate(0 0)">
          <g id="Grupo_150232" data-name="Grupo 150232" transform="translate(67.622 43.645)">
            <path id="Trazado_261697" data-name="Trazado 261697" d="M1417.306,1082.934l-6.865,81.625s-.719,4.948,2.961,4.957c6.051.014,30.119,0,30.119,0s-4.554-1.03-4.5-3.347c.065-2.732,8.023-84.006,8.023-84.006Z" transform="translate(-1410.384 -1082.162)" fill="#d8702a"/>
          </g>
          <g id="Grupo_150233" data-name="Grupo 150233" transform="translate(69.6 42.164)">
            <path id="Trazado_261698" data-name="Trazado 261698" d="M1458.07,1158.872c-1.19,0-24.491.043-30.384-.033-2.568-.032-3.019-2.283-3.04-3.741a7.293,7.293,0,0,1,.078-1.215l.179-2.122.455-5.407.4-4.777.516-6.139.435-5.181,4.878-58,29.74-.772s-3.352,34.013-5.723,58.772c-.265,2.759-.516,5.4-.749,7.873q-.114,1.182-.219,2.309c-.22,2.343-.421,4.494-.6,6.393-.092,1-.177,1.931-.254,2.783-.3,3.339-.48,5.471-.482,5.876a3.424,3.424,0,0,0,.058.661C1453.852,1158.755,1457.623,1158.872,1458.07,1158.872Z" transform="translate(-1424.645 -1071.486)" fill="#f99746"/>
          </g>
          <g id="Grupo_150234" data-name="Grupo 150234" transform="translate(2.318 0)">
            <path id="Trazado_261699" data-name="Trazado 261699" d="M939.642,767.552l16.721,67.167,2.289,9.2,7.788,31.284h144.69l-28.706-107.65Z" transform="translate(-939.642 -767.552)" fill="#f99746"/>
          </g>
          <g id="Grupo_150235" data-name="Grupo 150235">
            <path id="Trazado_261700" data-name="Trazado 261700" d="M925.253,767.551l-2.317.772,26.036,109.214,3.081-2.336Z" transform="translate(-922.935 -767.551)" fill="#d8702a"/>
          </g>
          <g id="Grupo_150236" data-name="Grupo 150236" transform="translate(26.036 107.65)">
            <path id="Trazado_261701" data-name="Trazado 261701" d="M1110.614,1545.881h143.8l3.971-2.337H1113.695Z" transform="translate(-1110.614 -1543.545)" fill="#ed7d2b"/>
          </g>
          <g id="Grupo_150237" data-name="Grupo 150237" transform="translate(76.534 129.55)">
            <rect id="Rectángulo_293737" data-name="Rectángulo 293737" width="31.135" height="1.48" transform="translate(31.135 1.48) rotate(180)" fill="#f99746"/>
          </g>
          <g id="Grupo_150238" data-name="Grupo 150238" transform="translate(70.312 109.986)">
            <path id="Trazado_261702" data-name="Trazado 261702" d="M1459.221,1560.383l-.161,1.131-29.281,5.915.4-4.777.192-2.269Z" transform="translate(-1429.78 -1560.383)" fill="#e27329"/>
          </g>
          <g id="Grupo_150239" data-name="Grupo 150239" transform="translate(69.601 120.294)" opacity="0.5">
            <path id="Trazado_261703" data-name="Trazado 261703" d="M1458.075,1643.94c-1.19,0-24.491.043-30.384-.033-2.568-.032-3.019-2.283-3.04-3.741l29.142-5.483c-.3,3.339-.48,5.471-.483,5.876a3.44,3.44,0,0,0,.058.661C1453.857,1643.823,1457.628,1643.94,1458.075,1643.94Z" transform="translate(-1424.651 -1634.684)" fill="#ed7d2b"/>
          </g>
          <g id="Grupo_150240" data-name="Grupo 150240" transform="translate(2.317)">
            <path id="Trazado_261704" data-name="Trazado 261704" d="M939.641,767.551h142.783l23.167,86.517H961.179Z" transform="translate(-939.641 -767.551)" fill="#ed7d2b"/>
          </g>
          <g id="Grupo_150241" data-name="Grupo 150241" transform="translate(8.231 4.635)">
            <path id="Trazado_261705" data-name="Trazado 261705" d="M1135.573,879.092H1001.884l-4.777-19.031-1.848-7.364-.754-3-4.91-19.558-.254-1.018-2.6-10.338-1.161-4.625-.991-3.946-2.322-9.25h131.762l2.55,9.25,1.087,3.946,1.275,4.625,8.4,30.474h0l.712,2.582.331,1.2,5.8,21.039Z" transform="translate(-982.272 -800.959)" fill="#505aba"/>
          </g>
          <g id="Grupo_150242" data-name="Grupo 150242" transform="translate(23.856 86.517)">
            <path id="Trazado_261706" data-name="Trazado 261706" d="M1149.146,1391.2l-48.937,21.385-5.31-21.385Z" transform="translate(-1094.898 -1391.203)" fill="#ed7d2b"/>
          </g>
        </g>
        <g id="Grupo_150259" data-name="Grupo 150259" transform="translate(57.53 13.887)">
          <g id="Grupo_150248" data-name="Grupo 150248" transform="translate(9.145)">
            <g id="Grupo_150245" data-name="Grupo 150245" transform="translate(0.046 0.045)">
              <g id="Grupo_150244" data-name="Grupo 150244">
                <path id="Trazado_261707" data-name="Trazado 261707" d="M1427.257,907.6c-10.922,0-21.282-8.886-23.094-19.809s5.6-19.809,16.524-19.809,21.282,8.886,23.094,19.809S1438.18,907.6,1427.257,907.6Zm-6-36.2c-9.039,0-15.174,7.354-13.675,16.393s10.073,16.393,19.112,16.393,15.174-7.354,13.675-16.393S1430.292,871.393,1421.253,871.393Z" transform="translate(-1403.891 -867.978)" fill="#e6f0ff"/>
              </g>
            </g>
            <g id="Grupo_150247" data-name="Grupo 150247">
              <g id="Grupo_150246" data-name="Grupo 150246">
                <path id="Trazado_261708" data-name="Trazado 261708" d="M1426.98,907.36c-10.948,0-21.331-8.906-23.146-19.854s5.614-19.854,16.561-19.854a24.395,24.395,0,0,1,23.146,19.854,1.447,1.447,0,0,1-1.462,1.753,2.153,2.153,0,0,1-2.043-1.753,20.088,20.088,0,0,0-19.059-16.348c-9.014,0-15.132,7.334-13.637,16.348s10.045,16.348,19.059,16.348a2.153,2.153,0,0,1,2.043,1.753A1.447,1.447,0,0,1,1426.98,907.36Z" transform="translate(-1403.56 -867.652)" fill="#f99746"/>
              </g>
            </g>
          </g>
          <g id="Grupo_150256" data-name="Grupo 150256" transform="translate(0 53.038)">
            <g id="Grupo_150249" data-name="Grupo 150249" transform="translate(0 0)">
              <path id="Trazado_261709" data-name="Trazado 261709" d="M1407.789,1251.854l.314,1.894a1.555,1.555,0,0,1-1.567,1.879h-66.364a2.315,2.315,0,0,1-2.191-1.879l-.314-1.894a1.555,1.555,0,0,1,1.567-1.879H1405.6A2.315,2.315,0,0,1,1407.789,1251.854Z" transform="translate(-1337.641 -1249.975)" fill="#e6f0ff"/>
            </g>
            <g id="Grupo_150255" data-name="Grupo 150255">
              <g id="Grupo_150250" data-name="Grupo 150250" transform="translate(0 0)">
                <path id="Trazado_261710" data-name="Trazado 261710" d="M1386.35,1249.975l.937,5.652h-47.116a2.315,2.315,0,0,1-2.191-1.879l-.314-1.894a1.555,1.555,0,0,1,1.567-1.879Z" transform="translate(-1337.641 -1249.975)" fill="#f99746"/>
              </g>
              <g id="Grupo_150251" data-name="Grupo 150251" transform="translate(24.901)">
                <path id="Trazado_261711" data-name="Trazado 261711" d="M1531.168,1249.975l-4.276,5.652h-9.754l4.276-5.652Z" transform="translate(-1517.139 -1249.975)" fill="#f78248"/>
              </g>
              <g id="Grupo_150252" data-name="Grupo 150252" transform="translate(40.606)">
                <path id="Trazado_261712" data-name="Trazado 261712" d="M1638.448,1249.975l.938,5.652h-9.041l4.276-5.652Z" transform="translate(-1630.345 -1249.975)" fill="#f78248"/>
              </g>
              <g id="Grupo_150253" data-name="Grupo 150253" transform="translate(9.196)">
                <path id="Trazado_261713" data-name="Trazado 261713" d="M1417.961,1249.975l-4.276,5.652h-9.754l4.276-5.652Z" transform="translate(-1403.932 -1249.975)" fill="#f78248"/>
              </g>
              <g id="Grupo_150254" data-name="Grupo 150254" transform="translate(0 0)">
                <path id="Trazado_261714" data-name="Trazado 261714" d="M1345.162,1249.975l-4.276,5.652h-.715a2.315,2.315,0,0,1-2.191-1.879l-.314-1.894a1.555,1.555,0,0,1,1.567-1.879Z" transform="translate(-1337.641 -1249.975)" fill="#f78248"/>
              </g>
            </g>
          </g>
          <g id="Grupo_150257" data-name="Grupo 150257" transform="translate(18.003 15.965)">
            <path id="Trazado_261715" data-name="Trazado 261715" d="M1471.3,984.781h-3.7l-.188-1.135h5.17l.162.977L1470.485,991h-1.45Z" transform="translate(-1467.416 -983.52)" fill="#e6f0ff"/>
            <path id="Trazado_261716" data-name="Trazado 261716" d="M1515.168,986.542c-.348-2.1.651-3.8,2.585-3.8s3.473,1.681,3.825,3.8c.349,2.1-.651,3.8-2.584,3.8S1515.52,988.665,1515.168,986.542Zm5.075,0c-.241-1.45-1.183-2.638-2.318-2.638s-1.668,1.156-1.422,2.638c.24,1.45,1.173,2.638,2.318,2.638S1520.487,988.013,1520.243,986.542Z" transform="translate(-1508.484 -982.738)" fill="#e6f0ff"/>
            <path id="Trazado_261717" data-name="Trazado 261717" d="M1567.318,984.922a1.475,1.475,0,0,1,1.432-1.881,2.162,2.162,0,0,1,2.035,1.881,1.475,1.475,0,0,1-1.432,1.881A2.162,2.162,0,0,1,1567.318,984.922Zm2.532,0a1.168,1.168,0,0,0-.987-1.072c-.494,0-.708.483-.611,1.072a1.16,1.16,0,0,0,.987,1.072C1569.734,985.994,1569.947,985.51,1569.85,984.922Zm3.3-1.8h1.04l-4.16,7.356h-1.04Zm-.76,5.559a1.475,1.475,0,0,1,1.432-1.881,2.162,2.162,0,0,1,2.035,1.881,1.475,1.475,0,0,1-1.432,1.881A2.162,2.162,0,0,1,1572.386,988.684Zm2.532,0a1.168,1.168,0,0,0-.987-1.072c-.494,0-.708.483-.61,1.072a1.16,1.16,0,0,0,.987,1.072C1574.8,989.756,1575.016,989.272,1574.919,988.684Z" transform="translate(-1553.433 -982.999)" fill="#e6f0ff"/>
          </g>
          <g id="Grupo_150258" data-name="Grupo 150258" transform="translate(27.412 48.474)">
            <path id="Trazado_261718" data-name="Trazado 261718" d="M1535.238,1217.772h.4l.316,1.9h1.192l.06.363h-1.59Z" transform="translate(-1535.238 -1217.675)" fill="#e6f0ff"/>
            <path id="Trazado_261719" data-name="Trazado 261719" d="M1550.067,1222.426a.739.739,0,0,1,.765-.894,1.088,1.088,0,0,1,1.059.894.739.739,0,0,1-.769.891A1.086,1.086,0,0,1,1550.067,1222.426Zm1.432,0a.649.649,0,0,0-.616-.551.428.428,0,0,0-.424.551.65.65,0,0,0,.613.55A.43.43,0,0,0,1551.5,1222.426Z" transform="translate(-1547.999 -1220.913)" fill="#e6f0ff"/>
            <path id="Trazado_261720" data-name="Trazado 261720" d="M1566.784,1223.338l-.035-.211a.577.577,0,0,1-.513.246.668.668,0,0,1-.7-.534c-.063-.379.2-.561.6-.561a1.547,1.547,0,0,1,.485.071l-.005-.032a.432.432,0,0,0-.482-.366,1.072,1.072,0,0,0-.471.107l-.159-.314a1.32,1.32,0,0,1,.628-.142.8.8,0,0,1,.871.722l.168,1.014Zm-.109-.716a1.219,1.219,0,0,0-.4-.068c-.246,0-.375.1-.347.272a.344.344,0,0,0,.372.253c.259,0,.429-.146.394-.36Z" transform="translate(-1561.307 -1220.974)" fill="#e6f0ff"/>
            <path id="Trazado_261721" data-name="Trazado 261721" d="M1579.126,1218.578a.678.678,0,0,1,.646-.887.853.853,0,0,1,.633.3l-.152-.92h.392l.392,2.364h-.392l-.047-.285a.562.562,0,0,1-.53.321A1.007,1.007,0,0,1,1579.126,1218.578Zm1.383,0a.63.63,0,0,0-.586-.547c-.269,0-.458.208-.4.554a.624.624,0,0,0,.583.547A.429.429,0,0,0,1580.509,1218.578Z" transform="translate(-1573.024 -1217.072)" fill="#e6f0ff"/>
            <path id="Trazado_261722" data-name="Trazado 261722" d="M1593.767,1217.212h.421l.062.373h-.421Zm.121.635h.392l.284,1.71h-.392Z" transform="translate(-1585.648 -1217.193)" fill="#e6f0ff"/>
            <path id="Trazado_261723" data-name="Trazado 261723" d="M1601.155,1221.568h.392l.044.266a.5.5,0,0,1,.484-.3.715.715,0,0,1,.718.658l.181,1.088h-.392l-.161-.972a.436.436,0,0,0-.435-.418c-.227,0-.359.159-.315.424l.16.965h-.392Z" transform="translate(-1592.011 -1220.913)" fill="#e6f0ff"/>
            <path id="Trazado_261724" data-name="Trazado 261724" d="M1616.13,1223.6l.1-.295a1.267,1.267,0,0,0,.639.182c.35,0,.511-.182.454-.525l-.022-.133a.591.591,0,0,1-.55.314.943.943,0,0,1-.911-.807.639.639,0,0,1,.644-.8.884.884,0,0,1,.648.292l-.042-.256h.392l.226,1.36a.777.777,0,0,1-.11.644.83.83,0,0,1-.665.23A1.66,1.66,0,0,1,1616.13,1223.6Zm1.089-1.263a.586.586,0,0,0-.58-.473.384.384,0,0,0-.407.476.571.571,0,0,0,.564.473A.4.4,0,0,0,1617.22,1222.335Z" transform="translate(-1604.644 -1220.913)" fill="#e6f0ff"/>
          </g>
        </g>
      </g>
      <g id="Grupo_150286" data-name="Grupo 150286" transform="translate(44.591 123.865)">
        <g id="Grupo_150281" data-name="Grupo 150281" transform="translate(0 0)">
          <g id="Grupo_150261" data-name="Grupo 150261" transform="translate(35.314)">
            <path id="Trazado_261725" data-name="Trazado 261725" d="M795.53,1102.433s.335-3.647-3.741-3.647a4.785,4.785,0,0,1,1.874,1,4.819,4.819,0,0,0-5.428.819c-2.829,2.345-1.071,8.225-1.931,9.342s-4.21,1.34-3.8,4.95,10.631,8.132,9.975,11.119c0,0,4.006-5.888,1.141-8.576a5.309,5.309,0,0,1,1.538,2.878s.379-3.052-1.563-4.028c-1.719-.864-3.127-4.023-2.978-4.588S795.53,1102.433,795.53,1102.433Z" transform="translate(-782.469 -1098.785)" fill="#2c3a64"/>
          </g>
          <g id="Grupo_150262" data-name="Grupo 150262" transform="translate(40.045 21.16)">
            <path id="Trazado_261726" data-name="Trazado 261726" d="M820.893,1251.316s3.045,12.6,6.033,15.114c1.8,1.513,7.138,4.987,7.138,4.987l-2.222.806s-7.408-2.5-9.067-4.452-6.2-11.722-6.2-11.722Z" transform="translate(-816.575 -1251.316)" fill="#ffb27d"/>
          </g>
          <g id="Grupo_150263" data-name="Grupo 150263" transform="translate(43.272 40.949)">
            <path id="Trazado_261727" data-name="Trazado 261727" d="M858.41,1398.877l-.716-1.772a5.025,5.025,0,0,0-4.66-3.144h-13.2v44.13h54.6v-35.755h-30.9A5.531,5.531,0,0,1,858.41,1398.877Z" transform="translate(-839.836 -1393.961)" fill="#6376e5"/>
          </g>
          <g id="Grupo_150264" data-name="Grupo 150264" transform="translate(13.85 31.382)">
            <path id="Trazado_261728" data-name="Trazado 261728" d="M629.648,1336.907c.027.048.055.1.084.148.666,1.158,2.195,4,3.878,7.1.8,1.473,1.63,3.007,2.421,4.45,1.363,2.49,2.6,4.708,3.326,5.88.736,1.192,1.277,2.029,1.5,2.364l0,0a.555.555,0,0,1,.071.346,18.064,18.064,0,0,0,.048,3.123,23.955,23.955,0,0,0,7.827,15.516l2.025.3s-2.866-10.619-3.711-16.622a11.549,11.549,0,0,1-.155-2.38,24.861,24.861,0,0,0-.654-6.5,145.52,145.52,0,0,0-4.142-15.038c-.094-.294-2.943-10.6-2.943-10.6-2.39,2.09-11.11,2.952-11.11,2.952S626.634,1331.547,629.648,1336.907Z" transform="translate(-627.75 -1325)" fill="#2f539b"/>
          </g>
          <g id="Grupo_150265" data-name="Grupo 150265" transform="translate(32.679 80.375)">
            <path id="Trazado_261729" data-name="Trazado 261729" d="M771.971,1682.869h-8.453a4.642,4.642,0,0,1,.239-2.266c.423-.938,1.026-.968.077-2.438.537.553,2.264.782,3.486.618a10.344,10.344,0,0,0,1.465,2.23C769.338,1681.411,771.8,1681.269,771.971,1682.869Z" transform="translate(-763.472 -1678.165)" fill="#233862"/>
          </g>
          <g id="Grupo_150266" data-name="Grupo 150266" transform="translate(15.749 38.304)">
            <path id="Trazado_261730" data-name="Trazado 261730" d="M641.433,1379.883c.027.048.055.1.084.148.666,1.158,4.269,7.813,5.953,10.918a45.021,45.021,0,0,1-.594-16.05Z" transform="translate(-641.433 -1374.898)" fill="#233862"/>
          </g>
          <g id="Grupo_150267" data-name="Grupo 150267" transform="translate(40.63 3.075)">
            <path id="Trazado_261731" data-name="Trazado 261731" d="M827.383,1121.013a33.879,33.879,0,0,0-5.076,2.482c-2.29,2.54-1.637,5.855-.327,5.887.84.02.678,1.418.678,1.418l9.363-3.961S830.894,1120.265,827.383,1121.013Z" transform="translate(-820.791 -1120.954)" fill="#2c3a64"/>
          </g>
          <g id="Grupo_150268" data-name="Grupo 150268" transform="translate(39.149 19.269)">
            <path id="Trazado_261732" data-name="Trazado 261732" d="M815.04,1237.682a12,12,0,0,1,1.247,5.156s-1.718,2.712-6.174,3.4C810.113,1246.237,813.944,1237.68,815.04,1237.682Z" transform="translate(-810.113 -1237.682)" fill="#aec3ff"/>
          </g>
          <g id="Grupo_150269" data-name="Grupo 150269" transform="translate(1.121 29.618)">
            <path id="Trazado_261733" data-name="Trazado 261733" d="M557.205,1317.628l.029-1.581c-3.15.4-10.861-3.764-10.861-3.764s-3.3,2.192-3.747,8.452c-.22,3.055-1.613,15.976-1.767,19.834-.056,1.4-.075,2.4-.081,2.8a.008.008,0,0,1,0,0,.549.549,0,0,1-.134.325,18.043,18.043,0,0,0-1.707,2.616c-4.807,8.943-2.293,21.1-2.293,21.1l1.116-.284s4.064-12.6,6.72-18.046a11.4,11.4,0,0,1,1.2-2.059,24.852,24.852,0,0,0,3.09-5.752C550.736,1336.576,557.205,1317.628,557.205,1317.628Z" transform="translate(-535.987 -1312.283)" fill="#2f539b"/>
          </g>
          <g id="Grupo_150270" data-name="Grupo 150270" transform="translate(0 80.314)">
            <path id="Trazado_261734" data-name="Trazado 261734" d="M536.409,1682.49h-8.453a4.641,4.641,0,0,1,.239-2.266c.423-.938,1.086-1.364.927-2.5a3.045,3.045,0,0,0,2.635,1.008,9.282,9.282,0,0,0,1.467,1.9C533.776,1681.032,536.239,1680.891,536.409,1682.49Z" transform="translate(-527.91 -1677.726)" fill="#233862"/>
          </g>
          <g id="Grupo_150271" data-name="Grupo 150271" transform="translate(11.17 14.478)">
            <path id="Trazado_261735" data-name="Trazado 261735" d="M635.836,1218.308c-1.136.194.185,1.1-1.376,1.266a28.235,28.235,0,0,0-5.72.888,1.291,1.291,0,0,0-.823.667c-.521,1.567-3.821,4.259-3.821,4.259-14.719-.67-15.668-7.23-15.668-7.23,9.553-9.278,17.68-14.335,24.4-14.961a11.953,11.953,0,0,1,4.872.512c2.349,1.046,3.637,4.229,3.637,4.229S640.151,1217.572,635.836,1218.308Z" transform="translate(-608.428 -1203.147)" fill="#aec3ff"/>
          </g>
          <g id="Grupo_150272" data-name="Grupo 150272" transform="translate(30.454 18.93)">
            <path id="Trazado_261736" data-name="Trazado 261736" d="M754.183,1247.214a28.231,28.231,0,0,0-5.72.888c-3.475-6.926,2.973-12.863,2.973-12.863S753.7,1244.436,754.183,1247.214Z" transform="translate(-747.435 -1235.239)" fill="#94b0ed"/>
          </g>
          <g id="Grupo_150273" data-name="Grupo 150273" transform="translate(32.329 17.68)">
            <path id="Trazado_261737" data-name="Trazado 261737" d="M767.743,1226.239s-5.59-.305-6.583,3.2,1.863,17.517,2.479,18.963c1.121,2.632,6.772,10.472,6.772,10.472l1.811-.938s-3.638-11.477-4.45-12.612C766.5,1243.545,769.416,1227.766,767.743,1226.239Z" transform="translate(-760.952 -1226.233)" fill="#ffb27d"/>
          </g>
          <g id="Grupo_150274" data-name="Grupo 150274" transform="translate(41.544 49.143)">
            <path id="Trazado_261738" data-name="Trazado 261738" d="M829.436,1453.276a8.253,8.253,0,0,1,.844.866c.376.459.045.625,1.125,2.705,0,0-.055.289-.29.236s-1.049-.859-1.467-.8c0,0-.3.246-.332,1.061a19.659,19.659,0,0,1-.166,2.767c-.133.317-1.1-1.329-1.58-2.518-.419-1.043-.011-4.56-.011-4.56Z" transform="translate(-827.382 -1453.031)" fill="#ffb27d"/>
          </g>
          <g id="Grupo_150275" data-name="Grupo 150275" transform="translate(31.434 16.644)">
            <path id="Trazado_261739" data-name="Trazado 261739" d="M754.5,1227.7c.015.082,5.29.97,8.589-.7,0,0,2.756-8.635-1.183-8.222s-6.271,1.654-6.371,3.539A36.3,36.3,0,0,1,754.5,1227.7Z" transform="translate(-754.503 -1218.761)" fill="#aec3ff"/>
          </g>
          <g id="Grupo_150276" data-name="Grupo 150276" transform="translate(40.307 12.275)">
            <path id="Trazado_261740" data-name="Trazado 261740" d="M818.469,1190.639a3.511,3.511,0,0,0,1.061,2.459c.7.722,1.713,1.285,2.424.574a7.728,7.728,0,0,0,1.1-1.329c.615-1.057,1.347-2.136,1.347-2.136l-3.164-2.772-.189-.166a8.064,8.064,0,0,1-2.357,2.674A.735.735,0,0,0,818.469,1190.639Z" transform="translate(-818.463 -1187.269)" fill="#ffb27d"/>
          </g>
          <g id="Grupo_150277" data-name="Grupo 150277" transform="translate(43.024 12.441)">
            <path id="Trazado_261741" data-name="Trazado 261741" d="M841.266,1191.235s-.731,1.077-1.346,2.135c-1.966-1.212-1.969-3.647-1.817-4.908Z" transform="translate(-838.044 -1188.462)" fill="#ed985f"/>
          </g>
          <g id="Grupo_150278" data-name="Grupo 150278" transform="translate(42.893 6.787)">
            <path id="Trazado_261742" data-name="Trazado 261742" d="M840.54,1157.525s-4.775-2.657-3.074-5.6,2.229-5.276,5.349-3.7,3.059,3.035,2.73,4.157S841.825,1158.14,840.54,1157.525Z" transform="translate(-837.099 -1147.71)" fill="#ffb27d"/>
          </g>
          <g id="Grupo_150279" data-name="Grupo 150279" transform="translate(42.391 6.388)">
            <path id="Trazado_261743" data-name="Trazado 261743" d="M843.235,1148.174c-.219-1.309-.884-1.434-1.347-1.346a3.819,3.819,0,0,0-4.644-1.778,6.5,6.5,0,0,1-3.763,2.26s.554,1.031,2.837,1.669a3.9,3.9,0,0,0,2.252-.18,12.742,12.742,0,0,1-3.24,1.221c3.008.275,5.871-2.475,6.167-2.769a4.281,4.281,0,0,1,.237,1.971c-.2.887-.985,2.492-.5,2.7C841.229,1151.922,843.563,1150.137,843.235,1148.174Z" transform="translate(-833.481 -1144.831)" fill="#2c3a64"/>
          </g>
          <g id="Grupo_150280" data-name="Grupo 150280" transform="translate(57.705 41.176)">
            <path id="Trazado_261744" data-name="Trazado 261744" d="M944.577,1395.69s-1.332,1-.328,1.652,2.8.83,2.8.4C947.078,1396.305,946.36,1395.282,944.577,1395.69Z" transform="translate(-943.874 -1395.6)" fill="#ffb27d"/>
          </g>
        </g>
        <g id="Grupo_150282" data-name="Grupo 150282" transform="translate(52.695 54.925)">
          <path id="Trazado_261745" data-name="Trazado 261745" d="M912.641,1511.726h28.212c1.163,0,2.059-1.779,2.074-3.037.046-3.953-4.2-10.268-13.811-7.472,0,0-2.713-7.324-12.247-6.436-5.6.522-8.718,6.233-9.093,11.325A5.1,5.1,0,0,0,912.641,1511.726Z" transform="translate(-907.759 -1494.707)" fill="#aec3ff"/>
        </g>
        <g id="Grupo_150285" data-name="Grupo 150285" transform="translate(63.498 62.134)">
          <g id="Grupo_150283" data-name="Grupo 150283" transform="translate(4.049 3.839)">
            <rect id="Rectángulo_293738" data-name="Rectángulo 293738" width="5.464" height="12.553" transform="translate(5.464 12.553) rotate(180)" fill="#f99746"/>
          </g>
          <g id="Grupo_150284" data-name="Grupo 150284">
            <path id="Trazado_261746" data-name="Trazado 261746" d="M999.192,1553.05H985.63l6.781-6.374Z" transform="translate(-985.63 -1546.676)" fill="#f99746"/>
          </g>
        </g>
      </g>
      <g id="Grupo_150289" data-name="Grupo 150289" transform="translate(229.194 127.039)">
        <g id="Grupo_150287" data-name="Grupo 150287" transform="translate(0 0)">
          <path id="Trazado_261747" data-name="Trazado 261747" d="M1871.935,1128.25l-7.129,1.638-3.542,6.4-2.649-14.619Z" transform="translate(-1858.615 -1121.671)" fill="#233862"/>
        </g>
        <g id="Grupo_150288" data-name="Grupo 150288" transform="translate(4.765 6.809)">
          <rect id="Rectángulo_293739" data-name="Rectángulo 293739" width="1.303" height="7.536" transform="matrix(0.799, -0.602, 0.602, 0.799, 0, 0.784)" fill="#233862"/>
        </g>
      </g>
      <g id="Grupo_150315" data-name="Grupo 150315" transform="translate(109.833 31.514)">
        <g id="Grupo_150310" data-name="Grupo 150310" transform="translate(0)">
          <g id="Grupo_150290" data-name="Grupo 150290" transform="translate(21.362 58.004)">
            <path id="Trazado_261748" data-name="Trazado 261748" d="M1152.409,858.673a.833.833,0,0,0-.149.891.008.008,0,0,0,0,0,5.541,5.541,0,0,0,1.75,1.92c.105.085.2.162.281.234l.063.057.048.044c.769.709.48.871,1.862,2.31,1.576,1.64,2.661,1.669,2.969,1.52.261-.127-.269-1-.857-1.974-.029-.047-.056-.095-.086-.142-.078-.13-.156-.262-.234-.392-.689-1.176-.512-1.728-.349-3.479.133-1.422,2.213-7.947,2.213-7.947l-3.02-.52s-.91,5.2-1.911,6c-.536.427-1.135.432-1.65.748-.037.022-.072.044-.107.068A3.968,3.968,0,0,0,1152.409,858.673Z" transform="translate(-1152.194 -851.198)" fill="#ffb27d"/>
          </g>
          <g id="Grupo_150291" data-name="Grupo 150291" transform="translate(21.362 64.815)">
            <path id="Trazado_261749" data-name="Trazado 261749" d="M1152.409,900.959a.833.833,0,0,0-.149.891.008.008,0,0,0,0,0,6.416,6.416,0,0,0,1.753,1.914c.1.086.2.166.278.24l.063.057.048.044c.769.709.48.871,1.862,2.31,1.576,1.64,2.661,1.669,2.969,1.52.261-.127-.269-1-.857-1.974a6.715,6.715,0,0,1-2.809-2.07c-.914-1.167-1.535-2.654-2.157-3.567l-.177-.033A3.962,3.962,0,0,0,1152.409,900.959Z" transform="translate(-1152.194 -900.295)" fill="#233862"/>
          </g>
          <g id="Grupo_150292" data-name="Grupo 150292" transform="translate(43.51 57.085)">
            <path id="Trazado_261750" data-name="Trazado 261750" d="M1314.263,851.081c.187.932,1.515.777,3,.414s1.131.068,3.244-.165,2.752-1.022,2.817-1.336c.058-.279-.986-.377-2.106-.506-.141-.016-.282-.033-.424-.051-1.264-.159-2.19-.974-3.338-1.644-1.088-.635-2.711-3.22-2.711-3.22l-2.9.229s1.521,2.309,2.109,3.313a3.5,3.5,0,0,1,.284,1.974A3.724,3.724,0,0,0,1314.263,851.081Z" transform="translate(-1311.848 -844.573)" fill="#ffb27d"/>
          </g>
          <g id="Grupo_150293" data-name="Grupo 150293" transform="translate(45.881 62)">
            <path id="Trazado_261751" data-name="Trazado 261751" d="M1331.982,882.009c1.484-.363,1.132.068,3.244-.166s2.752-1.022,2.817-1.336c.058-.279-.986-.377-2.106-.506l-.011.022a5.953,5.953,0,0,1-3.025.94c-1.433.035-2.952-.376-3.941-.36a3.72,3.72,0,0,0,.022.991C1329.169,882.527,1330.5,882.372,1331.982,882.009Z" transform="translate(-1328.938 -880.002)" fill="#233862"/>
          </g>
          <g id="Grupo_150294" data-name="Grupo 150294" transform="translate(24.882 40.423)">
            <path id="Trazado_261752" data-name="Trazado 261752" d="M1187.512,729.111,1184.8,736.4l-3.536,9.516a5.725,5.725,0,0,1-1.878-.172,8.147,8.147,0,0,1-1.817-.884s.982-10.218,2.814-16.083a10.448,10.448,0,0,1,1.576-3.409C1184.8,722.012,1187.512,729.111,1187.512,729.111Z" transform="translate(-1177.572 -724.467)" fill="#94b0ed"/>
          </g>
          <g id="Grupo_150295" data-name="Grupo 150295" transform="translate(5.871 32.038)">
            <path id="Trazado_261753" data-name="Trazado 261753" d="M1066.727,665.476c-1.542-.5-5.564-.008-9.928.782a2.96,2.96,0,0,1-3.056-1.38h0l-10.981-.858s-3.623,8.035-1.64,13.155a1.926,1.926,0,0,0,1.919,1.238h0s6.635.009,8.757.009c5.46,0,11.557-3.754,12.345-3.911,1.291-.258,1.807,2.323,3.1,5.034s12.134,12,12.134,12a9.552,9.552,0,0,0,2.355-.242,2.316,2.316,0,0,0,1.011-.638S1070.728,666.767,1066.727,665.476Z" transform="translate(-1040.53 -664.021)" fill="#aec3ff"/>
          </g>
          <g id="Grupo_150296" data-name="Grupo 150296" transform="translate(0.04)">
            <path id="Trazado_261754" data-name="Trazado 261754" d="M1016.378,433.728a3.9,3.9,0,0,0-2.1-.546,5.825,5.825,0,0,1-1.013-.061c-4.191-.615-6.715,5.473-6.862,7.312-.272,3.377-2.058,3.892-4.572,6.007-5.042,4.24-3.563,9.168-.806,11,1.654,1.1,4.57,0,4.57,0,.041.029,7.974-4.434,11.884-6.587C1023.342,450.017,1018.733,435.13,1016.378,433.728Z" transform="translate(-998.5 -433.077)" fill="#233862"/>
          </g>
          <g id="Grupo_150297" data-name="Grupo 150297" transform="translate(10.393 9.793)">
            <path id="Trazado_261755" data-name="Trazado 261755" d="M1078.477,509.815a5.17,5.17,0,0,1-3.222.1,5.744,5.744,0,0,1-2.128-2.55c.555-.026,1.165-.511,1.635-3.7l.237.085,3.977,1.431s-.288,1.276-.474,2.491C1078.344,508.694,1078.26,509.671,1078.477,509.815Z" transform="translate(-1073.127 -503.667)" fill="#ffb27d"/>
          </g>
          <g id="Grupo_150298" data-name="Grupo 150298" transform="translate(12.265 9.877)">
            <path id="Trazado_261756" data-name="Trazado 261756" d="M1090.6,505.709s-.159.688-.39,1.975a4.49,4.49,0,0,1-3.587-3.406Z" transform="translate(-1086.619 -504.278)" fill="#ed975d"/>
          </g>
          <g id="Grupo_150299" data-name="Grupo 150299" transform="translate(11.866 3.004)">
            <path id="Trazado_261757" data-name="Trazado 261757" d="M1088.715,464.3s-5.441-.73-4.934-4.112.146-5.753,3.641-5.43,3.976,1.715,4.081,2.884S1090.143,464.405,1088.715,464.3Z" transform="translate(-1083.748 -454.732)" fill="#ffb27d"/>
          </g>
          <g id="Grupo_150300" data-name="Grupo 150300" transform="translate(10.305 2.705)">
            <path id="Trazado_261758" data-name="Trazado 261758" d="M1081.613,453.937s-3.483,3-5.852,3.244-3.266-.519-3.266-.519a9.249,9.249,0,0,0,2.237-3.03,1.667,1.667,0,0,1,1.373-.982C1077.8,452.5,1081,452.437,1081.613,453.937Z" transform="translate(-1072.494 -452.578)" fill="#233862"/>
          </g>
          <g id="Grupo_150301" data-name="Grupo 150301" transform="translate(17.246 3.145)">
            <path id="Trazado_261759" data-name="Trazado 261759" d="M1122.528,456.4a8.578,8.578,0,0,1,1.532,1.962,6.585,6.585,0,0,1,.178,3.5s1.815-3.53.788-5.245A1.451,1.451,0,0,0,1122.528,456.4Z" transform="translate(-1122.528 -455.746)" fill="#233862"/>
          </g>
          <g id="Grupo_150302" data-name="Grupo 150302" transform="translate(5.724 13.362)">
            <path id="Trazado_261760" data-name="Trazado 261760" d="M1054.069,539.991c-.164,11.014-.045,8.712-1.25,9.758a4.627,4.627,0,0,1-2.181.472c-3.377.224-9.314-.332-9.54-.956-.779-2.16-.229-2.831-.879-6.137-.068-.352-.152-.732-.25-1.147-.542-2.271-1.069-3.043.853-6.692,1.743-3.3,3.555-5.987,3.718-5.89,4.6,2.731,4.971.435,4.971.435S1054.15,534.618,1054.069,539.991Z" transform="translate(-1039.468 -529.397)" fill="#f99746"/>
          </g>
          <g id="Grupo_150303" data-name="Grupo 150303" transform="translate(24.882 44.733)">
            <path id="Trazado_261761" data-name="Trazado 261761" d="M1184.8,763.155l-3.536,9.516a5.725,5.725,0,0,1-1.878-.172,8.143,8.143,0,0,1-1.817-.884s.982-10.218,2.814-16.083Z" transform="translate(-1177.572 -755.532)" fill="#aec3ff"/>
          </g>
          <g id="Grupo_150304" data-name="Grupo 150304" transform="translate(15.767 13.799)">
            <path id="Trazado_261762" data-name="Trazado 261762" d="M1111.865,532.549s4.733.8,5.289,2.84,2.385,14.407,2.385,14.407-1.335,1.3-2.446.192-3.5-11.573-3.5-11.573Z" transform="translate(-1111.865 -532.549)" fill="#f99746"/>
          </g>
          <g id="Grupo_150305" data-name="Grupo 150305" transform="translate(6.475 22.506)">
            <path id="Trazado_261763" data-name="Trazado 261763" d="M1055.306,606.991c-3.377.224-9.314-.332-9.54-.956-.779-2.16-.229-2.831-.879-6.137l1.629-4.587s-.269,5.108,1.237,6.451,6.167,2.594,6.9,3.716A4.108,4.108,0,0,1,1055.306,606.991Z" transform="translate(-1044.887 -595.311)" fill="#ed7d2b"/>
          </g>
          <g id="Grupo_150306" data-name="Grupo 150306" transform="translate(13.025 31.522)">
            <path id="Trazado_261764" data-name="Trazado 261764" d="M1092.1,660.818s3.332-.742,3.87-.446a7.827,7.827,0,0,1,2.016,1.747c.165.375-1.2-.284-1.64-.4a3.94,3.94,0,0,0-1.415.31,4.7,4.7,0,0,1-2.536.254Z" transform="translate(-1092.097 -660.302)" fill="#ffb27d"/>
          </g>
          <g id="Grupo_150307" data-name="Grupo 150307" transform="translate(0 13.362)">
            <path id="Trazado_261765" data-name="Trazado 261765" d="M1009,529.4s-4.474.276-6.023,2.436c-2.18,3.041-6.505,16-4.026,17.728,2.791,1.946,12.7.509,12.7.509a4.026,4.026,0,0,0-.129-2.288c-.459-.746-7.917-1.951-8.262-2.295s4.3-6.712,4.3-7.745S1009,529.4,1009,529.4Z" transform="translate(-998.21 -529.398)" fill="#f99746"/>
          </g>
          <g id="Grupo_150308" data-name="Grupo 150308" transform="translate(17.055 32.519)">
            <path id="Trazado_261766" data-name="Trazado 261766" d="M1121.153,667.489a6.442,6.442,0,0,0,.927,1.008.684.684,0,0,0,.377.081l-.471-.847Z" transform="translate(-1121.153 -667.489)" fill="#ffb27d"/>
          </g>
          <g id="Grupo_150309" data-name="Grupo 150309" transform="translate(16.894 31.592)">
            <path id="Trazado_261767" data-name="Trazado 261767" d="M1119.99,660.8l2.03.986a.361.361,0,0,1-.336.13,4.848,4.848,0,0,1-.88-.242Z" transform="translate(-1119.99 -660.804)" fill="#ffb27d"/>
          </g>
        </g>
        <g id="Grupo_150314" data-name="Grupo 150314" transform="translate(13.025 22.366)">
          <g id="Grupo_150311" data-name="Grupo 150311" transform="translate(0 11.543)">
            <path id="Trazado_261768" data-name="Trazado 261768" d="M1113.3,677.507h-21.2v.468h21.014Z" transform="translate(-1092.097 -677.507)" fill="#233862"/>
          </g>
          <g id="Grupo_150312" data-name="Grupo 150312" transform="translate(4.958)">
            <path id="Trazado_261769" data-name="Trazado 261769" d="M1127.835,606.313h16.056l4.83-12.011H1132.69Z" transform="translate(-1127.835 -594.302)" fill="#233862"/>
          </g>
          <g id="Grupo_150313" data-name="Grupo 150313" transform="translate(15.401 5.241)">
            <path id="Trazado_261770" data-name="Trazado 261770" d="M1204.672,632.845a.556.556,0,0,0-.545-.764,1.1,1.1,0,0,0-.984.764.556.556,0,0,0,.545.765A1.1,1.1,0,0,0,1204.672,632.845Z" transform="translate(-1203.113 -632.081)" fill="#fff"/>
          </g>
        </g>
      </g>
      <g id="Grupo_150330" data-name="Grupo 150330" transform="translate(276.666 96.453)">
        <g id="Grupo_150316" data-name="Grupo 150316" transform="translate(19.969 18.321)">
          <path id="Trazado_261771" data-name="Trazado 261771" d="M2344.759,1033.26s7.781,7.915,8.179,11.2-4.034,8.416-4.034,8.416Z" transform="translate(-2344.759 -1033.26)" fill="#ed7d2b"/>
        </g>
        <g id="Grupo_150317" data-name="Grupo 150317" transform="translate(4.135 106.497)">
          <path id="Trazado_261772" data-name="Trazado 261772" d="M2242.007,1670.369s-.3,4.631-1.193,4.7c-.12.009-4.545,0-4.545,0l-5.65-.045a1.834,1.834,0,0,1,1.692-1.646c1.652-.284,4.419-1.439,5.424-3.619C2238.792,1667.46,2242.007,1670.369,2242.007,1670.369Z" transform="translate(-2230.619 -1668.872)" fill="#0e2644"/>
        </g>
        <g id="Grupo_150318" data-name="Grupo 150318" transform="translate(16.719 106.524)">
          <path id="Trazado_261773" data-name="Trazado 261773" d="M2332.72,1670.566s-.3,4.631-1.193,4.7c-.119.009-4.545,0-4.545,0l-5.65-.045a1.833,1.833,0,0,1,1.692-1.645c1.652-.284,4.419-1.439,5.424-3.62C2329.506,1667.657,2332.72,1670.566,2332.72,1670.566Z" transform="translate(-2321.332 -1669.069)" fill="#0e2644"/>
        </g>
        <g id="Grupo_150319" data-name="Grupo 150319" transform="translate(9.374 51.152)">
          <path id="Trazado_261774" data-name="Trazado 261774" d="M2268.388,1276.968s1.457,9.454,6.933,26.243,6.212,24.055,6.212,24.055l5.914-.153s.09-18.335-2.432-26.777-.482-30.415-.482-30.415Z" transform="translate(-2268.388 -1269.921)" fill="#163560"/>
        </g>
        <g id="Grupo_150320" data-name="Grupo 150320" transform="translate(6.504 51.629)">
          <path id="Trazado_261775" data-name="Trazado 261775" d="M2247.706,1273.355a229.454,229.454,0,0,0,2.186,31.733c2.426,17.492,1.575,24.913,1.575,24.913l5.9.209s3.565-17.485,2.573-26.24,4.9-30.022,4.9-30.022Z" transform="translate(-2247.7 -1273.355)" fill="#1c468a"/>
        </g>
        <g id="Grupo_150321" data-name="Grupo 150321" transform="translate(10.317 11.283)">
          <path id="Trazado_261776" data-name="Trazado 261776" d="M2282.872,989.571l-3.149,2.055-4.542-.857c.064-.367.367-1.887.643-3.263.017-.081.033-.162.049-.242.236-1.171.441-2.177.441-2.177l4.249-1.864,1.584-.695c0,.025-.126,1.3-.143,1.487A10.823,10.823,0,0,0,2282.872,989.571Z" transform="translate(-2275.181 -982.528)" fill="#ffb27d"/>
        </g>
        <g id="Grupo_150322" data-name="Grupo 150322" transform="translate(9.663 15.835)">
          <path id="Trazado_261777" data-name="Trazado 261777" d="M2272.292,1016.776c.088-.037,5.476-1.614,6.06-1.42s.928,1.327.928,1.327l-8.811,1.972A4.373,4.373,0,0,1,2272.292,1016.776Z" transform="translate(-2270.469 -1015.34)" fill="#ed7d2b"/>
        </g>
        <g id="Grupo_150323" data-name="Grupo 150323" transform="translate(5.496 17.131)">
          <path id="Trazado_261778" data-name="Trazado 261778" d="M2260.843,1060.98c-.922,4.161-16.112,4.622-20.018.834-.445-.432-.462-2.436-.289-5.138.34-5.279,1.412-13.218,1.462-17.276a32.1,32.1,0,0,1,.661-5.782,46.967,46.967,0,0,1,1.941-6.918s7.424-2.382,8.811-1.971C2260.095,1026.709,2261.764,1056.818,2260.843,1060.98Z" transform="translate(-2240.433 -1024.682)" fill="#f99746"/>
        </g>
        <g id="Grupo_150324" data-name="Grupo 150324" transform="translate(5.599 25.29)">
          <path id="Trazado_261779" data-name="Trazado 261779" d="M2241.172,1107.332c.34-5.279,1.412-13.218,1.462-17.276a32.119,32.119,0,0,1,.661-5.782l4.464-.778S2252.681,1102.409,2241.172,1107.332Z" transform="translate(-2241.172 -1083.496)" fill="#ed7d2b"/>
        </g>
        <g id="Grupo_150325" data-name="Grupo 150325" transform="translate(6.754 41.08)">
          <path id="Trazado_261780" data-name="Trazado 261780" d="M2250.779,1198.008a1.05,1.05,0,0,1-.337,1.214,2.037,2.037,0,0,0-.911,1.855c.145.578,1.545,1.524,2.031,1.373s1.476-.91,1.37-1.215.671-2.674-.511-3.589A.956.956,0,0,0,2250.779,1198.008Z" transform="translate(-2249.501 -1197.316)" fill="#ffb27d"/>
        </g>
        <g id="Grupo_150326" data-name="Grupo 150326" transform="translate(0 18.336)">
          <path id="Trazado_261781" data-name="Trazado 261781" d="M2213.766,1033.369s-4.232.558-7.711,5.661-5.769,8.9-5.134,10.741,6.444,8.245,7.448,8.247a2.691,2.691,0,0,0,2.72-2.367s-3.681-6.535-2.871-7.453c.346-.393,4.927-4.041,5.633-2.214C2215.02,1049.006,2213.766,1033.369,2213.766,1033.369Z" transform="translate(-2200.814 -1033.369)" fill="#f99746"/>
        </g>
        <g id="Grupo_150327" data-name="Grupo 150327" transform="translate(10.96 11.978)">
          <path id="Trazado_261782" data-name="Trazado 261782" d="M2285.677,988.383c-.936,1.577-4.411,2.935-5.861,3.433.017-.081.034-.162.049-.242.236-1.171.441-2.177.441-2.177l4.248-1.864C2285.493,987.523,2286.063,987.734,2285.677,988.383Z" transform="translate(-2279.816 -987.533)" fill="#fca56b"/>
        </g>
        <g id="Grupo_150328" data-name="Grupo 150328" transform="translate(9.001 2.335)">
          <path id="Trazado_261783" data-name="Trazado 261783" d="M2266.55,929.27s6.832,2.148,8.1-2.128,3.01-6.878-1.3-8.43-5.645-.174-6.417,1.15S2264.806,928.6,2266.55,929.27Z" transform="translate(-2265.701 -918.025)" fill="#ffb27d"/>
        </g>
        <g id="Grupo_150329" data-name="Grupo 150329" transform="translate(9.87)">
          <path id="Trazado_261784" data-name="Trazado 261784" d="M2272.6,904.953s.425,4.979,1.455,4.765,1.964-.372,1.81,1.128-1.585,3.23,1.587,3.5,7.752-7.9,6.883-9.452C2281.828,900.422,2268.975,899.492,2272.6,904.953Z" transform="translate(-2271.959 -901.192)" fill="#163560"/>
        </g>
      </g>
      <g id="Grupo_150331" data-name="Grupo 150331" transform="translate(0 208.943)">
        <rect id="Rectángulo_293740" data-name="Rectángulo 293740" width="368.546" height="1.012" rx="0.506" transform="translate(0)" fill="#2e3552"/>
      </g>
    </g>
  </g>
</svg>
