<svg xmlns="http://www.w3.org/2000/svg" width="112.971" height="115" viewBox="0 0 112.971 115">
  <g id="Grupo_172996" data-name="Grupo 172996" transform="translate(-542 -936)">
    <path id="Trazado_262421" data-name="Trazado 262421" d="M36.728,9.47,27.763.5a1.748,1.748,0,0,0-.585-.389,1.788,1.788,0,0,0-.687-.14H6.789a1.793,1.793,0,1,0,0,3.586h5.338a8.889,8.889,0,0,1-.014,14.345H6.789a1.793,1.793,0,1,0,0,3.586H26.4a.651.651,0,0,0,.081.018,1.788,1.788,0,0,0,1.268-.525l8.98-8.98A1.793,1.793,0,0,0,36.728,9.47Z" transform="translate(545.068 936.18)" fill="#48cfad"/>
    <ellipse id="Elipse_6214" data-name="Elipse 6214" cx="9.862" cy="9.862" rx="9.862" ry="9.862" transform="translate(542 937.967)" fill="#ccd1d9"/>
    <path id="Trazado_262422" data-name="Trazado 262422" d="M.5,5.479H20.222V7.286H.5Z" transform="translate(541.502 940.545)" fill="#ccd1d9"/>
    <circle id="Elipse_6215" data-name="Elipse 6215" cx="9.856" cy="9.856" r="9.856" transform="translate(542.18 936)" fill="#e6e9ed"/>
    <path id="Trazado_262423" data-name="Trazado 262423" d="M9.375,8.07H5.789a1.793,1.793,0,1,1,0-3.586H9.375a1.793,1.793,0,1,1,0,3.586Z" transform="translate(544.275 939.756)" fill="#ccd1d9"/>
    <path id="Trazado_262424" data-name="Trazado 262424" d="M54.67,22.48,45.7,13.515a1.748,1.748,0,0,0-.585-.389,1.788,1.788,0,0,0-.687-.14H6.789a1.793,1.793,0,0,0,0,3.586h5.338a8.889,8.889,0,0,1-.014,14.345H6.789a1.793,1.793,0,1,0,0,3.586H44.342a.651.651,0,0,0,.081.018A1.788,1.788,0,0,0,45.69,34l8.98-8.98a1.791,1.791,0,0,0,0-2.535Z" transform="translate(545.068 946.498)" fill="#a0d468"/>
    <ellipse id="Elipse_6216" data-name="Elipse 6216" cx="9.862" cy="9.862" rx="9.862" ry="9.862" transform="translate(542 961.295)" fill="#ccd1d9"/>
    <path id="Trazado_262425" data-name="Trazado 262425" d="M.5,18.488H20.222V20.3H.5Z" transform="translate(541.502 950.862)" fill="#ccd1d9"/>
    <ellipse id="Elipse_6217" data-name="Elipse 6217" cx="9.862" cy="9.862" rx="9.862" ry="9.862" transform="translate(542 959.488)" fill="#e6e9ed"/>
    <path id="Trazado_262426" data-name="Trazado 262426" d="M9.375,21.08H5.789a1.793,1.793,0,1,1,0-3.586H9.375a1.793,1.793,0,1,1,0,3.586Z" transform="translate(544.275 950.074)" fill="#ccd1d9"/>
    <path id="Trazado_262427" data-name="Trazado 262427" d="M72.612,35.49l-8.965-8.965a1.748,1.748,0,0,0-.585-.389,1.788,1.788,0,0,0-.687-.14H6.789a1.793,1.793,0,0,0,0,3.586h5.338a8.889,8.889,0,0,1-.014,14.345H6.789a1.793,1.793,0,1,0,0,3.586H62.283a.651.651,0,0,0,.081.018,1.788,1.788,0,0,0,1.268-.525l8.98-8.98a1.791,1.791,0,0,0,0-2.535Z" transform="translate(545.068 956.817)" fill="#ffce54"/>
    <ellipse id="Elipse_6218" data-name="Elipse 6218" cx="9.862" cy="9.862" rx="9.862" ry="9.862" transform="translate(542 984.624)" fill="#ccd1d9"/>
    <path id="Trazado_262428" data-name="Trazado 262428" d="M.5,31.5H20.222v1.807H.5Z" transform="translate(541.502 961.18)" fill="#ccd1d9"/>
    <ellipse id="Elipse_6219" data-name="Elipse 6219" cx="9.862" cy="9.862" rx="9.862" ry="9.862" transform="translate(542 982.816)" fill="#e6e9ed"/>
    <path id="Trazado_262429" data-name="Trazado 262429" d="M9.375,34.09H5.789a1.793,1.793,0,1,1,0-3.586H9.375a1.793,1.793,0,1,1,0,3.586Z" transform="translate(544.275 960.392)" fill="#ccd1d9"/>
    <path id="Trazado_262430" data-name="Trazado 262430" d="M90.553,48.5l-8.965-8.969A1.8,1.8,0,0,0,81,39.142a1.784,1.784,0,0,0-.687-.136H6.789a1.793,1.793,0,0,0,0,3.586h5.338a8.889,8.889,0,0,1-.014,14.345H6.789a1.793,1.793,0,1,0,0,3.586H80.225c.029,0,.052.014.081.014a1.788,1.788,0,0,0,1.268-.525l8.98-8.976A1.791,1.791,0,0,0,90.553,48.5Z" transform="translate(545.068 967.135)" fill="#fc6e51"/>
    <ellipse id="Elipse_6220" data-name="Elipse 6220" cx="9.862" cy="9.862" rx="9.862" ry="9.862" transform="translate(542 1007.948)" fill="#ccd1d9"/>
    <path id="Trazado_262431" data-name="Trazado 262431" d="M.5,44.508H20.222v1.8H.5Z" transform="translate(541.502 971.498)" fill="#ccd1d9"/>
    <ellipse id="Elipse_6221" data-name="Elipse 6221" cx="9.862" cy="9.862" rx="9.862" ry="9.862" transform="translate(542 1006.144)" fill="#e6e9ed"/>
    <path id="Trazado_262432" data-name="Trazado 262432" d="M9.375,47.1H5.789a1.793,1.793,0,1,1,0-3.586H9.375a1.793,1.793,0,1,1,0,3.586Z" transform="translate(544.275 970.708)" fill="#ccd1d9"/>
    <path id="Trazado_262433" data-name="Trazado 262433" d="M109.377,61.508l-8.965-8.965a1.748,1.748,0,0,0-.585-.389,1.77,1.77,0,0,0-.683-.14H6.789a1.793,1.793,0,1,0,0,3.586h5.338a8.889,8.889,0,0,1-.014,14.345H6.789a1.793,1.793,0,1,0,0,3.586H99.052a.532.532,0,0,0,.081.018,1.788,1.788,0,0,0,1.268-.525l8.976-8.98a1.791,1.791,0,0,0,0-2.535Z" transform="translate(545.068 977.451)" fill="#ed5565"/>
    <ellipse id="Elipse_6222" data-name="Elipse 6222" cx="9.862" cy="9.862" rx="9.862" ry="9.862" transform="translate(542 1031.274)" fill="#ccd1d9"/>
    <path id="Trazado_262434" data-name="Trazado 262434" d="M.5,57.516H20.222v1.807H.5Z" transform="translate(541.502 981.815)" fill="#ccd1d9"/>
    <ellipse id="Elipse_6223" data-name="Elipse 6223" cx="9.862" cy="9.862" rx="9.862" ry="9.862" transform="translate(542 1029.469)" fill="#e6e9ed"/>
    <path id="Trazado_262435" data-name="Trazado 262435" d="M9.375,60.107H5.789a1.793,1.793,0,1,1,0-3.586H9.375a1.793,1.793,0,1,1,0,3.586Z" transform="translate(544.275 981.026)" fill="#ccd1d9"/>
  </g>
</svg>
