<svg xmlns="http://www.w3.org/2000/svg" xmlns:xlink="http://www.w3.org/1999/xlink" width="295" height="180" viewBox="0 0 295 180">
  <defs>
    <clipPath id="clip-path">
      <rect id="Rectángulo_293864" data-name="Rectángulo 293864" width="295" height="180" transform="translate(180 778)" fill="#fff" stroke="#707070" stroke-width="1"/>
    </clipPath>
    <clipPath id="clip-path-2">
      <rect id="Rectángulo_293863" data-name="Rectángulo 293863" width="243" height="180" transform="translate(-0.32 0)" fill="#fff" stroke="#707070" stroke-width="1"/>
    </clipPath>
    <linearGradient id="linear-gradient" x1="0.5" x2="0.5" y2="1" gradientUnits="objectBoundingBox">
      <stop offset="0" stop-color="#93eac2"/>
      <stop offset="1" stop-color="#20cb7d"/>
    </linearGradient>
  </defs>
  <g id="Enmascarar_grupo_130591" data-name="Enmascarar grupo 130591" transform="translate(-180 -778)" clip-path="url(#clip-path)">
    <g id="Enmascarar_grupo_130590" data-name="Enmascarar grupo 130590" transform="translate(205.32 778)" clip-path="url(#clip-path-2)">
      <g id="Grupo_172787" data-name="Grupo 172787" transform="translate(-28.343 -10.915)">
        <g id="Grupo_172786" data-name="Grupo 172786" transform="translate(0 0)">
          <g id="Grupo_172785" data-name="Grupo 172785" transform="translate(0 0)">
            <g id="Grupo_172784" data-name="Grupo 172784">
              <path id="Trazado_262819" data-name="Trazado 262819" d="M53.981,0A53.981,53.981,0,1,1,0,53.981,53.981,53.981,0,0,1,53.981,0Z" transform="translate(161.396 83.306)" fill="#c6cbe2" opacity="0.444" style="mix-blend-mode: multiply;isolation: isolate"/>
              <path id="Trazado_262820" data-name="Trazado 262820" d="M36.886,0A36.886,36.886,0,1,1,0,36.886,36.886,36.886,0,0,1,36.886,0Z" transform="translate(30.16 13.692)" opacity="0.6" fill="url(#linear-gradient)" style="mix-blend-mode: multiply;isolation: isolate"/>
              <rect id="Rectángulo_293862" data-name="Rectángulo 293862" width="287.772" height="198.912" fill="none"/>
              <path id="Trazado_262821" data-name="Trazado 262821" d="M23.316,0A23.316,23.316,0,1,1,0,23.316,23.316,23.316,0,0,1,23.316,0Z" transform="translate(40.066 132.182)" fill="#fed9a0" opacity="0.444" style="mix-blend-mode: multiply;isolation: isolate"/>
              <g id="Grupo_172783" data-name="Grupo 172783" transform="translate(181.66 109.115)">
                <g id="Grupo_172771" data-name="Grupo 172771" transform="translate(0)">
                  <path id="Trazado_262822" data-name="Trazado 262822" d="M415.68,50.925a.734.734,0,1,1-.733-.7A.718.718,0,0,1,415.68,50.925Z" transform="translate(-414.214 -50.224)" fill="#fff"/>
                  <path id="Trazado_262823" data-name="Trazado 262823" d="M424.126,50.925a.734.734,0,1,1-.733-.7A.717.717,0,0,1,424.126,50.925Z" transform="translate(-416.063 -50.224)" fill="#fff"/>
                  <path id="Trazado_262824" data-name="Trazado 262824" d="M432.572,50.925a.734.734,0,1,1-.733-.7A.717.717,0,0,1,432.572,50.925Z" transform="translate(-417.912 -50.224)" fill="#fff"/>
                  <path id="Trazado_262825" data-name="Trazado 262825" d="M441.019,50.925a.734.734,0,1,1-.733-.7A.718.718,0,0,1,441.019,50.925Z" transform="translate(-419.762 -50.224)" fill="#fff"/>
                  <path id="Trazado_262826" data-name="Trazado 262826" d="M449.465,50.925a.734.734,0,1,1-.733-.7A.717.717,0,0,1,449.465,50.925Z" transform="translate(-421.611 -50.224)" fill="#fff"/>
                  <path id="Trazado_262827" data-name="Trazado 262827" d="M457.911,50.925a.734.734,0,1,1-.733-.7A.717.717,0,0,1,457.911,50.925Z" transform="translate(-423.46 -50.224)" fill="#fff"/>
                  <path id="Trazado_262828" data-name="Trazado 262828" d="M466.358,50.925a.734.734,0,1,1-.733-.7A.718.718,0,0,1,466.358,50.925Z" transform="translate(-425.31 -50.224)" fill="#fff"/>
                  <path id="Trazado_262829" data-name="Trazado 262829" d="M474.8,50.925a.734.734,0,1,1-.733-.7A.717.717,0,0,1,474.8,50.925Z" transform="translate(-427.159 -50.224)" fill="#fff"/>
                  <path id="Trazado_262830" data-name="Trazado 262830" d="M483.25,50.925a.734.734,0,1,1-.733-.7A.717.717,0,0,1,483.25,50.925Z" transform="translate(-429.008 -50.224)" fill="#fff"/>
                  <path id="Trazado_262831" data-name="Trazado 262831" d="M491.7,50.925a.734.734,0,1,1-.733-.7A.718.718,0,0,1,491.7,50.925Z" transform="translate(-430.858 -50.224)" fill="#fff"/>
                  <path id="Trazado_262832" data-name="Trazado 262832" d="M500.143,50.925a.734.734,0,1,1-.733-.7A.718.718,0,0,1,500.143,50.925Z" transform="translate(-432.707 -50.224)" fill="#fff"/>
                </g>
                <g id="Grupo_172772" data-name="Grupo 172772" transform="translate(0 5.608)">
                  <path id="Trazado_262833" data-name="Trazado 262833" d="M415.68,58.433a.734.734,0,1,1-.733-.7A.718.718,0,0,1,415.68,58.433Z" transform="translate(-414.214 -57.732)" fill="#fff"/>
                  <path id="Trazado_262834" data-name="Trazado 262834" d="M424.126,58.433a.734.734,0,1,1-.733-.7A.717.717,0,0,1,424.126,58.433Z" transform="translate(-416.063 -57.732)" fill="#fff"/>
                  <path id="Trazado_262835" data-name="Trazado 262835" d="M432.572,58.433a.734.734,0,1,1-.733-.7A.717.717,0,0,1,432.572,58.433Z" transform="translate(-417.912 -57.732)" fill="#fff"/>
                  <path id="Trazado_262836" data-name="Trazado 262836" d="M441.019,58.433a.734.734,0,1,1-.733-.7A.718.718,0,0,1,441.019,58.433Z" transform="translate(-419.762 -57.732)" fill="#fff"/>
                  <path id="Trazado_262837" data-name="Trazado 262837" d="M449.465,58.433a.734.734,0,1,1-.733-.7A.717.717,0,0,1,449.465,58.433Z" transform="translate(-421.611 -57.732)" fill="#fff"/>
                  <path id="Trazado_262838" data-name="Trazado 262838" d="M457.911,58.433a.734.734,0,1,1-.733-.7A.717.717,0,0,1,457.911,58.433Z" transform="translate(-423.46 -57.732)" fill="#fff"/>
                  <path id="Trazado_262839" data-name="Trazado 262839" d="M466.358,58.433a.734.734,0,1,1-.733-.7A.718.718,0,0,1,466.358,58.433Z" transform="translate(-425.31 -57.732)" fill="#fff"/>
                  <path id="Trazado_262840" data-name="Trazado 262840" d="M474.8,58.433a.734.734,0,1,1-.733-.7A.717.717,0,0,1,474.8,58.433Z" transform="translate(-427.159 -57.732)" fill="#fff"/>
                  <path id="Trazado_262841" data-name="Trazado 262841" d="M483.25,58.433a.734.734,0,1,1-.733-.7A.717.717,0,0,1,483.25,58.433Z" transform="translate(-429.008 -57.732)" fill="#fff"/>
                  <path id="Trazado_262842" data-name="Trazado 262842" d="M491.7,58.433a.734.734,0,1,1-.733-.7A.718.718,0,0,1,491.7,58.433Z" transform="translate(-430.858 -57.732)" fill="#fff"/>
                  <path id="Trazado_262843" data-name="Trazado 262843" d="M500.143,58.433a.734.734,0,1,1-.733-.7A.718.718,0,0,1,500.143,58.433Z" transform="translate(-432.707 -57.732)" fill="#fff"/>
                </g>
                <g id="Grupo_172773" data-name="Grupo 172773" transform="translate(0 11.216)">
                  <ellipse id="Elipse_6282" data-name="Elipse 6282" cx="0.733" cy="0.701" rx="0.733" ry="0.701" fill="#fff"/>
                  <path id="Trazado_262844" data-name="Trazado 262844" d="M424.126,65.941a.734.734,0,1,1-.733-.7A.718.718,0,0,1,424.126,65.941Z" transform="translate(-416.063 -65.24)" fill="#fff"/>
                  <ellipse id="Elipse_6283" data-name="Elipse 6283" cx="0.733" cy="0.701" rx="0.733" ry="0.701" transform="translate(13.194)" fill="#fff"/>
                  <path id="Trazado_262845" data-name="Trazado 262845" d="M441.019,65.941a.734.734,0,1,1-.733-.7A.718.718,0,0,1,441.019,65.941Z" transform="translate(-419.762 -65.24)" fill="#fff"/>
                  <path id="Trazado_262846" data-name="Trazado 262846" d="M449.465,65.941a.734.734,0,1,1-.733-.7A.718.718,0,0,1,449.465,65.941Z" transform="translate(-421.611 -65.24)" fill="#fff"/>
                  <ellipse id="Elipse_6284" data-name="Elipse 6284" cx="0.733" cy="0.701" rx="0.733" ry="0.701" transform="translate(32.985)" fill="#fff"/>
                  <path id="Trazado_262847" data-name="Trazado 262847" d="M466.358,65.941a.734.734,0,1,1-.733-.7A.718.718,0,0,1,466.358,65.941Z" transform="translate(-425.31 -65.24)" fill="#fff"/>
                  <ellipse id="Elipse_6285" data-name="Elipse 6285" cx="0.733" cy="0.701" rx="0.733" ry="0.701" transform="translate(46.179)" fill="#fff"/>
                  <ellipse id="Elipse_6286" data-name="Elipse 6286" cx="0.733" cy="0.701" rx="0.733" ry="0.701" transform="translate(52.776)" fill="#fff"/>
                  <path id="Trazado_262848" data-name="Trazado 262848" d="M491.7,65.941a.734.734,0,1,1-.733-.7A.718.718,0,0,1,491.7,65.941Z" transform="translate(-430.858 -65.24)" fill="#fff"/>
                  <path id="Trazado_262849" data-name="Trazado 262849" d="M500.143,65.941a.734.734,0,1,1-.733-.7A.718.718,0,0,1,500.143,65.941Z" transform="translate(-432.707 -65.24)" fill="#fff"/>
                </g>
                <g id="Grupo_172774" data-name="Grupo 172774" transform="translate(0 16.823)">
                  <ellipse id="Elipse_6287" data-name="Elipse 6287" cx="0.733" cy="0.701" rx="0.733" ry="0.701" transform="translate(0 0)" fill="#fff"/>
                  <path id="Trazado_262850" data-name="Trazado 262850" d="M424.126,73.448a.734.734,0,1,1-.733-.7A.717.717,0,0,1,424.126,73.448Z" transform="translate(-416.063 -72.747)" fill="#fff"/>
                  <ellipse id="Elipse_6288" data-name="Elipse 6288" cx="0.733" cy="0.701" rx="0.733" ry="0.701" transform="translate(13.194 0)" fill="#fff"/>
                  <path id="Trazado_262851" data-name="Trazado 262851" d="M441.019,73.448a.734.734,0,1,1-.733-.7A.717.717,0,0,1,441.019,73.448Z" transform="translate(-419.762 -72.747)" fill="#fff"/>
                  <path id="Trazado_262852" data-name="Trazado 262852" d="M449.465,73.448a.734.734,0,1,1-.733-.7A.717.717,0,0,1,449.465,73.448Z" transform="translate(-421.611 -72.747)" fill="#fff"/>
                  <ellipse id="Elipse_6289" data-name="Elipse 6289" cx="0.733" cy="0.701" rx="0.733" ry="0.701" transform="translate(32.985 0)" fill="#fff"/>
                  <path id="Trazado_262853" data-name="Trazado 262853" d="M466.358,73.448a.734.734,0,1,1-.733-.7A.718.718,0,0,1,466.358,73.448Z" transform="translate(-425.31 -72.747)" fill="#fff"/>
                  <ellipse id="Elipse_6290" data-name="Elipse 6290" cx="0.733" cy="0.701" rx="0.733" ry="0.701" transform="translate(46.179 0)" fill="#fff"/>
                  <ellipse id="Elipse_6291" data-name="Elipse 6291" cx="0.733" cy="0.701" rx="0.733" ry="0.701" transform="translate(52.776 0)" fill="#fff"/>
                  <path id="Trazado_262854" data-name="Trazado 262854" d="M491.7,73.448a.734.734,0,1,1-.733-.7A.718.718,0,0,1,491.7,73.448Z" transform="translate(-430.858 -72.747)" fill="#fff"/>
                  <path id="Trazado_262855" data-name="Trazado 262855" d="M500.143,73.448a.734.734,0,1,1-.733-.7A.717.717,0,0,1,500.143,73.448Z" transform="translate(-432.707 -72.747)" fill="#fff"/>
                </g>
                <g id="Grupo_172775" data-name="Grupo 172775" transform="translate(0 22.431)">
                  <path id="Trazado_262856" data-name="Trazado 262856" d="M415.68,80.956a.734.734,0,1,1-.733-.7A.717.717,0,0,1,415.68,80.956Z" transform="translate(-414.214 -80.255)" fill="#fff"/>
                  <path id="Trazado_262857" data-name="Trazado 262857" d="M424.126,80.956a.734.734,0,1,1-.733-.7A.717.717,0,0,1,424.126,80.956Z" transform="translate(-416.063 -80.255)" fill="#fff"/>
                  <path id="Trazado_262858" data-name="Trazado 262858" d="M432.572,80.956a.734.734,0,1,1-.733-.7A.717.717,0,0,1,432.572,80.956Z" transform="translate(-417.912 -80.255)" fill="#fff"/>
                  <path id="Trazado_262859" data-name="Trazado 262859" d="M441.019,80.956a.734.734,0,1,1-.733-.7A.717.717,0,0,1,441.019,80.956Z" transform="translate(-419.762 -80.255)" fill="#fff"/>
                  <path id="Trazado_262860" data-name="Trazado 262860" d="M449.465,80.956a.734.734,0,1,1-.733-.7A.717.717,0,0,1,449.465,80.956Z" transform="translate(-421.611 -80.255)" fill="#fff"/>
                  <path id="Trazado_262861" data-name="Trazado 262861" d="M457.911,80.956a.734.734,0,1,1-.733-.7A.717.717,0,0,1,457.911,80.956Z" transform="translate(-423.46 -80.255)" fill="#fff"/>
                  <path id="Trazado_262862" data-name="Trazado 262862" d="M466.358,80.956a.734.734,0,1,1-.733-.7A.718.718,0,0,1,466.358,80.956Z" transform="translate(-425.31 -80.255)" fill="#fff"/>
                  <path id="Trazado_262863" data-name="Trazado 262863" d="M474.8,80.956a.734.734,0,1,1-.733-.7A.717.717,0,0,1,474.8,80.956Z" transform="translate(-427.159 -80.255)" fill="#fff"/>
                  <path id="Trazado_262864" data-name="Trazado 262864" d="M483.25,80.956a.734.734,0,1,1-.733-.7A.717.717,0,0,1,483.25,80.956Z" transform="translate(-429.008 -80.255)" fill="#fff"/>
                  <path id="Trazado_262865" data-name="Trazado 262865" d="M491.7,80.956a.734.734,0,1,1-.733-.7A.718.718,0,0,1,491.7,80.956Z" transform="translate(-430.858 -80.255)" fill="#fff"/>
                  <path id="Trazado_262866" data-name="Trazado 262866" d="M500.143,80.956a.734.734,0,1,1-.733-.7A.717.717,0,0,1,500.143,80.956Z" transform="translate(-432.707 -80.255)" fill="#fff"/>
                </g>
                <g id="Grupo_172776" data-name="Grupo 172776" transform="translate(0 28.039)">
                  <ellipse id="Elipse_6292" data-name="Elipse 6292" cx="0.733" cy="0.701" rx="0.733" ry="0.701" transform="translate(0 0)" fill="#fff"/>
                  <path id="Trazado_262867" data-name="Trazado 262867" d="M424.126,88.464a.734.734,0,1,1-.733-.7A.717.717,0,0,1,424.126,88.464Z" transform="translate(-416.063 -87.763)" fill="#fff"/>
                  <ellipse id="Elipse_6293" data-name="Elipse 6293" cx="0.733" cy="0.701" rx="0.733" ry="0.701" transform="translate(13.194 0)" fill="#fff"/>
                  <path id="Trazado_262868" data-name="Trazado 262868" d="M441.019,88.464a.734.734,0,1,1-.733-.7A.717.717,0,0,1,441.019,88.464Z" transform="translate(-419.762 -87.763)" fill="#fff"/>
                  <path id="Trazado_262869" data-name="Trazado 262869" d="M449.465,88.464a.734.734,0,1,1-.733-.7A.717.717,0,0,1,449.465,88.464Z" transform="translate(-421.611 -87.763)" fill="#fff"/>
                  <ellipse id="Elipse_6294" data-name="Elipse 6294" cx="0.733" cy="0.701" rx="0.733" ry="0.701" transform="translate(32.985 0)" fill="#fff"/>
                  <path id="Trazado_262870" data-name="Trazado 262870" d="M466.358,88.464a.734.734,0,1,1-.733-.7A.718.718,0,0,1,466.358,88.464Z" transform="translate(-425.31 -87.763)" fill="#fff"/>
                  <ellipse id="Elipse_6295" data-name="Elipse 6295" cx="0.733" cy="0.701" rx="0.733" ry="0.701" transform="translate(46.179 0)" fill="#fff"/>
                  <ellipse id="Elipse_6296" data-name="Elipse 6296" cx="0.733" cy="0.701" rx="0.733" ry="0.701" transform="translate(52.776 0)" fill="#fff"/>
                  <path id="Trazado_262871" data-name="Trazado 262871" d="M491.7,88.464a.734.734,0,1,1-.733-.7A.718.718,0,0,1,491.7,88.464Z" transform="translate(-430.858 -87.763)" fill="#fff"/>
                  <path id="Trazado_262872" data-name="Trazado 262872" d="M500.143,88.464a.734.734,0,1,1-.733-.7A.717.717,0,0,1,500.143,88.464Z" transform="translate(-432.707 -87.763)" fill="#fff"/>
                </g>
                <g id="Grupo_172777" data-name="Grupo 172777" transform="translate(0 33.647)">
                  <ellipse id="Elipse_6297" data-name="Elipse 6297" cx="0.733" cy="0.701" rx="0.733" ry="0.701" fill="#fff"/>
                  <path id="Trazado_262873" data-name="Trazado 262873" d="M424.126,95.972a.734.734,0,1,1-.733-.7A.717.717,0,0,1,424.126,95.972Z" transform="translate(-416.063 -95.271)" fill="#fff"/>
                  <ellipse id="Elipse_6298" data-name="Elipse 6298" cx="0.733" cy="0.701" rx="0.733" ry="0.701" transform="translate(13.194)" fill="#fff"/>
                  <path id="Trazado_262874" data-name="Trazado 262874" d="M441.019,95.972a.734.734,0,1,1-.733-.7A.718.718,0,0,1,441.019,95.972Z" transform="translate(-419.762 -95.271)" fill="#fff"/>
                  <path id="Trazado_262875" data-name="Trazado 262875" d="M449.465,95.972a.734.734,0,1,1-.733-.7A.717.717,0,0,1,449.465,95.972Z" transform="translate(-421.611 -95.271)" fill="#fff"/>
                  <ellipse id="Elipse_6299" data-name="Elipse 6299" cx="0.733" cy="0.701" rx="0.733" ry="0.701" transform="translate(32.985)" fill="#fff"/>
                  <path id="Trazado_262876" data-name="Trazado 262876" d="M466.358,95.972a.734.734,0,1,1-.733-.7A.718.718,0,0,1,466.358,95.972Z" transform="translate(-425.31 -95.271)" fill="#fff"/>
                  <ellipse id="Elipse_6300" data-name="Elipse 6300" cx="0.733" cy="0.701" rx="0.733" ry="0.701" transform="translate(46.179)" fill="#fff"/>
                  <ellipse id="Elipse_6301" data-name="Elipse 6301" cx="0.733" cy="0.701" rx="0.733" ry="0.701" transform="translate(52.776)" fill="#fff"/>
                  <path id="Trazado_262877" data-name="Trazado 262877" d="M491.7,95.972a.734.734,0,1,1-.733-.7A.718.718,0,0,1,491.7,95.972Z" transform="translate(-430.858 -95.271)" fill="#fff"/>
                  <path id="Trazado_262878" data-name="Trazado 262878" d="M500.143,95.972a.734.734,0,1,1-.733-.7A.718.718,0,0,1,500.143,95.972Z" transform="translate(-432.707 -95.271)" fill="#fff"/>
                </g>
                <g id="Grupo_172778" data-name="Grupo 172778" transform="translate(0 39.255)">
                  <path id="Trazado_262879" data-name="Trazado 262879" d="M415.68,103.48a.734.734,0,1,1-.733-.7A.718.718,0,0,1,415.68,103.48Z" transform="translate(-414.214 -102.779)" fill="#fff"/>
                  <path id="Trazado_262880" data-name="Trazado 262880" d="M424.126,103.48a.734.734,0,1,1-.733-.7A.717.717,0,0,1,424.126,103.48Z" transform="translate(-416.063 -102.779)" fill="#fff"/>
                  <path id="Trazado_262881" data-name="Trazado 262881" d="M432.572,103.48a.734.734,0,1,1-.733-.7A.717.717,0,0,1,432.572,103.48Z" transform="translate(-417.912 -102.779)" fill="#fff"/>
                  <path id="Trazado_262882" data-name="Trazado 262882" d="M441.019,103.48a.734.734,0,1,1-.733-.7A.718.718,0,0,1,441.019,103.48Z" transform="translate(-419.762 -102.779)" fill="#fff"/>
                  <path id="Trazado_262883" data-name="Trazado 262883" d="M449.465,103.48a.734.734,0,1,1-.733-.7A.717.717,0,0,1,449.465,103.48Z" transform="translate(-421.611 -102.779)" fill="#fff"/>
                  <path id="Trazado_262884" data-name="Trazado 262884" d="M457.911,103.48a.734.734,0,1,1-.733-.7A.717.717,0,0,1,457.911,103.48Z" transform="translate(-423.46 -102.779)" fill="#fff"/>
                  <path id="Trazado_262885" data-name="Trazado 262885" d="M466.358,103.48a.734.734,0,1,1-.733-.7A.718.718,0,0,1,466.358,103.48Z" transform="translate(-425.31 -102.779)" fill="#fff"/>
                  <path id="Trazado_262886" data-name="Trazado 262886" d="M474.8,103.48a.734.734,0,1,1-.733-.7A.717.717,0,0,1,474.8,103.48Z" transform="translate(-427.159 -102.779)" fill="#fff"/>
                  <path id="Trazado_262887" data-name="Trazado 262887" d="M483.25,103.48a.734.734,0,1,1-.733-.7A.717.717,0,0,1,483.25,103.48Z" transform="translate(-429.008 -102.779)" fill="#fff"/>
                  <path id="Trazado_262888" data-name="Trazado 262888" d="M491.7,103.48a.734.734,0,1,1-.733-.7A.718.718,0,0,1,491.7,103.48Z" transform="translate(-430.858 -102.779)" fill="#fff"/>
                  <path id="Trazado_262889" data-name="Trazado 262889" d="M500.143,103.48a.734.734,0,1,1-.733-.7A.718.718,0,0,1,500.143,103.48Z" transform="translate(-432.707 -102.779)" fill="#fff"/>
                </g>
                <g id="Grupo_172779" data-name="Grupo 172779" transform="translate(0 44.863)">
                  <ellipse id="Elipse_6302" data-name="Elipse 6302" cx="0.733" cy="0.701" rx="0.733" ry="0.701" fill="#fff"/>
                  <path id="Trazado_262890" data-name="Trazado 262890" d="M424.126,110.988a.734.734,0,1,1-.733-.7A.718.718,0,0,1,424.126,110.988Z" transform="translate(-416.063 -110.287)" fill="#fff"/>
                  <ellipse id="Elipse_6303" data-name="Elipse 6303" cx="0.733" cy="0.701" rx="0.733" ry="0.701" transform="translate(13.194)" fill="#fff"/>
                  <path id="Trazado_262891" data-name="Trazado 262891" d="M441.019,110.988a.734.734,0,1,1-.733-.7A.718.718,0,0,1,441.019,110.988Z" transform="translate(-419.762 -110.287)" fill="#fff"/>
                  <path id="Trazado_262892" data-name="Trazado 262892" d="M449.465,110.988a.734.734,0,1,1-.733-.7A.718.718,0,0,1,449.465,110.988Z" transform="translate(-421.611 -110.287)" fill="#fff"/>
                  <ellipse id="Elipse_6304" data-name="Elipse 6304" cx="0.733" cy="0.701" rx="0.733" ry="0.701" transform="translate(32.985)" fill="#fff"/>
                  <path id="Trazado_262893" data-name="Trazado 262893" d="M466.358,110.988a.734.734,0,1,1-.733-.7A.718.718,0,0,1,466.358,110.988Z" transform="translate(-425.31 -110.287)" fill="#fff"/>
                  <ellipse id="Elipse_6305" data-name="Elipse 6305" cx="0.733" cy="0.701" rx="0.733" ry="0.701" transform="translate(46.179)" fill="#fff"/>
                  <ellipse id="Elipse_6306" data-name="Elipse 6306" cx="0.733" cy="0.701" rx="0.733" ry="0.701" transform="translate(52.776)" fill="#fff"/>
                  <path id="Trazado_262894" data-name="Trazado 262894" d="M491.7,110.988a.734.734,0,1,1-.733-.7A.718.718,0,0,1,491.7,110.988Z" transform="translate(-430.858 -110.287)" fill="#fff"/>
                  <path id="Trazado_262895" data-name="Trazado 262895" d="M500.143,110.988a.734.734,0,1,1-.733-.7A.718.718,0,0,1,500.143,110.988Z" transform="translate(-432.707 -110.287)" fill="#fff"/>
                </g>
                <g id="Grupo_172780" data-name="Grupo 172780" transform="translate(0 50.471)">
                  <path id="Trazado_262896" data-name="Trazado 262896" d="M415.68,118.5a.734.734,0,1,1-.733-.7A.718.718,0,0,1,415.68,118.5Z" transform="translate(-414.214 -117.794)" fill="#fff"/>
                  <path id="Trazado_262897" data-name="Trazado 262897" d="M424.126,118.5a.734.734,0,1,1-.733-.7A.718.718,0,0,1,424.126,118.5Z" transform="translate(-416.063 -117.794)" fill="#fff"/>
                  <path id="Trazado_262898" data-name="Trazado 262898" d="M432.572,118.5a.734.734,0,1,1-.733-.7A.718.718,0,0,1,432.572,118.5Z" transform="translate(-417.912 -117.794)" fill="#fff"/>
                  <path id="Trazado_262899" data-name="Trazado 262899" d="M441.019,118.5a.734.734,0,1,1-.733-.7A.718.718,0,0,1,441.019,118.5Z" transform="translate(-419.762 -117.794)" fill="#fff"/>
                  <path id="Trazado_262900" data-name="Trazado 262900" d="M449.465,118.5a.734.734,0,1,1-.733-.7A.718.718,0,0,1,449.465,118.5Z" transform="translate(-421.611 -117.794)" fill="#fff"/>
                  <path id="Trazado_262901" data-name="Trazado 262901" d="M457.911,118.5a.734.734,0,1,1-.733-.7A.718.718,0,0,1,457.911,118.5Z" transform="translate(-423.46 -117.794)" fill="#fff"/>
                  <path id="Trazado_262902" data-name="Trazado 262902" d="M466.358,118.5a.734.734,0,1,1-.733-.7A.718.718,0,0,1,466.358,118.5Z" transform="translate(-425.31 -117.794)" fill="#fff"/>
                  <path id="Trazado_262903" data-name="Trazado 262903" d="M474.8,118.5a.734.734,0,1,1-.733-.7A.718.718,0,0,1,474.8,118.5Z" transform="translate(-427.159 -117.794)" fill="#fff"/>
                  <path id="Trazado_262904" data-name="Trazado 262904" d="M483.25,118.5a.734.734,0,1,1-.733-.7A.718.718,0,0,1,483.25,118.5Z" transform="translate(-429.008 -117.794)" fill="#fff"/>
                  <path id="Trazado_262905" data-name="Trazado 262905" d="M491.7,118.5a.734.734,0,1,1-.733-.7A.718.718,0,0,1,491.7,118.5Z" transform="translate(-430.858 -117.794)" fill="#fff"/>
                  <path id="Trazado_262906" data-name="Trazado 262906" d="M500.143,118.5a.734.734,0,1,1-.733-.7A.718.718,0,0,1,500.143,118.5Z" transform="translate(-432.707 -117.794)" fill="#fff"/>
                </g>
                <g id="Grupo_172781" data-name="Grupo 172781" transform="translate(0 56.079)">
                  <ellipse id="Elipse_6307" data-name="Elipse 6307" cx="0.733" cy="0.701" rx="0.733" ry="0.701" transform="translate(0 0)" fill="#fff"/>
                  <path id="Trazado_262907" data-name="Trazado 262907" d="M424.126,126a.734.734,0,1,1-.733-.7A.717.717,0,0,1,424.126,126Z" transform="translate(-416.063 -125.302)" fill="#fff"/>
                  <ellipse id="Elipse_6308" data-name="Elipse 6308" cx="0.733" cy="0.701" rx="0.733" ry="0.701" transform="translate(13.194 0)" fill="#fff"/>
                  <path id="Trazado_262908" data-name="Trazado 262908" d="M441.019,126a.734.734,0,1,1-.733-.7A.717.717,0,0,1,441.019,126Z" transform="translate(-419.762 -125.302)" fill="#fff"/>
                  <path id="Trazado_262909" data-name="Trazado 262909" d="M449.465,126a.734.734,0,1,1-.733-.7A.717.717,0,0,1,449.465,126Z" transform="translate(-421.611 -125.302)" fill="#fff"/>
                  <ellipse id="Elipse_6309" data-name="Elipse 6309" cx="0.733" cy="0.701" rx="0.733" ry="0.701" transform="translate(32.985 0)" fill="#fff"/>
                  <path id="Trazado_262910" data-name="Trazado 262910" d="M466.358,126a.734.734,0,1,1-.733-.7A.718.718,0,0,1,466.358,126Z" transform="translate(-425.31 -125.302)" fill="#fff"/>
                  <ellipse id="Elipse_6310" data-name="Elipse 6310" cx="0.733" cy="0.701" rx="0.733" ry="0.701" transform="translate(46.179 0)" fill="#fff"/>
                  <ellipse id="Elipse_6311" data-name="Elipse 6311" cx="0.733" cy="0.701" rx="0.733" ry="0.701" transform="translate(52.776 0)" fill="#fff"/>
                  <path id="Trazado_262911" data-name="Trazado 262911" d="M491.7,126a.734.734,0,1,1-.733-.7A.718.718,0,0,1,491.7,126Z" transform="translate(-430.858 -125.302)" fill="#fff"/>
                  <path id="Trazado_262912" data-name="Trazado 262912" d="M500.143,126a.734.734,0,1,1-.733-.7A.717.717,0,0,1,500.143,126Z" transform="translate(-432.707 -125.302)" fill="#fff"/>
                </g>
                <g id="Grupo_172782" data-name="Grupo 172782" transform="translate(0 61.687)">
                  <ellipse id="Elipse_6312" data-name="Elipse 6312" cx="0.733" cy="0.701" rx="0.733" ry="0.701" transform="translate(0 0)" fill="#fff"/>
                  <path id="Trazado_262913" data-name="Trazado 262913" d="M424.126,133.511a.734.734,0,1,1-.733-.7A.717.717,0,0,1,424.126,133.511Z" transform="translate(-416.063 -132.81)" fill="#fff"/>
                  <ellipse id="Elipse_6313" data-name="Elipse 6313" cx="0.733" cy="0.701" rx="0.733" ry="0.701" transform="translate(13.194 0)" fill="#fff"/>
                  <path id="Trazado_262914" data-name="Trazado 262914" d="M441.019,133.511a.734.734,0,1,1-.733-.7A.717.717,0,0,1,441.019,133.511Z" transform="translate(-419.762 -132.81)" fill="#fff"/>
                  <path id="Trazado_262915" data-name="Trazado 262915" d="M449.465,133.511a.734.734,0,1,1-.733-.7A.717.717,0,0,1,449.465,133.511Z" transform="translate(-421.611 -132.81)" fill="#fff"/>
                  <ellipse id="Elipse_6314" data-name="Elipse 6314" cx="0.733" cy="0.701" rx="0.733" ry="0.701" transform="translate(32.985 0)" fill="#fff"/>
                  <path id="Trazado_262916" data-name="Trazado 262916" d="M466.358,133.511a.734.734,0,1,1-.733-.7A.718.718,0,0,1,466.358,133.511Z" transform="translate(-425.31 -132.81)" fill="#fff"/>
                  <ellipse id="Elipse_6315" data-name="Elipse 6315" cx="0.733" cy="0.701" rx="0.733" ry="0.701" transform="translate(46.179 0)" fill="#fff"/>
                  <ellipse id="Elipse_6316" data-name="Elipse 6316" cx="0.733" cy="0.701" rx="0.733" ry="0.701" transform="translate(52.776 0)" fill="#fff"/>
                  <path id="Trazado_262917" data-name="Trazado 262917" d="M491.7,133.511a.734.734,0,1,1-.733-.7A.718.718,0,0,1,491.7,133.511Z" transform="translate(-430.858 -132.81)" fill="#fff"/>
                  <path id="Trazado_262918" data-name="Trazado 262918" d="M500.143,133.511a.734.734,0,1,1-.733-.7A.717.717,0,0,1,500.143,133.511Z" transform="translate(-432.707 -132.81)" fill="#fff"/>
                </g>
              </g>
            </g>
          </g>
        </g>
      </g>
    </g>
    <g id="Grupo_145488" data-name="Grupo 145488" transform="translate(149 744.67)">
      <g id="Grupo_145701" data-name="Grupo 145701" transform="translate(31 33.33)">
        <g id="Grupo_145631" data-name="Grupo 145631" transform="translate(0 314.298)">
          <rect id="Rectángulo_44077" data-name="Rectángulo 44077" width="549.725" height="1.673" rx="0.836" fill="#233862"/>
        </g>
        <g id="Grupo_150297" data-name="Grupo 150297" transform="translate(23.084 0)">
          <g id="Character" transform="translate(0 0)">
            <g id="Grupo_150290" data-name="Grupo 150290" transform="translate(0 0)">
              <path id="Trazado_262101" data-name="Trazado 262101" d="M227.874,254.377h8.344c14.474,0,18.613,74.694,20.8,130.967s33.224,82.22,60.951,82.22H529.626" transform="translate(-2.986 -154.181)" fill="none" stroke="#263238" stroke-linecap="round" stroke-linejoin="round" stroke-width="1"/>
              <g id="Grupo_150279" data-name="Grupo 150279" transform="translate(0 85.418)">
                <path id="Trazado_262102" data-name="Trazado 262102" d="M66.657,258.687h5.677l15.805,92.756H82.462Z" transform="translate(-54.108 -238.233)" fill="#407bff"/>
                <path id="Trazado_262103" data-name="Trazado 262103" d="M82.657,258.687h5.677l15.805,92.756H98.462Z" transform="translate(-49.034 -238.233)" fill="#407bff"/>
                <path id="Trazado_262104" data-name="Trazado 262104" d="M98.657,258.687h5.677l15.805,92.756h-5.677Z" transform="translate(-43.961 -238.233)" fill="#407bff"/>
                <path id="Trazado_262105" data-name="Trazado 262105" d="M66.657,258.687h5.677l15.805,92.756H82.462Z" transform="translate(-54.108 -238.233)" fill="#cde6fa" opacity="0.4" style="isolation: isolate"/>
                <path id="Trazado_262106" data-name="Trazado 262106" d="M82.657,258.687h5.677l15.805,92.756H98.462Z" transform="translate(-49.034 -238.233)" fill="#cde6fa" opacity="0.4" style="isolation: isolate"/>
                <path id="Trazado_262107" data-name="Trazado 262107" d="M98.657,258.687h5.677l15.805,92.756h-5.677Z" transform="translate(-43.961 -238.233)" fill="#fff" opacity="0.4" style="isolation: isolate"/>
                <path id="Trazado_262108" data-name="Trazado 262108" d="M103.491,330.933l.474,20.507,2.16,92.763h7.126L115.4,351.44l.474-20.507Z" transform="translate(-42.428 -215.323)" fill="#407bff"/>
                <path id="Trazado_262109" data-name="Trazado 262109" d="M103.491,330.933l.474,20.507,2.16,92.763h7.126L115.4,351.44l.474-20.507Z" transform="translate(-42.428 -215.323)" fill="#fff" opacity="0.4" style="isolation: isolate"/>
                <path id="Trazado_262110" data-name="Trazado 262110" d="M103.491,330.933l.474,21.074H115.4l.474-21.074Z" transform="translate(-42.428 -215.323)" opacity="0.2" style="isolation: isolate"/>
                <g id="Grupo_150277" data-name="Grupo 150277" transform="translate(22.369 116.926)">
                  <g id="Grupo_150275" data-name="Grupo 150275">
                    <path id="Trazado_262111" data-name="Trazado 262111" d="M74.113,443.525,80.7,332.033h10.76L82.24,443.525Z" transform="translate(-74.113 -331.901)" fill="#407bff"/>
                    <path id="Trazado_262112" data-name="Trazado 262112" d="M82.256,443.557H74.122L80.1,342.075l.592-10.142H91.449l-.83,10.142Z" transform="translate(-74.11 -331.933)" fill="#fff" opacity="0.4" style="isolation: isolate"/>
                    <path id="Trazado_262113" data-name="Trazado 262113" d="M90.011,331.933l-.83,10.537H78.657l.593-10.537Z" transform="translate(-72.672 -331.933)" opacity="0.2" style="isolation: isolate"/>
                  </g>
                  <g id="Grupo_150276" data-name="Grupo 150276" transform="translate(72.433)">
                    <path id="Trazado_262114" data-name="Trazado 262114" d="M138.323,443.525l-9.216-111.492h10.761l6.582,111.492Z" transform="translate(-129.107 -331.901)" fill="#407bff"/>
                    <path id="Trazado_262115" data-name="Trazado 262115" d="M138.3,443.557,129.94,342.075l-.83-10.142h10.761l.593,10.142,5.974,101.482Z" transform="translate(-129.106 -331.933)" fill="#fff" opacity="0.4" style="isolation: isolate"/>
                    <path id="Trazado_262116" data-name="Trazado 262116" d="M129.11,331.933l.83,10.537h10.524l-.593-10.537Z" transform="translate(-129.106 -331.933)" opacity="0.2" style="isolation: isolate"/>
                  </g>
                </g>
                <path id="Rectángulo_293810" data-name="Rectángulo 293810" d="M0,0H88.141a0,0,0,0,1,0,0V10.4a5,5,0,0,1-5,5H5a5,5,0,0,1-5-5V0A0,0,0,0,1,0,0Z" transform="translate(111.328 120.907) rotate(180)" fill="#263238"/>
                <g id="Grupo_150278" data-name="Grupo 150278" transform="translate(18.963 113.21)">
                  <rect id="Rectángulo_293811" data-name="Rectángulo 293811" width="96.587" height="7.698" rx="2.011" transform="translate(96.587 7.698) rotate(180)" fill="#407bff"/>
                  <rect id="Rectángulo_293812" data-name="Rectángulo 293812" width="96.587" height="7.698" rx="2.011" transform="translate(96.587 7.698) rotate(180)" fill="#fff" opacity="0.6" style="isolation: isolate"/>
                </g>
                <path id="Trazado_262117" data-name="Trazado 262117" d="M79.489,274.322c9.138-5.531,21.824-5.531,33.95,0,6.128,2.687,13.379,3.449,16.589-.421h0c5.466-5.7-4.126-22.569-22.538-27.911-13.176-3.777-26.219-3.777-37.356,0-15.526,5.342-16,22.215-7.461,27.911h0C67.977,277.772,74.806,277.009,79.489,274.322Z" transform="translate(-57.129 -243.157)" fill="#263238"/>
              </g>
              <g id="_Group_" data-name="&lt;Group&gt;" transform="translate(52.224)">
                <path id="Trazado_262118" data-name="Trazado 262118" d="M177.926,255.156l10.62-2.417s2.605-1.882,4.559-1.882,10.031,1.824,11.073,3.518a5.942,5.942,0,0,1,.522,3.946H192.454l-10.682,2.849Z" transform="translate(-71.049 -155.298)" fill="#b97964"/>
                <path id="Trazado_262119" data-name="Trazado 262119" d="M161.764,226.33c4.653,4.3,11.849,31.248,13.852,34.187s17.374-1.629,17.374-1.629l3.127,9.793s-19.375,8.81-28.054,3.115-14.011-28.628-14.011-28.628Z" transform="translate(-78.619 -163.075)" fill="#f7c4ff"/>
                <path id="Trazado_262121" data-name="Trazado 262121" d="M129.8,212.552l30.219,7.987-15.109,21.753H121.649Z" transform="translate(-88.894 -167.444)" fill="#e6d8ff"/>
                <path id="Trazado_262122" data-name="Trazado 262122" d="M211.324,414.1l10.212-2.8-1.829-24.916-10.2,2.813Z" transform="translate(-61.033 -112.324)" fill="#b97964"/>
                <path id="Trazado_262123" data-name="Trazado 262123" d="M222.14,404.268l-11.849.822a.752.752,0,0,0-.732.769v.012l.072,9.424a1.871,1.871,0,0,0,1.973,1.737c4.13-.354,6.084-.728,11.3-1.131,3.2-.23,9.544-.383,13.868-1.387s3.216-5.25,1.3-5.206c-4.553.083-10.929-2.427-14.067-4.557A2.968,2.968,0,0,0,222.14,404.268Z" transform="translate(-61.018 -106.654)" fill="#263238"/>
                <path id="Trazado_262124" data-name="Trazado 262124" d="M222.785,406.1a12.948,12.948,0,0,1-2.845-.184.223.223,0,0,1-.2-.171.275.275,0,0,1,.078-.259c.321-.26,3.172-2.5,4.5-2.1a.939.939,0,0,1,.616.661,1.315,1.315,0,0,1-.207,1.394A2.83,2.83,0,0,1,222.785,406.1Zm1.392-2.193c-.709-.223-2.4.784-3.576,1.648,1.914.241,3.3.086,3.762-.435a.907.907,0,0,0,.115-.889.447.447,0,0,0-.3-.324Z" transform="translate(-57.792 -106.946)" fill="#407bff"/>
                <path id="Trazado_262125" data-name="Trazado 262125" d="M220.018,406.458a.149.149,0,0,1-.1.022.28.28,0,0,1-.149-.184c-.007-.092-.462-3.148.523-4.254a1.317,1.317,0,0,1,1.027-.414.946.946,0,0,1,.946.682c.316,1.13-1.1,3.451-2.11,4.144A.16.16,0,0,1,220.018,406.458Zm1.159-4.3a.712.712,0,0,0-.51.259c-.6.657-.552,2.4-.456,3.39.855-.835,1.743-2.567,1.577-3.326-.032-.142-.136-.307-.49-.324Z" transform="translate(-57.816 -107.489)" fill="#407bff"/>
                <path id="Trazado_262126" data-name="Trazado 262126" d="M209.511,389.189l10.2-2.8,1.043,14.242L210.5,402.914Z" transform="translate(-61.033 -112.321)" opacity="0.2" style="isolation: isolate"/>
                <path id="Trazado_262127" data-name="Trazado 262127" d="M204.456,413l-9.638,4.4-2.457-10.354L189.068,393.1l9.612-4.408,3.3,13.923Z" transform="translate(-67.516 -111.59)" fill="#b97964"/>
                <path id="Trazado_262128" data-name="Trazado 262128" d="M201.985,402.618l-9.625,4.422L189.068,393.1l9.612-4.408Z" transform="translate(-67.516 -111.59)" opacity="0.2" style="isolation: isolate"/>
                <path id="Trazado_262129" data-name="Trazado 262129" d="M203.985,406.078l-11.565,2.7a.75.75,0,0,0-.6.876v.012l1.575,9.291a1.868,1.868,0,0,0,2.225,1.4c4.02-1.008,5.889-1.689,10.969-2.917,3.121-.736,9.362-1.9,13.47-3.579s2.339-5.7.452-5.346c-4.482.807-11.177-.656-14.615-2.257A2.963,2.963,0,0,0,203.985,406.078Z" transform="translate(-66.647 -106.104)" fill="#263238"/>
                <path id="Trazado_262130" data-name="Trazado 262130" d="M204.882,407.446a13,13,0,0,1-2.838.273.225.225,0,0,1-.224-.138.274.274,0,0,1,.034-.269c.275-.307,2.733-2.978,4.112-2.786a.936.936,0,0,1,.714.553,1.32,1.32,0,0,1,.018,1.409A2.83,2.83,0,0,1,204.882,407.446Zm1.025-2.387c-.735-.107-2.247,1.156-3.266,2.2,1.927-.067,3.266-.441,3.643-1.029a.909.909,0,0,0-.028-.9.446.446,0,0,0-.349-.272Z" transform="translate(-63.479 -106.573)" fill="#407bff"/>
                <path id="Trazado_262131" data-name="Trazado 262131" d="M202.208,408.144a.143.143,0,0,1-.1.038.273.273,0,0,1-.175-.157c-.021-.091-.958-3.035-.162-4.283a1.315,1.315,0,0,1,.948-.573.949.949,0,0,1,1.043.523c.491,1.066-.54,3.583-1.424,4.428A.157.157,0,0,1,202.208,408.144Zm.46-4.429a.716.716,0,0,0-.462.337c-.485.744-.162,2.458.091,3.421.711-.962,1.31-2.812,1.026-3.535-.054-.134-.183-.282-.535-.242Z" transform="translate(-63.589 -107.006)" fill="#407bff"/>
                <g id="Grupo_150280" data-name="Grupo 150280" transform="translate(1.194 125.483)">
                  <path id="Trazado_262132" data-name="Trazado 262132" d="M161.95,308.008l-3.111-34.431-57.49,1.351s-6.807,47.975-1.86,56.788c8.831,15.733,66.786,6.8,80.338,8.14,5.532,2.95,35.153,101.106,35.153,101.106l16.582-6.694s-17.835-82.843-21.9-98.445C204.015,314.124,180.994,314.5,161.95,308.008Z" transform="translate(-97.687 -273.576)" fill="#263238"/>
                  <path id="Trazado_262133" data-name="Trazado 262133" d="M161.95,308.008l-3.111-34.431-57.49,1.351s-6.807,47.975-1.86,56.788c8.831,15.733,66.786,6.8,80.338,8.14,5.532,2.95,35.153,101.106,35.153,101.106l16.582-6.694s-17.835-82.843-21.9-98.445C204.015,314.124,180.994,314.5,161.95,308.008Z" transform="translate(-97.687 -273.576)" fill="#fff" opacity="0.2" style="isolation: isolate"/>
                </g>
                <g id="Grupo_150281" data-name="Grupo 150281" transform="translate(19.111 147.76)">
                  <path id="Trazado_262134" data-name="Trazado 262134" d="M252.908,427.211l-14.626,1.354s-17.938-91.343-19.327-91.729c-2.5-.711-9.772-1.531-13.674-2.547-27.143-7.062-93.991-20.05-93.991-20.05l24.648-23.749S247.7,303.906,250.186,330.133C251.375,342.746,252.908,427.211,252.908,427.211Z" transform="translate(-111.29 -290.49)" fill="#263238"/>
                  <path id="Trazado_262135" data-name="Trazado 262135" d="M252.908,427.211l-14.626,1.354s-17.938-91.343-19.327-91.729c-2.5-.711-9.772-1.531-13.674-2.547-27.143-7.062-93.991-20.05-93.991-20.05l24.648-23.749S247.7,303.906,250.186,330.133C251.375,342.746,252.908,427.211,252.908,427.211Z" transform="translate(-111.29 -290.49)" fill="#fff" opacity="0.2" style="isolation: isolate"/>
                </g>
                <path id="Trazado_262136" data-name="Trazado 262136" d="M211.143,334.606c-2.5-.711-5.822-1.594-9.724-2.611,1.08.568-2.063-13.654-5.191-17.332-6.215-7.331-31.188-11.291-40.142-12.73-7.488-1.2-32.617-3.417-32.617-3.417s44.356-3.831,77.79,5.344C217.785,308.4,214.841,324.535,211.143,334.606Z" transform="translate(-88.317 -140.436)" opacity="0.2" style="isolation: isolate"/>
                <path id="Trazado_262137" data-name="Trazado 262137" d="M159.72,298.426c3.369-19.284,9.022-45.105,19.49-69.258a122.487,122.487,0,0,0-16.958-5.756,227.425,227.425,0,0,0-25.67-5.387,115.293,115.293,0,0,0-18.018-.5s-12.962,24.206-19.533,80.9Z" transform="translate(-96.066 -165.913)" fill="#29398a"/>
                <g id="Grupo_150282" data-name="Grupo 150282" transform="translate(39.285 30.472)">
                  <path id="Trazado_262138" data-name="Trazado 262138" d="M142.145,201.44c-2.3,8.285-7.741,22.845-15.538,25.241,0,0,5.743,9.4,14.337,10.184,5.47.5,8.5-5.674,8.5-5.674-5.579-1.04-3.447-5.127.952-10.258Z" transform="translate(-126.607 -201.44)" fill="#b97964"/>
                  <path id="Trazado_262139" data-name="Trazado 262139" d="M142.463,207.475l4.879,11.539a27.678,27.678,0,0,0-2.807,3.8c-5.48.412-9.416-8.277-8.076-11.81C136.943,209.547,141.484,208.658,142.463,207.475Z" transform="translate(-123.567 -199.526)" opacity="0.2" style="isolation: isolate"/>
                </g>
                <g id="Grupo_150284" data-name="Grupo 150284" transform="translate(44.951)">
                  <path id="Trazado_262140" data-name="Trazado 262140" d="M153.551,191.906c-5.228,2.163-4.229,7.867,4.436,18.26,5.341-4.593,8.233-15.054,5.437-18.414S158.105,190.039,153.551,191.906Z" transform="translate(-124.742 -174.654)" fill="#263238"/>
                  <path id="Trazado_262141" data-name="Trazado 262141" d="M136.922,198c-1.819,11.309-3.45,17.827.886,24.818,6.537,10.509,21.452,8.5,26.616-2.04,4.626-9.47,6.836-26.376-3.083-33.258A15.621,15.621,0,0,0,136.922,198Z" transform="translate(-129.596 -176.281)" fill="#b97964"/>
                  <path id="Trazado_262142" data-name="Trazado 262142" d="M148.61,200.3c-.2.907.116,1.753.709,1.883s1.229-.49,1.433-1.4-.1-1.748-.693-1.889S148.872,199.416,148.61,200.3Z" transform="translate(-125.316 -171.782)" fill="#263238"/>
                  <path id="Trazado_262143" data-name="Trazado 262143" d="M156.442,202.066c-.2.907.116,1.753.71,1.882s1.241-.483,1.449-1.4-.116-1.752-.709-1.882S156.645,201.159,156.442,202.066Z" transform="translate(-122.832 -171.22)" fill="#263238"/>
                  <path id="Trazado_262144" data-name="Trazado 262144" d="M154.263,201.474a33.224,33.224,0,0,0,2.6,8.74c-1.977,1.13-4.526-.169-4.526-.169Z" transform="translate(-124.116 -170.957)" fill="#a24e3f"/>
                  <path id="Trazado_262145" data-name="Trazado 262145" d="M147.12,197.554a.537.537,0,0,1-.323-.149.554.554,0,0,1,.054-.774,5.4,5.4,0,0,1,4.836-1.225.527.527,0,0,1,.379.641l-.012.037a.567.567,0,0,1-.678.367h0a4.3,4.3,0,0,0-3.806,1.008A.566.566,0,0,1,147.12,197.554Z" transform="translate(-125.913 -172.927)" fill="#263238"/>
                  <path id="Trazado_262146" data-name="Trazado 262146" d="M161.368,200.982a.567.567,0,0,1-.419-.412,4.348,4.348,0,0,0-2.459-3.086.549.549,0,0,1,.364-1.037,5.454,5.454,0,0,1,3.154,3.874.538.538,0,0,1-.4.652l-.009,0A.641.641,0,0,1,161.368,200.982Z" transform="translate(-122.278 -172.559)" fill="#263238"/>
                  <path id="Trazado_262147" data-name="Trazado 262147" d="M144.325,188.8c4.813,2.958,2.911,8.435-7.3,17.3-4.541-5.388-5.731-16.191-2.42-19.04S140.119,186.222,144.325,188.8Z" transform="translate(-130.336 -175.968)" fill="#263238"/>
                  <path id="Trazado_262148" data-name="Trazado 262148" d="M134.8,188.771s-1.014-4.428,6.95-8.635,20.846-.651,29.22,5.412-1.814,13.678-5.883,13.845l1.137-1.408s-7.089.464-12.773-2.174l2.592-.855S139.833,191.994,134.8,188.771Z" transform="translate(-129.689 -178.304)" fill="#263238"/>
                  <g id="Grupo_150283" data-name="Grupo 150283" transform="translate(4.73 22.312)">
                    <path id="Trazado_262149" data-name="Trazado 262149" d="M170.365,200.889l-1.488,7.165s-2.977,2.12-4.412,1.251-1.989-3.266-4.215-3.622-2.977,1.883-7.244,1.883-6.73-6.2-6.73-6.2l-9.523-3.424-1.528,3.4-.724-1.317s1.857-5.137,3.991-4.755l8.772,1.541Z" transform="translate(-134.5 -195.245)" fill="#fff" opacity="0.4" style="isolation: isolate"/>
                    <path id="Trazado_262150" data-name="Trazado 262150" d="M147.263,196.806l-.975,4.518a.048.048,0,0,1-.013.039l-9.523-3.424-1.528,3.4-.724-1.317s1.857-5.137,3.991-4.755Z" transform="translate(-134.5 -195.245)" fill="#20cb7d"/>
                  </g>
                  <path id="Trazado_262151" data-name="Trazado 262151" d="M130.918,201.989a10.9,10.9,0,0,0,3.626,7.49c2.873,2.508,5.944.332,6.522-3.232.519-3.215-.358-8.4-3.9-9.532S130.726,198.459,130.918,201.989Z" transform="translate(-130.909 -172.545)" fill="#b97964"/>
                  <path id="Trazado_262152" data-name="Trazado 262152" d="M147.032,206.55a6.831,6.831,0,0,0,4.935,6.252" transform="translate(-125.797 -169.347)" fill="none" stroke="#263238" stroke-linecap="round" stroke-linejoin="round" stroke-width="0.5"/>
                </g>
                <path id="Trazado_262153" data-name="Trazado 262153" d="M148.6,223.02c3.895,8.491-6.526,83.262-6.526,83.262l11.622-1.563s4.864-52.365,11.862-75.943l-12.022-5.756v-4.4Z" transform="translate(-82.416 -165.521)" fill="#e6d8ff"/>
                <path id="Trazado_262154" data-name="Trazado 262154" d="M137.682,212.552l5.349,11.834-6.966,4.529-13.492,77.726L96.78,302.212s9.305-67.048,22.5-83.154l15.018-1.42Z" transform="translate(-96.78 -167.444)" fill="#e6d8ff"/>
                <path id="Trazado_262157" data-name="Trazado 262157" d="M134.689,224.386l-11.6,3.036V218.2l6.253-5.646Z" transform="translate(-88.438 -167.444)" fill="#f7c4ff"/>
                <path id="Trazado_262158" data-name="Trazado 262158" d="M147.032,223.021l4.032,6.353,2.95-6.353-2.048-4.4Z" transform="translate(-80.845 -165.521)" fill="#f7c4ff"/>
                <rect id="Rectángulo_293813" data-name="Rectángulo 293813" width="1.942" height="2.532" transform="translate(93.411 101.234)" fill="#263238"/>
                <rect id="Rectángulo_293814" data-name="Rectángulo 293814" width="1.942" height="2.532" transform="translate(120.955 101.234)" fill="#263238"/>
                <rect id="Rectángulo_293815" data-name="Rectángulo 293815" width="37.516" height="20.345" transform="translate(142.855 83.114)" fill="#263238"/>
                <rect id="Rectángulo_293816" data-name="Rectángulo 293816" width="23.274" height="20.345" transform="translate(142.855 83.114)" fill="#fff" opacity="0.2" style="isolation: isolate"/>
                <path id="Trazado_262161" data-name="Trazado 262161" d="M220.369,249.2a5.482,5.482,0,0,0-10.96,0Z" transform="translate(-61.066 -157.508)" fill="#fff"/>
                <line id="Línea_491" data-name="Línea 491" y1="3.039" x2="1.623" transform="translate(153.824 87.961)" fill="none" stroke="#407bff" stroke-linecap="round" stroke-linejoin="round" stroke-width="1"/>
                <path id="Trazado_262162" data-name="Trazado 262162" d="M211.137,252.514h-3.955a.879.879,0,0,0-.88.878v1.661a.88.88,0,0,0,.88.88h3.955a.879.879,0,0,0,.878-.88v-1.661A.879.879,0,0,0,211.137,252.514Z" transform="translate(-62.051 -154.772)" fill="#263238"/>
                <rect id="Rectángulo_293817" data-name="Rectángulo 293817" width="4.396" height="3.419" rx="0.668" transform="translate(144.251 97.741)" fill="#fff" opacity="0.1" style="isolation: isolate"/>
                <path id="Trazado_262163" data-name="Trazado 262163" d="M216.047,252.514h-3.955a.878.878,0,0,0-.879.878v1.661a.879.879,0,0,0,.879.88h3.955a.879.879,0,0,0,.879-.88v-1.661A.878.878,0,0,0,216.047,252.514Z" transform="translate(-60.494 -154.772)" fill="#263238"/>
                <g id="Grupo_150285" data-name="Grupo 150285" transform="translate(152.232 98.767)">
                  <rect id="Rectángulo_293818" data-name="Rectángulo 293818" width="0.619" height="1.368" opacity="0.5" style="isolation: isolate"/>
                  <rect id="Rectángulo_293819" data-name="Rectángulo 293819" width="0.619" height="1.368" transform="translate(2.068)" opacity="0.5" style="isolation: isolate"/>
                </g>
                <g id="Grupo_150286" data-name="Grupo 150286" transform="translate(157.283 97.701)">
                  <path id="Trazado_262164" data-name="Trazado 262164" d="M218.372,252.483a1.4,1.4,0,0,0-1.059.511c-.009,0-.018-.007-.029-.007a1.3,1.3,0,0,0,0,2.574c.011,0,.02-.007.029-.007a1.406,1.406,0,0,0,1.059.511,1.817,1.817,0,0,0,0-3.583Z" transform="translate(-216.196 -252.483)" fill="#263238"/>
                  <path id="Trazado_262165" data-name="Trazado 262165" d="M221.536,252.483a1.4,1.4,0,0,0-1.058.511c-.011,0-.018-.007-.03-.007a1.305,1.305,0,0,0,0,2.574c.012,0,.02-.007.03-.007a1.4,1.4,0,0,0,1.058.511,1.817,1.817,0,0,0,0-3.583Z" transform="translate(-215.192 -252.483)" fill="#263238"/>
                </g>
                <ellipse id="Elipse_6173" data-name="Elipse 6173" cx="1.088" cy="1.287" rx="1.088" ry="1.287" transform="translate(157.282 98.205)" fill="#fff" opacity="0.1" style="isolation: isolate"/>
                <g id="Grupo_150287" data-name="Grupo 150287" transform="translate(161.451 98.205)" opacity="0.1" style="isolation: isolate">
                  <ellipse id="Elipse_6174" data-name="Elipse 6174" cx="1.088" cy="1.287" rx="1.088" ry="1.287" fill="#fff"/>
                </g>
                <path id="Trazado_262166" data-name="Trazado 262166" d="M167.649,239.582l-5.133-5.134s-10.982-4.88-11.522,7.41,18.74,46.076,37.237,51.459,25.075-13.637,25.694-28.617c.12-2.9,4.755-4.445,6.838-4.445h4.95" transform="translate(-79.592 -160.804)" fill="none" stroke="#263238" stroke-linecap="round" stroke-linejoin="round" stroke-width="1"/>
                <g id="Grupo_150288" data-name="Grupo 150288" transform="translate(85.606 76.632)">
                  <path id="Trazado_262167" data-name="Trazado 262167" d="M166.763,240.067l-1.722,1.551,11.981,13.3,1.312.591,4.465,4.958.861-.775-4.465-4.958-.451-1.366Z" transform="translate(-160.741 -235.352)" fill="#263238"/>
                  <path id="Trazado_262168" data-name="Trazado 262168" d="M166.763,240.067l-1.722,1.551,11.981,13.3,1.312.591,4.465,4.958.861-.775-4.465-4.958-.451-1.366Z" transform="translate(-160.741 -235.352)" fill="#fff" opacity="0.4" style="isolation: isolate"/>
                  <path id="Trazado_262169" data-name="Trazado 262169" d="M175.234,248.336l-10.3-11.438a1.242,1.242,0,0,0-1.754-.092l-.993.894a1.243,1.243,0,0,0-.092,1.754l10.3,11.438-.288,2.032.1.112,5.18-4.665-.1-.111Z" transform="translate(-161.776 -236.487)" fill="#407bff"/>
                </g>
                <path id="Trazado_262170" data-name="Trazado 262170" d="M141.888,251.21l14.555-6.572s4.724-3.389,6.462-4.548,15.978,2.142,16.5,2.315-2.085,9.205-2.605,10.073-13.2-.821-13.894-1.105a4.774,4.774,0,0,1-1.465-1.326l-14.189,6.184Z" transform="translate(-82.476 -158.79)" fill="#b97964"/>
                <g id="Grupo_150289" data-name="Grupo 150289" transform="translate(13.943 51.614)">
                  <path id="Trazado_262171" data-name="Trazado 262171" d="M115.922,217.492s8.2,38.386,12.653,42.533,36.25-8.73,36.25-8.73l4.852,12.644s-27.576,13.861-41.1,11.867-20.765-24.883-21.163-35.081C106.636,220.844,115.922,217.492,115.922,217.492Z" transform="translate(-107.366 -217.492)" fill="#f7c4ff"/>
                  <path id="Trazado_262172" data-name="Trazado 262172" d="M115.922,217.492s8.2,38.386,12.653,42.533,36.25-8.73,36.25-8.73l4.852,12.644s-27.576,13.861-41.1,11.867-20.765-24.883-21.163-35.081C106.636,220.844,115.922,217.492,115.922,217.492Z" transform="translate(-107.366 -217.492)" fill="#f7c4ff" opacity="0.7" style="isolation: isolate"/>
                </g>
                <rect id="Rectángulo_293820" data-name="Rectángulo 293820" width="34.65" height="1.036" transform="translate(91.314 100.716)" fill="#407bff"/>
              </g>
            </g>
            <g id="Grupo_150296" data-name="Grupo 150296" transform="translate(57.936 103.023)">
              <g id="Grupo_150291" data-name="Grupo 150291" transform="translate(88.815 9.433)">
                <path id="Trazado_262173" data-name="Trazado 262173" d="M169.872,465.527h8.069l1.318-201.841h-10.7Z" transform="translate(-168.548 -263.686)" fill="#12263f"/>
                <path id="Trazado_262174" data-name="Trazado 262174" d="M168.549,263.933l.211,32.565,1.106,168.951h8.074L179.047,296.5l.211-32.565Z" transform="translate(-168.549 -263.608)" fill="#12263f" opacity="0.1" style="isolation: isolate"/>
                <path id="Trazado_262175" data-name="Trazado 262175" d="M168.549,263.933l.211,32.928h10.286l.211-32.928Z" transform="translate(-168.549 -263.608)" fill="#12263f" opacity="0.2" style="isolation: isolate"/>
              </g>
              <g id="Grupo_150292" data-name="Grupo 150292" transform="translate(4.468 9.433)">
                <path id="Trazado_262176" data-name="Trazado 262176" d="M104.513,465.527h8.069l14.5-201.841h-10.7Z" transform="translate(-104.508 -263.686)" fill="#12263f"/>
                <path id="Trazado_262177" data-name="Trazado 262177" d="M104.51,465.449h8.074l13.79-191.815.711-9.7H116.376l-.579,9.7Z" transform="translate(-104.51 -263.608)" fill="#12263f" opacity="0.1" style="isolation: isolate"/>
                <path id="Trazado_262178" data-name="Trazado 262178" d="M113.079,273.152h10.576l.711-9.22H113.659Z" transform="translate(-101.792 -263.608)" fill="#12263f" opacity="0.2" style="isolation: isolate"/>
              </g>
              <g id="Grupo_150293" data-name="Grupo 150293" transform="translate(161.307 9.433)">
                <path id="Trazado_262179" data-name="Trazado 262179" d="M238.085,465.527h8.069L234.293,263.686h-10.7Z" transform="translate(-223.588 -263.686)" fill="#12263f"/>
                <path id="Trazado_262180" data-name="Trazado 262180" d="M223.589,263.933l.711,9.7,13.79,191.815h8.061L234.877,273.633l-.579-9.7Z" transform="translate(-223.588 -263.608)" fill="#12263f" opacity="0.1" style="isolation: isolate"/>
                <path id="Trazado_262181" data-name="Trazado 262181" d="M234.3,263.933H223.589l.711,9.22h10.576Z" transform="translate(-223.588 -263.608)" fill="#12263f" opacity="0.2" style="isolation: isolate"/>
              </g>
              <g id="Grupo_150294" data-name="Grupo 150294" transform="translate(7.849 4.378)">
                <path id="Rectángulo_293821" data-name="Rectángulo 293821" d="M2.162,0H170.485a2.162,2.162,0,0,1,2.162,2.162V10.11a0,0,0,0,1,0,0H0a0,0,0,0,1,0,0V2.162A2.162,2.162,0,0,1,2.162,0Z" transform="translate(172.647 10.11) rotate(180)" fill="#12263f"/>
                <path id="Rectángulo_293822" data-name="Rectángulo 293822" d="M2.162,0H170.485a2.162,2.162,0,0,1,2.162,2.162V10.11a0,0,0,0,1,0,0H0a0,0,0,0,1,0,0V2.162A2.162,2.162,0,0,1,2.162,0Z" transform="translate(172.647 10.11) rotate(180)" fill="#12263f" opacity="0.2" style="isolation: isolate"/>
              </g>
              <rect id="Rectángulo_293823" data-name="Rectángulo 293823" width="172.647" height="5.055" transform="translate(180.496 9.433) rotate(180)" fill="#12263f" opacity="0.2" style="isolation: isolate"/>
              <g id="Grupo_150295" data-name="Grupo 150295">
                <path id="Trazado_262182" data-name="Trazado 262182" d="M103.965,262.22h182.65a2.848,2.848,0,0,0,2.848-2.848h0a2.849,2.849,0,0,0-2.848-2.849H103.965a2.849,2.849,0,0,0-2.848,2.849h0A2.848,2.848,0,0,0,103.965,262.22Z" transform="translate(-101.117 -256.524)" fill="#12263f"/>
                <path id="Trazado_262183" data-name="Trazado 262183" d="M103.965,262.22h182.65a2.848,2.848,0,0,0,2.848-2.848h0a2.849,2.849,0,0,0-2.848-2.849H103.965a2.849,2.849,0,0,0-2.848,2.849h0A2.848,2.848,0,0,0,103.965,262.22Z" transform="translate(-101.117 -256.524)" fill="#12263f" opacity="0.2" style="isolation: isolate"/>
              </g>
            </g>
          </g>
        </g>
      </g>
    </g>
  </g>
</svg>
