<svg xmlns="http://www.w3.org/2000/svg" width="112.973" height="112.973" viewBox="0 0 112.973 112.973">
  <g id="Grupo_172997" data-name="Grupo 172997" transform="translate(-15542 -1633)">
    <g id="Grupo_150678" data-name="Grupo 150678" transform="translate(15604.948 1633)">
      <circle id="Elipse_6225" data-name="Elipse 6225" cx="8.474" cy="8.474" r="8.474" transform="translate(16.537 56.486)" fill="#7a6d79"/>
      <path id="Trazado_262495" data-name="Trazado 262495" d="M322.284,48.084v-.24a19.341,19.341,0,0,1,6.533-14.588A18.965,18.965,0,0,0,316.347,0H304.256a18.965,18.965,0,0,0-12.47,33.255,19.34,19.34,0,0,1,6.533,14.588v.24L313.171,57.8Z" transform="translate(-285.29 0)" fill="#ffe177"/>
      <path id="Trazado_262496" data-name="Trazado 262496" d="M313.571,53.8l-.4,4-14.851-9.715v-.24a19.343,19.343,0,0,0-6.533-14.589A18.965,18.965,0,0,1,304.254,0h6.511c-10.474,0-13.283,8.491-13.283,18.966a18.908,18.908,0,0,0,6.5,14.289,19.341,19.341,0,0,1,6.532,14.589v.24Z" transform="translate(-285.288 -0.001)" fill="#fec165"/>
      <path id="Trazado_262497" data-name="Trazado 262497" d="M366.531,96.133a1.7,1.7,0,0,0-3.409,0,9.273,9.273,0,0,1-18.547,0,1.7,1.7,0,0,0-3.409,0A12.7,12.7,0,0,0,352.142,108.7v12.977a1.7,1.7,0,0,0,3.409,0V108.7A12.7,12.7,0,0,0,366.531,96.133Z" transform="translate(-328.836 -73.592)" fill="#fea95c"/>
      <path id="Trazado_262498" data-name="Trazado 262498" d="M360.478,222.777a4.858,4.858,0,0,0-4.857-4.858H335.189a4.858,4.858,0,1,0,0,9.715,4.857,4.857,0,1,0,0,9.715H355.62a4.857,4.857,0,0,0,0-9.715A4.858,4.858,0,0,0,360.478,222.777Z" transform="translate(-320.392 -169.835)" fill="#f9f7f8"/>
      <path id="Trazado_262499" data-name="Trazado 262499" d="M341.626,232.491a4.857,4.857,0,0,0,4.858,4.858H335.189a4.858,4.858,0,1,1,0-9.715,4.858,4.858,0,1,1,0-9.715h11.295a4.858,4.858,0,0,0,0,9.715A4.858,4.858,0,0,0,341.626,232.491Z" transform="translate(-320.392 -169.834)" fill="#dedbee"/>
    </g>
    <path id="Trazado_262500" data-name="Trazado 262500" d="M97.34,364.091H6.653A6.653,6.653,0,0,0,0,370.744v19.329a6.653,6.653,0,0,0,6.653,6.653H97.34a8.047,8.047,0,0,0,5.931-2.608l7.585-8.27a8.048,8.048,0,0,0,0-10.88l-7.585-8.27A8.047,8.047,0,0,0,97.34,364.091Z" transform="translate(15542 1349.246)" fill="#fe646f"/>
    <path id="Trazado_262501" data-name="Trazado 262501" d="M14.955,396.724h-8.3A6.652,6.652,0,0,1,0,390.071V370.74a6.653,6.653,0,0,1,6.653-6.653h8.3A6.653,6.653,0,0,0,8.3,370.74v19.331A6.652,6.652,0,0,0,14.955,396.724Z" transform="translate(15542 1349.249)" fill="#fd4755"/>
    <path id="Trazado_262502" data-name="Trazado 262502" d="M27.95,0H6.653A6.653,6.653,0,0,0,0,6.653V25.983a6.653,6.653,0,0,0,6.653,6.653h21.3a8.047,8.047,0,0,0,5.931-2.608l7.585-8.27a8.048,8.048,0,0,0,0-10.88l-7.585-8.27A8.048,8.048,0,0,0,27.95,0Z" transform="translate(15542 1633)" fill="#bbec6c"/>
    <path id="Trazado_262503" data-name="Trazado 262503" d="M14.955,32.637h-8.3A6.654,6.654,0,0,1,0,25.984V6.653A6.652,6.652,0,0,1,6.653,0h8.3A6.652,6.652,0,0,0,8.3,6.653v19.33A6.654,6.654,0,0,0,14.955,32.637Z" transform="translate(15542 1633)" fill="#a2e62e"/>
    <path id="Trazado_262504" data-name="Trazado 262504" d="M50.695,182.045H6.653A6.653,6.653,0,0,0,0,188.7v19.329a6.653,6.653,0,0,0,6.653,6.653H50.694a8.047,8.047,0,0,0,5.931-2.608l7.585-8.27a8.048,8.048,0,0,0,0-10.88l-7.585-8.27a8.048,8.048,0,0,0-5.931-2.608Z" transform="translate(15542 1491.123)" fill="#ffe177"/>
    <path id="Trazado_262505" data-name="Trazado 262505" d="M14.955,214.68h-8.3A6.653,6.653,0,0,1,0,208.027V188.7a6.653,6.653,0,0,1,6.653-6.653h8.3A6.653,6.653,0,0,0,8.3,188.7v19.33A6.654,6.654,0,0,0,14.955,214.68Z" transform="translate(15542 1491.125)" fill="#fec165"/>
    <path id="Trazado_262506" data-name="Trazado 262506" d="M47.277,50.943a1.7,1.7,0,0,0,2.2-.986l.954-2.506h6.5l.944,2.5a1.7,1.7,0,1,0,3.19-1.2L55.605,34.277l-.018-.046A2.031,2.031,0,0,0,53.7,32.968h0a2.03,2.03,0,0,0-1.884,1.266l-.015.039L46.291,48.743A1.7,1.7,0,0,0,47.277,50.943ZM53.7,38.877l1.949,5.165H51.73Z" transform="translate(15506.011 1607.306)" fill="#ffe177"/>
    <path id="Trazado_262507" data-name="Trazado 262507" d="M47.885,233.1h.008s3.92-.017,5-.017a5.652,5.652,0,0,0,3.454-10.129,5.079,5.079,0,0,0-4.2-7.941H47.885a1.7,1.7,0,0,0-1.7,1.7V231.4a1.705,1.705,0,0,0,1.7,1.705Zm5.008-3.427c-.606,0-2.1.006-3.3.01v-4.5l3.3,0a2.246,2.246,0,1,1,0,4.492Zm-.744-11.25a1.672,1.672,0,0,1,0,3.345l-2.559,0v-3.349h2.559Z" transform="translate(15506.01 1465.429)" fill="#7a6d79"/>
    <path id="Trazado_262508" data-name="Trazado 262508" d="M60.942,410.064a1.7,1.7,0,0,0-2.4.211,4.076,4.076,0,0,1-3.317,1.462,5.634,5.634,0,1,1,3.149-10.307,1.7,1.7,0,0,0,1.909-2.825,9.044,9.044,0,1,0-5.058,16.542,7.48,7.48,0,0,0,5.93-2.681A1.705,1.705,0,0,0,60.942,410.064Z" transform="translate(15506.01 1323.551)" fill="#f9f7f8"/>
  </g>
</svg>
