<svg xmlns="http://www.w3.org/2000/svg" width="112.973" height="105.684" viewBox="0 0 112.973 105.684">
  <g id="Grupo_172998" data-name="Grupo 172998" transform="translate(-15542 -2030)">
    <g id="Grupo_150697" data-name="Grupo 150697" transform="translate(15542 2102.885)">
      <g id="Grupo_150680" data-name="Grupo 150680" transform="translate(58.308 25.51)">
        <g id="Grupo_150679" data-name="Grupo 150679">
          <path id="Trazado_262509" data-name="Trazado 262509" d="M289.51,448H267.644A3.644,3.644,0,0,0,264,451.644v3.644h29.154v-3.644A3.644,3.644,0,0,0,289.51,448Z" transform="translate(-264 -448)" fill="#faa019"/>
        </g>
      </g>
      <g id="Grupo_150682" data-name="Grupo 150682" transform="translate(72.885 25.51)">
        <g id="Grupo_150681" data-name="Grupo 150681">
          <path id="Trazado_262510" data-name="Trazado 262510" d="M338.933,448H328v7.289h14.577v-3.644A3.644,3.644,0,0,0,338.933,448Z" transform="translate(-328 -448)" fill="#f06423"/>
        </g>
      </g>
      <g id="Grupo_150684" data-name="Grupo 150684" transform="translate(61.953 3.644)">
        <g id="Grupo_150683" data-name="Grupo 150683">
          <path id="Trazado_262511" data-name="Trazado 262511" d="M303.688,352H290.933A10.933,10.933,0,0,0,280,362.933v10.933h10.933v-7.289a3.644,3.644,0,0,1,3.644-3.644h9.111a5.466,5.466,0,1,0,0-10.933Z" transform="translate(-280 -352)" fill="#fab991"/>
        </g>
      </g>
      <path id="Trazado_262512" data-name="Trazado 262512" d="M367.019,337.068a3.644,3.644,0,0,0-5.154,0l-13.51,13.51H331.644A3.644,3.644,0,0,0,328,354.222v7.289h10.933a3.644,3.644,0,0,1,3.644-3.644h6.534a5.43,5.43,0,0,0,3.865-1.6l14.043-14.043A3.644,3.644,0,0,0,367.019,337.068Z" transform="translate(-255.115 -336)" fill="#f0915a"/>
      <g id="Grupo_150686" data-name="Grupo 150686" transform="translate(82.604 6.074)">
        <g id="Grupo_150685" data-name="Grupo 150685">
          <path id="Trazado_262513" data-name="Trazado 262513" d="M373.7,368.74h-1.215a1.822,1.822,0,0,1-1.822-1.822v-2.43a1.822,1.822,0,0,1,1.822-1.822H373.7a3.037,3.037,0,0,1,0,6.074Z" transform="translate(-370.667 -362.666)" fill="#f0915a"/>
        </g>
      </g>
      <g id="Grupo_150688" data-name="Grupo 150688" transform="translate(25.51 25.51)">
        <g id="Grupo_150687" data-name="Grupo 150687">
          <path id="Trazado_262514" data-name="Trazado 262514" d="M145.51,448H123.644A3.644,3.644,0,0,0,120,451.644v3.644h29.154v-3.644A3.644,3.644,0,0,0,145.51,448Z" transform="translate(-120 -448)" fill="#faa019"/>
        </g>
      </g>
      <g id="Grupo_150690" data-name="Grupo 150690" transform="translate(40.087 25.51)">
        <g id="Grupo_150689" data-name="Grupo 150689">
          <path id="Trazado_262515" data-name="Trazado 262515" d="M194.933,448H184v7.289h14.577v-3.644A3.644,3.644,0,0,0,194.933,448Z" transform="translate(-184 -448)" fill="#f06423"/>
        </g>
      </g>
      <g id="Grupo_150692" data-name="Grupo 150692" transform="translate(21.866 3.644)">
        <g id="Grupo_150691" data-name="Grupo 150691">
          <path id="Trazado_262516" data-name="Trazado 262516" d="M109.466,352h12.755a10.933,10.933,0,0,1,10.933,10.933H109.466a5.466,5.466,0,1,1,0-10.933Z" transform="translate(-104 -352)" fill="#fab991"/>
        </g>
      </g>
      <g id="Grupo_150694" data-name="Grupo 150694" transform="translate(24.295 6.074)">
        <g id="Grupo_150693" data-name="Grupo 150693">
          <path id="Trazado_262517" data-name="Trazado 262517" d="M117.7,368.74h1.215a1.822,1.822,0,0,0,1.822-1.822v-2.43a1.822,1.822,0,0,0-1.822-1.822H117.7a3.037,3.037,0,0,0,0,6.074Z" transform="translate(-114.667 -362.666)" fill="#f0915a"/>
        </g>
      </g>
      <path id="Trazado_262518" data-name="Trazado 262518" d="M27.731,350.577l-13.51-13.51a3.644,3.644,0,0,0-5.154,5.154l14.043,14.043a5.43,5.43,0,0,0,3.866,1.6H33.51a3.644,3.644,0,0,1,3.644,3.644H59.02V350.577H27.731Z" transform="translate(-8 -336)" fill="#f0915a"/>
      <g id="Grupo_150696" data-name="Grupo 150696" transform="translate(25.51 21.866)">
        <g id="Grupo_150695" data-name="Grupo 150695">
          <path id="Trazado_262519" data-name="Trazado 262519" d="M120,432a3.644,3.644,0,0,1,3.644,3.644h10.933A3.644,3.644,0,0,0,130.933,432Z" transform="translate(-120 -432)" fill="#fab991"/>
        </g>
      </g>
    </g>
    <g id="Grupo_150712" data-name="Grupo 150712" transform="translate(15572.977 2030)">
      <g id="Grupo_150699" data-name="Grupo 150699" transform="translate(0 0)">
        <g id="Grupo_150698" data-name="Grupo 150698">
          <path id="Trazado_262520" data-name="Trazado 262520" d="M195.019,41.51a25.51,25.51,0,1,0-40.738,20.466,10.816,10.816,0,0,1,4.3,8.688h21.866a10.973,10.973,0,0,1,4.4-8.761A25.468,25.468,0,0,0,195.019,41.51Z" transform="translate(-143.999 -16)" fill="#a5c3dc"/>
        </g>
      </g>
      <g id="Grupo_150701" data-name="Grupo 150701" transform="translate(14.577 54.664)">
        <g id="Grupo_150700" data-name="Grupo 150700">
          <path id="Trazado_262521" data-name="Trazado 262521" d="M229.866,256H208v7.289a3.644,3.644,0,0,0,3.644,3.644h14.577a3.644,3.644,0,0,0,3.644-3.644Z" transform="translate(-208 -256)" fill="#555a6e"/>
        </g>
      </g>
      <g id="Grupo_150703" data-name="Grupo 150703" transform="translate(25.51 54.664)">
        <g id="Grupo_150702" data-name="Grupo 150702">
          <path id="Trazado_262522" data-name="Trazado 262522" d="M266.933,256H256v10.933h7.289a3.644,3.644,0,0,0,3.644-3.644Z" transform="translate(-256 -256)" fill="#463c4b"/>
        </g>
      </g>
      <g id="Grupo_150705" data-name="Grupo 150705" transform="translate(14.577 58.308)">
        <g id="Grupo_150704" data-name="Grupo 150704">
          <path id="Trazado_262523" data-name="Trazado 262523" d="M208,272h10.933v3.644H208Z" transform="translate(-208 -272)" fill="#d7e6f0"/>
        </g>
      </g>
      <g id="Grupo_150707" data-name="Grupo 150707" transform="translate(25.51 58.308)">
        <g id="Grupo_150706" data-name="Grupo 150706">
          <path id="Trazado_262524" data-name="Trazado 262524" d="M256,272h10.933v3.644H256Z" transform="translate(-256 -272)" fill="#a5c3dc"/>
        </g>
      </g>
      <g id="Grupo_150709" data-name="Grupo 150709" transform="translate(18.222 65.597)">
        <g id="Grupo_150708" data-name="Grupo 150708" transform="translate(0 0)">
          <path id="Trazado_262525" data-name="Trazado 262525" d="M234.933,307.644h-7.289A3.644,3.644,0,0,1,224,304h14.577A3.644,3.644,0,0,1,234.933,307.644Z" transform="translate(-224 -304)" fill="#463c4b"/>
        </g>
      </g>
      <g id="Grupo_150711" data-name="Grupo 150711" transform="translate(0 0)">
        <g id="Grupo_150710" data-name="Grupo 150710">
          <path id="Trazado_262526" data-name="Trazado 262526" d="M156.755,54.265A12.755,12.755,0,0,0,169.51,41.51V16A25.51,25.51,0,0,0,144,41.51,12.755,12.755,0,0,0,156.755,54.265Z" transform="translate(-144 -16)" fill="#d7e6f0"/>
        </g>
      </g>
    </g>
    <g id="Grupo_150715" data-name="Grupo 150715" transform="translate(15585.419 2033.827)">
      <path id="Trazado_262527" data-name="Trazado 262527" d="M219.426,39.025l-5.154-5.154a3.644,3.644,0,0,0-5.153,0l-5.154,5.154a18.221,18.221,0,0,0,0,25.769l5.154,5.154a3.643,3.643,0,0,0,5.153,0l5.154-5.154a18.221,18.221,0,0,0,0-25.769Z" transform="translate(-198.628 -32.804)" fill="#5faa46"/>
      <g id="Grupo_150714" data-name="Grupo 150714" transform="translate(11.245 6.976)">
        <g id="Grupo_150713" data-name="Grupo 150713">
          <path id="Trazado_262528" data-name="Trazado 262528" d="M249.822,98A1.822,1.822,0,0,1,248,96.177V65.254a1.822,1.822,0,1,1,3.644,0V96.177A1.822,1.822,0,0,1,249.822,98Z" transform="translate(-248 -63.432)" fill="#91c83c"/>
        </g>
      </g>
    </g>
    <g id="Grupo_150716" data-name="Grupo 150716" transform="translate(15560.222 2071.909)">
      <path id="Trazado_262529" data-name="Trazado 262529" d="M362.083,212.057a1.822,1.822,0,0,0-1.683-1.125h-4.76l2.845-8.534a1.822,1.822,0,0,0-3.017-1.865l-10.933,10.933a1.822,1.822,0,0,0,1.288,3.111h4.76l-2.845,8.534a1.822,1.822,0,0,0,3.017,1.865l10.933-10.933A1.822,1.822,0,0,0,362.083,212.057Z" transform="translate(-285.691 -199.999)" fill="#faa019"/>
      <path id="Trazado_262530" data-name="Trazado 262530" d="M105.687,211.466,94.754,200.533a1.822,1.822,0,0,0-3.017,1.865l2.845,8.534h-4.76a1.822,1.822,0,0,0-1.289,3.11l10.933,10.933a1.822,1.822,0,0,0,3.017-1.865l-2.845-8.534h4.76a1.822,1.822,0,0,0,1.288-3.111Z" transform="translate(-87.999 -199.999)" fill="#faa019"/>
    </g>
  </g>
</svg>
