<svg xmlns="http://www.w3.org/2000/svg" width="180" height="180" viewBox="0 0 180 180">
  <g id="Grupo_172982" data-name="Grupo 172982" transform="translate(-366 -2549)">
    <circle id="Elipse_6242" data-name="Elipse 6242" cx="90" cy="90" r="90" transform="translate(366 2549)" fill="#20cb7d"/>
    <g id="software" transform="translate(396 2580)">
      <g id="Grupo_150782" data-name="Grupo 150782" transform="translate(16.609 45.447)">
        <g id="Grupo_150779" data-name="Grupo 150779" transform="translate(4.376)">
          <path id="Trazado_262612" data-name="Trazado 262612" d="M155.523,184.771V242.5H82.953V184.771a5.115,5.115,0,0,1,5.114-5.115h62.341A5.115,5.115,0,0,1,155.523,184.771Z" transform="translate(-82.953 -179.657)" fill="#39484c"/>
        </g>
        <g id="Grupo_150780" data-name="Grupo 150780" transform="translate(12.267 7.771)">
          <path id="Trazado_262613" data-name="Trazado 262613" d="M114.146,210.378h56.788v47.3H114.146Z" transform="translate(-114.146 -210.378)" fill="#fff"/>
        </g>
        <g id="Grupo_150781" data-name="Grupo 150781" transform="translate(0 62.839)">
          <path id="Trazado_262614" data-name="Trazado 262614" d="M146.977,428.064H65.655v5.043a5.059,5.059,0,0,0,5.059,5.059h71.2a5.059,5.059,0,0,0,5.059-5.059Z" transform="translate(-65.655 -428.064)" fill="#617a7f"/>
        </g>
      </g>
      <g id="Grupo_150794" data-name="Grupo 150794" transform="translate(66.546 9.192)">
        <g id="Grupo_150788" data-name="Grupo 150788" transform="translate(0 9.44)">
          <g id="Grupo_150783" data-name="Grupo 150783">
            <path id="Trazado_262615" data-name="Trazado 262615" d="M310.35,110.758H267.613a4.553,4.553,0,0,1-4.553-4.553V73.655H314.9V106.2A4.553,4.553,0,0,1,310.35,110.758Z" transform="translate(-263.06 -73.655)" fill="#b8add8"/>
          </g>
          <g id="Grupo_150787" data-name="Grupo 150787" transform="translate(10.773 10.673)">
            <g id="Grupo_150784" data-name="Grupo 150784" transform="translate(0 2.212)">
              <path id="Trazado_262616" data-name="Trazado 262616" d="M305.647,131.4l9.593,4.959v-2.883l-5.966-3,5.966-3v-2.883l-9.593,4.959Z" transform="translate(-305.647 -124.591)" fill="#fff"/>
            </g>
            <g id="Grupo_150785" data-name="Grupo 150785" transform="translate(11.514)">
              <path id="Trazado_262617" data-name="Trazado 262617" d="M351.161,130.056h2.754l5.468-14.209H356.61Z" transform="translate(-351.161 -115.847)" fill="#fff"/>
            </g>
            <g id="Grupo_150786" data-name="Grupo 150786" transform="translate(20.704 2.214)">
              <path id="Trazado_262618" data-name="Trazado 262618" d="M387.492,124.6v2.883l6.009,3-6.009,3v2.883l9.523-4.9.069-.036v-1.888Z" transform="translate(-387.492 -124.6)" fill="#fff"/>
            </g>
          </g>
        </g>
        <g id="Grupo_150793" data-name="Grupo 150793">
          <g id="Grupo_150789" data-name="Grupo 150789">
            <path id="Trazado_262619" data-name="Trazado 262619" d="M314.9,45.778H263.06V40.891a4.553,4.553,0,0,1,4.553-4.553h42.23A5.059,5.059,0,0,1,314.9,41.4Z" transform="translate(-263.06 -36.338)" fill="#7453d8"/>
          </g>
          <g id="Grupo_150790" data-name="Grupo 150790" transform="translate(44.665 3.319)">
            <ellipse id="Elipse_6233" data-name="Elipse 6233" cx="1.396" cy="1.401" rx="1.396" ry="1.401" fill="#fff"/>
          </g>
          <g id="Grupo_150791" data-name="Grupo 150791" transform="translate(38.683 3.319)">
            <ellipse id="Elipse_6234" data-name="Elipse 6234" cx="1.396" cy="1.401" rx="1.396" ry="1.401" fill="#fff"/>
          </g>
          <g id="Grupo_150792" data-name="Grupo 150792" transform="translate(32.701 3.319)">
            <ellipse id="Elipse_6235" data-name="Elipse 6235" cx="1.396" cy="1.401" rx="1.396" ry="1.401" fill="#fff"/>
          </g>
        </g>
      </g>
      <g id="Grupo_150797" data-name="Grupo 150797" transform="translate(40.647 60.244)">
        <g id="Grupo_150795" data-name="Grupo 150795">
          <path id="Trazado_262620" data-name="Trazado 262620" d="M193.926,257.494v-5.407l-3.84-.939a13.211,13.211,0,0,0-1.163-2.815l2.058-3.39-3.823-3.823-3.381,2.053A13.2,13.2,0,0,0,180.966,242l-.941-3.851h-5.407l-.939,3.84a13.21,13.21,0,0,0-2.815,1.163l-3.39-2.058-3.823,3.823L165.7,248.3a13.2,13.2,0,0,0-1.171,2.811l-3.851.941v5.407l3.84.939a13.206,13.206,0,0,0,1.163,2.815l-2.058,3.39,3.823,3.823,3.381-2.053a13.194,13.194,0,0,0,2.811,1.171l.941,3.851h5.407l.939-3.84a13.206,13.206,0,0,0,2.815-1.163l3.39,2.058,3.823-3.823-2.053-3.381a13.2,13.2,0,0,0,1.171-2.811Z" transform="translate(-160.681 -238.151)" fill="#20cb7d"/>
        </g>
        <g id="Grupo_150796" data-name="Grupo 150796" transform="translate(10.146 10.146)">
          <circle id="Elipse_6236" data-name="Elipse 6236" cx="6.476" cy="6.476" r="6.476" fill="#fff"/>
        </g>
      </g>
      <g id="XMLID_157_" transform="translate(0 0)">
        <g id="XMLID_164_" transform="translate(9.68 9.682)">
          <g id="XMLID_165_">
            <path id="Trazado_262621" data-name="Trazado 262621" d="M74.447,56.344a18.091,18.091,0,1,0-30.1,13.514,14.809,14.809,0,0,1,5.077,11.051v4.13H63.289v-4.13a14.808,14.808,0,0,1,5.077-11.051,18.015,18.015,0,0,0,6.081-13.514Z" transform="translate(-38.265 -38.272)" fill="#fda929"/>
          </g>
          <g id="Grupo_150798" data-name="Grupo 150798" transform="translate(4.551 4.617)">
            <path id="Trazado_262622" data-name="Trazado 262622" d="M57.522,71.244a1.265,1.265,0,0,1-1.265-1.265A13.513,13.513,0,0,1,69.8,56.524a1.265,1.265,0,1,1,0,2.53,10.981,10.981,0,0,0-11.01,10.926A1.265,1.265,0,0,1,57.522,71.244Z" transform="translate(-56.257 -56.524)" fill="#fff"/>
          </g>
          <path id="Trazado_262623" data-name="Trazado 262623" d="M100.559,107.38a4.847,4.847,0,1,0-6.094,4.732,1.256,1.256,0,0,0-.017.17V124a1.265,1.265,0,1,0,2.53,0V112.282a1.256,1.256,0,0,0-.017-.17A4.89,4.89,0,0,0,100.559,107.38Z" transform="translate(-77.56 -86.236)" fill="#fff"/>
          <g id="Grupo_150799" data-name="Grupo 150799" transform="translate(7.155 37.763)">
            <path id="Trazado_262624" data-name="Trazado 262624" d="M84.494,187.551H70.6A4.051,4.051,0,0,0,66.55,191.6v.089a4.051,4.051,0,0,0,4.051,4.051H84.494a4.051,4.051,0,0,0,4.051-4.051V191.6A4.051,4.051,0,0,0,84.494,187.551Z" transform="translate(-66.55 -187.551)" fill="#7453d8"/>
          </g>
          <g id="Grupo_150800" data-name="Grupo 150800" transform="translate(11.071 45.953)">
            <path id="Trazado_262625" data-name="Trazado 262625" d="M96.194,219.927H82.031V224.4a2.53,2.53,0,0,0,2.53,2.53h9.1a2.53,2.53,0,0,0,2.53-2.53Z" transform="translate(-82.031 -219.927)" fill="#7453d8"/>
          </g>
        </g>
        <g id="XMLID_158_">
          <g id="XMLID_163_" transform="translate(26.523)">
            <path id="Trazado_262626" data-name="Trazado 262626" d="M106.113,4.756a1.265,1.265,0,0,1-1.265-1.265V1.265a1.265,1.265,0,1,1,2.53,0V3.491A1.265,1.265,0,0,1,106.113,4.756Z" transform="translate(-104.848)" fill="#fda929"/>
          </g>
          <g id="XMLID_162_" transform="translate(6.107 9.046)">
            <path id="Trazado_262627" data-name="Trazado 262627" d="M26.956,39.863a1.262,1.262,0,0,1-.9-.378l-1.549-1.574a1.265,1.265,0,0,1,1.8-1.774l1.549,1.574a1.3,1.3,0,0,1-.9,2.152Z" transform="translate(-24.142 -35.759)" fill="#fda929"/>
          </g>
          <g id="XMLID_161_" transform="translate(0 23.933)">
            <path id="Trazado_262628" data-name="Trazado 262628" d="M3.456,97.139H1.265a1.265,1.265,0,0,1,0-2.53H3.456a1.265,1.265,0,0,1,0,2.53Z" transform="translate(0 -94.609)" fill="#fda929"/>
          </g>
          <g id="XMLID_160_" transform="translate(50.945 23.842)">
            <path id="Trazado_262629" data-name="Trazado 262629" d="M204.845,96.779h-2.19a1.265,1.265,0,0,1,0-2.53h2.19a1.265,1.265,0,0,1,0,2.53Z" transform="translate(-201.39 -94.249)" fill="#fda929"/>
          </g>
          <g id="XMLID_159_" transform="translate(45.447 8.982)">
            <path id="Trazado_262630" data-name="Trazado 262630" d="M180.889,39.609a1.3,1.3,0,0,1-.9-2.152l1.549-1.574a1.265,1.265,0,0,1,1.8,1.774l-1.549,1.574A1.263,1.263,0,0,1,180.889,39.609Z" transform="translate(-179.655 -35.505)" fill="#fda929"/>
          </g>
        </g>
      </g>
      <g id="Grupo_150804" data-name="Grupo 150804" transform="translate(74.914 74.915)">
        <g id="Grupo_150801" data-name="Grupo 150801">
          <path id="Trazado_262631" data-name="Trazado 262631" d="M339.617,321.439v-7.071l-5.022-1.228a17.262,17.262,0,0,0-1.521-3.681l2.692-4.434-5-5-4.421,2.684a17.246,17.246,0,0,0-3.676-1.531l-1.231-5.036h-7.071l-1.228,5.022a17.263,17.263,0,0,0-3.681,1.521l-4.433-2.692-5,5,2.684,4.421a17.248,17.248,0,0,0-1.531,3.676l-5.036,1.231v7.071l5.022,1.228a17.262,17.262,0,0,0,1.521,3.681l-2.692,4.434,5,5,4.421-2.684a17.243,17.243,0,0,0,3.676,1.531l1.231,5.036h7.071l1.228-5.022a17.264,17.264,0,0,0,3.681-1.521l4.434,2.692,5-5-2.684-4.421a17.248,17.248,0,0,0,1.531-3.676Z" transform="translate(-296.143 -296.144)" fill="#fda929"/>
        </g>
        <g id="Grupo_150802" data-name="Grupo 150802" transform="translate(10.351 10.351)">
          <circle id="Elipse_6237" data-name="Elipse 6237" cx="11.386" cy="11.386" r="11.386" fill="#fff"/>
        </g>
        <g id="Grupo_150803" data-name="Grupo 150803" transform="translate(17.134 17.134)">
          <path id="Trazado_262632" data-name="Trazado 262632" d="M368.478,373.082a4.6,4.6,0,1,1,4.6-4.6A4.608,4.608,0,0,1,368.478,373.082Z" transform="translate(-363.875 -363.875)" fill="#fda929"/>
        </g>
      </g>
      <g id="Grupo_150805" data-name="Grupo 150805" transform="translate(54.135 0)">
        <path id="Trazado_262633" data-name="Trazado 262633" d="M222.159,4.644l1.96.415-2.266.643a3.373,3.373,0,0,0-2.373,2.517l-.42,1.9-.42-1.9A3.373,3.373,0,0,0,216.266,5.7L214,5.059l1.96-.415a3.372,3.372,0,0,0,2.578-2.5L219.059,0l.522,2.143a3.373,3.373,0,0,0,2.578,2.5Z" transform="translate(-214 0)" fill="#7453d8"/>
      </g>
      <g id="Grupo_150806" data-name="Grupo 150806" transform="translate(2.53 61.932)">
        <path id="Trazado_262634" data-name="Trazado 262634" d="M18.159,249.468l1.96.415-2.266.643a3.373,3.373,0,0,0-2.373,2.517l-.42,1.9-.42-1.9a3.373,3.373,0,0,0-2.373-2.517L10,249.884l1.96-.415a3.372,3.372,0,0,0,2.578-2.5l.522-2.143.522,2.143A3.373,3.373,0,0,0,18.159,249.468Z" transform="translate(-10 -244.824)" fill="#fda929"/>
      </g>
    </g>
  </g>
</svg>
