<svg xmlns="http://www.w3.org/2000/svg" width="180" height="180" viewBox="0 0 180 180">
  <g id="Grupo_172984" data-name="Grupo 172984" transform="translate(-1068 -2549.478)">
    <circle id="Elipse_6241" data-name="Elipse 6241" cx="90" cy="90" r="90" transform="translate(1068 2549.478)" fill="#20cb7d"/>
    <g id="puesta-en-marcha" transform="translate(1096 2573.611)">
      <g id="Grupo_150724" data-name="Grupo 150724" transform="translate(0 6.331)">
        <path id="Trazado_262545" data-name="Trazado 262545" d="M4.076,41.044a8.8,8.8,0,0,1,8.775-7.874,8.965,8.965,0,0,1,.983.056,10.685,10.685,0,0,1,21.216,0,8.965,8.965,0,0,1,.983-.056,8.8,8.8,0,0,1,8.775,7.874H45a3.934,3.934,0,0,1,0,7.867H3.885a3.934,3.934,0,0,1,0-7.867Z" transform="translate(0 -23.821)" fill="#fff"/>
      </g>
      <g id="Grupo_150733" data-name="Grupo 150733" transform="translate(0 0)">
        <g id="Grupo_150729" data-name="Grupo 150729" transform="translate(0 45.627)">
          <g id="Grupo_150725" data-name="Grupo 150725" transform="translate(4.918)">
            <path id="Trazado_262546" data-name="Trazado 262546" d="M103.511,239.124H18.5V177.547a5.886,5.886,0,0,1,5.893-5.879H97.618a5.886,5.886,0,0,1,5.893,5.879Z" transform="translate(-18.503 -171.668)" fill="#39484c"/>
          </g>
          <g id="Grupo_150726" data-name="Grupo 150726" transform="translate(13.786 8.697)">
            <path id="Trazado_262547" data-name="Trazado 262547" d="M51.869,204.388h67.272v50.064H51.869Z" transform="translate(-51.869 -204.388)" fill="#fff"/>
          </g>
          <g id="Grupo_150727" data-name="Grupo 150727" transform="translate(13.907 38.031)">
            <path id="Trazado_262548" data-name="Trazado 262548" d="M119.334,335.535a10.246,10.246,0,0,0-9.561-6.773c-.117,0-.233.005-.349.009,0-.118.009-.237.009-.356a10.06,10.06,0,0,0-9.959-10.158,9.765,9.765,0,0,0-5.167,1.473,9.859,9.859,0,0,0-17.128,0,9.768,9.768,0,0,0-5.167-1.473,10.06,10.06,0,0,0-9.959,10.158c0,.119,0,.237.009.356-.116,0-.232-.009-.349-.009a9.978,9.978,0,0,0-9.389,6.764" transform="translate(-52.323 -314.756)" fill="#e1eaff"/>
          </g>
          <g id="Grupo_150728" data-name="Grupo 150728" transform="translate(0 67.456)">
            <path id="Trazado_262549" data-name="Trazado 262549" d="M94.844,425.466H0v5.989a5.316,5.316,0,0,0,5.316,5.316H89.528a5.316,5.316,0,0,0,5.316-5.316Z" transform="translate(0 -425.466)" fill="#617a7f"/>
          </g>
        </g>
        <g id="XMLID_194_" transform="translate(22.545)">
          <g id="Grupo_150730" data-name="Grupo 150730" transform="translate(11.288 63.415)">
            <path id="Trazado_262550" data-name="Trazado 262550" d="M146.453,253.719a2.27,2.27,0,0,1,1.9-3.067c3.525-.5,5.154,6.5,5.154,6.5q.09-.193.174-.386c3.029-6.929-.26-15.322-7.7-17.17-.411-.1-.8-.281-1.221-.406-10.859-3.252-20.835,7.38-16.391,17.575q.084.192.174.386s1.594-6.847,5.04-6.512c1.753.17,2.233,1.873,1.807,3.387a12.518,12.518,0,0,0,5.561,13.461l.052.033a13,13,0,0,0,5.445-13.795Z" transform="translate(-127.293 -238.592)" fill="#fda929"/>
          </g>
          <g id="XMLID_199_" transform="translate(0 36.928)">
            <path id="Trazado_262551" data-name="Trazado 262551" d="M95.657,141.5l3.408-2.562,5.765,16.429-.305.049a27.677,27.677,0,0,0-19.186,12.736A26.769,26.769,0,0,1,95.657,141.5Z" transform="translate(-84.824 -138.939)" fill="#29398a"/>
          </g>
          <g id="XMLID_198_" transform="translate(30.046 36.928)">
            <path id="Trazado_262552" data-name="Trazado 262552" d="M207.041,141.5l-3.408-2.562-5.765,16.429.15.023a27.632,27.632,0,0,1,19.341,12.762A26.77,26.77,0,0,0,207.041,141.5Z" transform="translate(-197.869 -138.939)" fill="#29398a"/>
          </g>
          <g id="XMLID_197_" transform="translate(7.722)">
            <path id="Trazado_262553" data-name="Trazado 262553" d="M148.3,30.584A42.536,42.536,0,0,0,131.279,0a42.99,42.99,0,0,0-17.093,30.584c-1.988,16.828,6.2,30.224,9.281,35.063H139.02c3.134-4.952,11.2-18.306,9.28-35.063Z" transform="translate(-113.879 0)" fill="#efefef"/>
          </g>
          <g id="Grupo_150732" data-name="Grupo 150732" transform="translate(12.385)">
            <g id="Grupo_150731" data-name="Grupo 150731">
              <path id="Trazado_262554" data-name="Trazado 262554" d="M156.9,15.241a41.477,41.477,0,0,0-2.287-4.043A43.391,43.391,0,0,0,144.16,0a43.839,43.839,0,0,0-10.439,11.2,41.993,41.993,0,0,0-2.3,4.043,21.432,21.432,0,0,0,12.738,4.468A21.432,21.432,0,0,0,156.9,15.241Z" transform="translate(-131.422 0)" fill="#29398a"/>
            </g>
          </g>
          <g id="XMLID_195_" transform="translate(18.607 27.956)">
            <circle id="Elipse_6226" data-name="Elipse 6226" cx="6.518" cy="6.518" r="6.518" fill="#fff"/>
          </g>
        </g>
      </g>
      <g id="Grupo_150737" data-name="Grupo 150737" transform="translate(78.761 83.852)">
        <g id="Grupo_150734" data-name="Grupo 150734" transform="translate(2.158 10.103)">
          <path id="Trazado_262555" data-name="Trazado 262555" d="M304.453,353.5h41.31v30.433h-41.31Z" transform="translate(-304.453 -353.499)" fill="#fdc165"/>
        </g>
        <g id="Grupo_150735" data-name="Grupo 150735">
          <path id="Trazado_262556" data-name="Trazado 262556" d="M296.332,315.486h45.627v10.1H296.332Z" transform="translate(-296.332 -315.486)" fill="#fda929"/>
        </g>
        <g id="Grupo_150736" data-name="Grupo 150736" transform="translate(16.11 10.103)">
          <path id="Trazado_262557" data-name="Trazado 262557" d="M370.352,371.128l-6.7-7.239-6.7,7.239V353.5h13.407Z" transform="translate(-356.945 -353.499)" fill="#fff"/>
        </g>
      </g>
      <g id="Grupo_150740" data-name="Grupo 150740" transform="translate(80.934 0)">
        <g id="Grupo_150738" data-name="Grupo 150738">
          <path id="Trazado_262558" data-name="Trazado 262558" d="M347.961,25.284V18.217l-5.019-1.227a17.247,17.247,0,0,0-1.52-3.679l2.691-4.431-5-5L334.7,6.564a17.26,17.26,0,0,0-3.675-1.531L329.791,0h-7.068L321.5,5.019a17.249,17.249,0,0,0-3.679,1.52l-4.431-2.691-5,5,2.683,4.419a17.258,17.258,0,0,0-1.531,3.675l-5.034,1.231v7.068l5.019,1.227a17.249,17.249,0,0,0,1.52,3.679l-2.691,4.431,5,5,4.419-2.683a17.261,17.261,0,0,0,3.674,1.531l1.231,5.034h7.068l1.227-5.019a17.243,17.243,0,0,0,3.679-1.52l4.431,2.691,5-5L341.4,30.19a17.263,17.263,0,0,0,1.531-3.675Z" transform="translate(-304.507 0)" fill="#7453d8"/>
        </g>
        <g id="Grupo_150739" data-name="Grupo 150739" transform="translate(13.262 13.262)">
          <circle id="Elipse_6227" data-name="Elipse 6227" cx="8.465" cy="8.465" r="8.465" fill="#fff"/>
        </g>
      </g>
      <g id="Grupo_150741" data-name="Grupo 150741" transform="translate(21.159 71.315)">
        <g id="XMLID_189_" transform="translate(0 6.405)">
          <path id="Trazado_262559" data-name="Trazado 262559" d="M80.937,302.319a1.329,1.329,0,0,1-1.329-1.329v-7.248a1.329,1.329,0,0,1,2.658,0v7.248A1.329,1.329,0,0,1,80.937,302.319Z" transform="translate(-79.608 -292.413)" fill="#e1eaff"/>
        </g>
        <g id="XMLID_188_">
          <path id="Trazado_262560" data-name="Trazado 262560" d="M80.937,272.328A1.329,1.329,0,0,1,79.608,271v-1.354a1.329,1.329,0,0,1,2.658,0V271A1.329,1.329,0,0,1,80.937,272.328Z" transform="translate(-79.608 -268.316)" fill="#e1eaff"/>
        </g>
      </g>
      <g id="Grupo_150742" data-name="Grupo 150742" transform="translate(71.658 71.315)">
        <g id="XMLID_191_" transform="translate(0 6.405)">
          <path id="Trazado_262561" data-name="Trazado 262561" d="M270.937,302.319a1.329,1.329,0,0,1-1.329-1.329v-7.248a1.329,1.329,0,0,1,2.658,0v7.248A1.329,1.329,0,0,1,270.937,302.319Z" transform="translate(-269.608 -292.413)" fill="#e1eaff"/>
        </g>
        <g id="XMLID_190_">
          <path id="Trazado_262562" data-name="Trazado 262562" d="M270.937,272.328A1.329,1.329,0,0,1,269.608,271v-1.354a1.329,1.329,0,0,1,2.658,0V271A1.329,1.329,0,0,1,270.937,272.328Z" transform="translate(-269.608 -268.316)" fill="#e1eaff"/>
        </g>
      </g>
      <g id="Grupo_150745" data-name="Grupo 150745" transform="translate(96.921 52.233)">
        <g id="XMLID_193_" transform="translate(7.974 14.644)">
          <path id="Trazado_262563" data-name="Trazado 262563" d="M395.984,263.116a1.329,1.329,0,0,1-1.329-1.329v-8.843a1.329,1.329,0,0,1,2.658,0v8.843A1.329,1.329,0,0,1,395.984,263.116Z" transform="translate(-394.655 -251.615)" fill="#fff"/>
        </g>
        <g id="XMLID_192_" transform="translate(7.974 7.974)">
          <path id="Trazado_262564" data-name="Trazado 262564" d="M395.984,230.532a1.329,1.329,0,0,1-1.329-1.329v-1.354a1.329,1.329,0,1,1,2.658,0V229.2A1.329,1.329,0,0,1,395.984,230.532Z" transform="translate(-394.655 -226.52)" fill="#fff"/>
        </g>
        <g id="Grupo_150743" data-name="Grupo 150743">
          <g id="XMLID_201_" transform="translate(0 6.67)">
            <path id="Trazado_262565" data-name="Trazado 262565" d="M365.984,233.116a1.329,1.329,0,0,1-1.329-1.329v-8.843a1.329,1.329,0,0,1,2.658,0v8.843A1.329,1.329,0,0,1,365.984,233.116Z" transform="translate(-364.655 -221.615)" fill="#fff"/>
          </g>
          <g id="XMLID_200_">
            <path id="Trazado_262566" data-name="Trazado 262566" d="M365.984,200.532a1.329,1.329,0,0,1-1.329-1.329v-1.354a1.329,1.329,0,0,1,2.658,0V199.2A1.329,1.329,0,0,1,365.984,200.532Z" transform="translate(-364.655 -196.52)" fill="#fff"/>
          </g>
        </g>
        <g id="Grupo_150744" data-name="Grupo 150744" transform="translate(15.947)">
          <g id="XMLID_203_" transform="translate(0 6.67)">
            <path id="Trazado_262567" data-name="Trazado 262567" d="M425.984,233.116a1.329,1.329,0,0,1-1.329-1.329v-8.843a1.329,1.329,0,1,1,2.658,0v8.843A1.329,1.329,0,0,1,425.984,233.116Z" transform="translate(-424.655 -221.615)" fill="#fff"/>
          </g>
          <g id="XMLID_202_">
            <path id="Trazado_262568" data-name="Trazado 262568" d="M425.984,200.532a1.329,1.329,0,0,1-1.329-1.329v-1.354a1.329,1.329,0,0,1,2.658,0V199.2A1.329,1.329,0,0,1,425.984,200.532Z" transform="translate(-424.655 -196.52)" fill="#fff"/>
          </g>
        </g>
      </g>
      <g id="Grupo_150746" data-name="Grupo 150746" transform="translate(64.922 0)">
        <path id="Trazado_262569" data-name="Trazado 262569" d="M252.835,4.879l2.059.436-2.381.675a3.544,3.544,0,0,0-2.493,2.644l-.441,2-.441-2a3.544,3.544,0,0,0-2.493-2.644l-2.381-.675,2.059-.436a3.543,3.543,0,0,0,2.708-2.628L249.578,0l.548,2.251a3.544,3.544,0,0,0,2.709,2.628Z" transform="translate(-244.262 0)" fill="#fda929"/>
      </g>
    </g>
  </g>
</svg>
